ISO-10303-21;
HEADER;
/* Generated by software containing ST-Developer
 * from STEP Tools, Inc. (www.steptools.com) 
 */

FILE_DESCRIPTION(
/* description */ ('KiCad electronic assembly'),
/* implementation_level */ '2;1');

FILE_NAME(
/* name */ 'DreamPad_Base.step',
/* time_stamp */ '2026-09-13T08:56:24+05:30',
/* author */ (''),
/* organization */ (''),
/* preprocessor_version */ 'ST-DEVELOPER v20.2',
/* originating_system */ 'Autodesk Translation Framework v15.15.0.0',
/* authorisation */ '');

FILE_SCHEMA (('AUTOMOTIVE_DESIGN { 1 0 10303 214 3 1 1 }'));
ENDSEC;

DATA;
#10=MECHANICAL_DESIGN_GEOMETRIC_PRESENTATION_REPRESENTATION('',(#43,#44,
#45),#1331);
#11=SHAPE_REPRESENTATION_RELATIONSHIP('SRR','None',#1337,#12);
#12=ADVANCED_BREP_SHAPE_REPRESENTATION('',(#46,#47,#48),#1330);
#13=CIRCLE('',#838,1.6);
#14=CIRCLE('',#839,1.6);
#15=CIRCLE('',#842,1.6);
#16=CIRCLE('',#843,1.6);
#17=CIRCLE('',#846,1.6);
#18=CIRCLE('',#847,1.6);
#19=CIRCLE('',#850,1.6);
#20=CIRCLE('',#851,1.6);
#21=CIRCLE('',#854,1.6);
#22=CIRCLE('',#855,1.6);
#23=CIRCLE('',#858,3.00000000000001);
#24=CIRCLE('',#859,3.00000000000001);
#25=CIRCLE('',#862,3.00000000000001);
#26=CIRCLE('',#863,3.00000000000001);
#27=CIRCLE('',#866,3.00000000000001);
#28=CIRCLE('',#867,3.00000000000001);
#29=CIRCLE('',#870,3.00000000000001);
#30=CIRCLE('',#871,3.00000000000001);
#31=CIRCLE('',#874,3.00000000000001);
#32=CIRCLE('',#875,3.00000000000001);
#33=CYLINDRICAL_SURFACE('',#837,1.6);
#34=CYLINDRICAL_SURFACE('',#841,1.6);
#35=CYLINDRICAL_SURFACE('',#845,1.6);
#36=CYLINDRICAL_SURFACE('',#849,1.6);
#37=CYLINDRICAL_SURFACE('',#853,1.6);
#38=CYLINDRICAL_SURFACE('',#857,3.00000000000001);
#39=CYLINDRICAL_SURFACE('',#861,3.00000000000001);
#40=CYLINDRICAL_SURFACE('',#865,3.00000000000001);
#41=CYLINDRICAL_SURFACE('',#869,3.00000000000001);
#42=CYLINDRICAL_SURFACE('',#873,3.00000000000001);
#43=STYLED_ITEM('',(#1346),#46);
#44=STYLED_ITEM('',(#1346),#47);
#45=STYLED_ITEM('',(#1346),#48);
#46=MANIFOLD_SOLID_BREP('Body1',#809);
#47=MANIFOLD_SOLID_BREP('Body2',#810);
#48=MANIFOLD_SOLID_BREP('Body3',#811);
#49=FACE_BOUND('',#120,.T.);
#50=FACE_BOUND('',#122,.T.);
#51=FACE_BOUND('',#126,.T.);
#52=FACE_BOUND('',#131,.T.);
#53=FACE_BOUND('',#142,.T.);
#54=FACE_BOUND('',#144,.T.);
#55=FACE_BOUND('',#157,.T.);
#56=FACE_BOUND('',#160,.T.);
#57=FACE_BOUND('',#163,.T.);
#58=FACE_BOUND('',#166,.T.);
#59=FACE_BOUND('',#169,.T.);
#60=FACE_BOUND('',#174,.T.);
#61=FACE_BOUND('',#175,.T.);
#62=FACE_BOUND('',#176,.T.);
#63=FACE_BOUND('',#177,.T.);
#64=FACE_BOUND('',#178,.T.);
#65=FACE_OUTER_BOUND('',#115,.T.);
#66=FACE_OUTER_BOUND('',#116,.T.);
#67=FACE_OUTER_BOUND('',#117,.T.);
#68=FACE_OUTER_BOUND('',#118,.T.);
#69=FACE_OUTER_BOUND('',#119,.T.);
#70=FACE_OUTER_BOUND('',#121,.T.);
#71=FACE_OUTER_BOUND('',#123,.T.);
#72=FACE_OUTER_BOUND('',#124,.T.);
#73=FACE_OUTER_BOUND('',#125,.T.);
#74=FACE_OUTER_BOUND('',#127,.T.);
#75=FACE_OUTER_BOUND('',#128,.T.);
#76=FACE_OUTER_BOUND('',#129,.T.);
#77=FACE_OUTER_BOUND('',#130,.T.);
#78=FACE_OUTER_BOUND('',#132,.T.);
#79=FACE_OUTER_BOUND('',#133,.T.);
#80=FACE_OUTER_BOUND('',#134,.T.);
#81=FACE_OUTER_BOUND('',#135,.T.);
#82=FACE_OUTER_BOUND('',#136,.T.);
#83=FACE_OUTER_BOUND('',#137,.T.);
#84=FACE_OUTER_BOUND('',#138,.T.);
#85=FACE_OUTER_BOUND('',#139,.T.);
#86=FACE_OUTER_BOUND('',#140,.T.);
#87=FACE_OUTER_BOUND('',#141,.T.);
#88=FACE_OUTER_BOUND('',#143,.T.);
#89=FACE_OUTER_BOUND('',#145,.T.);
#90=FACE_OUTER_BOUND('',#146,.T.);
#91=FACE_OUTER_BOUND('',#147,.T.);
#92=FACE_OUTER_BOUND('',#148,.T.);
#93=FACE_OUTER_BOUND('',#149,.T.);
#94=FACE_OUTER_BOUND('',#150,.T.);
#95=FACE_OUTER_BOUND('',#151,.T.);
#96=FACE_OUTER_BOUND('',#152,.T.);
#97=FACE_OUTER_BOUND('',#153,.T.);
#98=FACE_OUTER_BOUND('',#154,.T.);
#99=FACE_OUTER_BOUND('',#155,.T.);
#100=FACE_OUTER_BOUND('',#156,.T.);
#101=FACE_OUTER_BOUND('',#158,.T.);
#102=FACE_OUTER_BOUND('',#159,.T.);
#103=FACE_OUTER_BOUND('',#161,.T.);
#104=FACE_OUTER_BOUND('',#162,.T.);
#105=FACE_OUTER_BOUND('',#164,.T.);
#106=FACE_OUTER_BOUND('',#165,.T.);
#107=FACE_OUTER_BOUND('',#167,.T.);
#108=FACE_OUTER_BOUND('',#168,.T.);
#109=FACE_OUTER_BOUND('',#170,.T.);
#110=FACE_OUTER_BOUND('',#171,.T.);
#111=FACE_OUTER_BOUND('',#172,.T.);
#112=FACE_OUTER_BOUND('',#173,.T.);
#113=FACE_OUTER_BOUND('',#179,.T.);
#114=FACE_OUTER_BOUND('',#180,.T.);
#115=EDGE_LOOP('',(#515,#516,#517,#518));
#116=EDGE_LOOP('',(#519,#520,#521,#522));
#117=EDGE_LOOP('',(#523,#524,#525,#526));
#118=EDGE_LOOP('',(#527,#528,#529,#530));
#119=EDGE_LOOP('',(#531,#532,#533,#534));
#120=EDGE_LOOP('',(#535,#536,#537,#538));
#121=EDGE_LOOP('',(#539,#540,#541,#542));
#122=EDGE_LOOP('',(#543,#544,#545,#546));
#123=EDGE_LOOP('',(#547,#548,#549,#550));
#124=EDGE_LOOP('',(#551,#552,#553,#554));
#125=EDGE_LOOP('',(#555,#556,#557,#558));
#126=EDGE_LOOP('',(#559,#560,#561,#562));
#127=EDGE_LOOP('',(#563,#564,#565,#566));
#128=EDGE_LOOP('',(#567,#568,#569,#570));
#129=EDGE_LOOP('',(#571,#572,#573,#574));
#130=EDGE_LOOP('',(#575,#576,#577,#578));
#131=EDGE_LOOP('',(#579,#580,#581,#582));
#132=EDGE_LOOP('',(#583,#584,#585,#586));
#133=EDGE_LOOP('',(#587,#588,#589,#590));
#134=EDGE_LOOP('',(#591,#592,#593,#594));
#135=EDGE_LOOP('',(#595,#596,#597,#598));
#136=EDGE_LOOP('',(#599,#600,#601,#602));
#137=EDGE_LOOP('',(#603,#604,#605,#606));
#138=EDGE_LOOP('',(#607,#608,#609,#610));
#139=EDGE_LOOP('',(#611,#612,#613,#614));
#140=EDGE_LOOP('',(#615,#616,#617,#618));
#141=EDGE_LOOP('',(#619,#620,#621,#622));
#142=EDGE_LOOP('',(#623,#624,#625,#626));
#143=EDGE_LOOP('',(#627,#628,#629,#630));
#144=EDGE_LOOP('',(#631,#632,#633,#634));
#145=EDGE_LOOP('',(#635,#636,#637,#638));
#146=EDGE_LOOP('',(#639));
#147=EDGE_LOOP('',(#640,#641,#642,#643));
#148=EDGE_LOOP('',(#644));
#149=EDGE_LOOP('',(#645,#646,#647,#648));
#150=EDGE_LOOP('',(#649));
#151=EDGE_LOOP('',(#650,#651,#652,#653));
#152=EDGE_LOOP('',(#654));
#153=EDGE_LOOP('',(#655,#656,#657,#658));
#154=EDGE_LOOP('',(#659));
#155=EDGE_LOOP('',(#660,#661,#662,#663));
#156=EDGE_LOOP('',(#664));
#157=EDGE_LOOP('',(#665));
#158=EDGE_LOOP('',(#666,#667,#668,#669));
#159=EDGE_LOOP('',(#670));
#160=EDGE_LOOP('',(#671));
#161=EDGE_LOOP('',(#672,#673,#674,#675));
#162=EDGE_LOOP('',(#676));
#163=EDGE_LOOP('',(#677));
#164=EDGE_LOOP('',(#678,#679,#680,#681));
#165=EDGE_LOOP('',(#682));
#166=EDGE_LOOP('',(#683));
#167=EDGE_LOOP('',(#684,#685,#686,#687));
#168=EDGE_LOOP('',(#688));
#169=EDGE_LOOP('',(#689));
#170=EDGE_LOOP('',(#690,#691,#692,#693));
#171=EDGE_LOOP('',(#694,#695,#696,#697));
#172=EDGE_LOOP('',(#698,#699,#700,#701));
#173=EDGE_LOOP('',(#702,#703,#704,#705));
#174=EDGE_LOOP('',(#706));
#175=EDGE_LOOP('',(#707));
#176=EDGE_LOOP('',(#708));
#177=EDGE_LOOP('',(#709));
#178=EDGE_LOOP('',(#710));
#179=EDGE_LOOP('',(#711,#712,#713,#714));
#180=EDGE_LOOP('',(#715,#716,#717,#718));
#181=LINE('',#1111,#263);
#182=LINE('',#1113,#264);
#183=LINE('',#1115,#265);
#184=LINE('',#1116,#266);
#185=LINE('',#1119,#267);
#186=LINE('',#1121,#268);
#187=LINE('',#1122,#269);
#188=LINE('',#1125,#270);
#189=LINE('',#1127,#271);
#190=LINE('',#1128,#272);
#191=LINE('',#1130,#273);
#192=LINE('',#1131,#274);
#193=LINE('',#1135,#275);
#194=LINE('',#1137,#276);
#195=LINE('',#1139,#277);
#196=LINE('',#1140,#278);
#197=LINE('',#1143,#279);
#198=LINE('',#1145,#280);
#199=LINE('',#1147,#281);
#200=LINE('',#1148,#282);
#201=LINE('',#1152,#283);
#202=LINE('',#1154,#284);
#203=LINE('',#1156,#285);
#204=LINE('',#1157,#286);
#205=LINE('',#1160,#287);
#206=LINE('',#1162,#288);
#207=LINE('',#1164,#289);
#208=LINE('',#1165,#290);
#209=LINE('',#1167,#291);
#210=LINE('',#1168,#292);
#211=LINE('',#1170,#293);
#212=LINE('',#1172,#294);
#213=LINE('',#1175,#295);
#214=LINE('',#1176,#296);
#215=LINE('',#1178,#297);
#216=LINE('',#1180,#298);
#217=LINE('',#1185,#299);
#218=LINE('',#1187,#300);
#219=LINE('',#1189,#301);
#220=LINE('',#1190,#302);
#221=LINE('',#1193,#303);
#222=LINE('',#1195,#304);
#223=LINE('',#1196,#305);
#224=LINE('',#1199,#306);
#225=LINE('',#1201,#307);
#226=LINE('',#1202,#308);
#227=LINE('',#1204,#309);
#228=LINE('',#1205,#310);
#229=LINE('',#1209,#311);
#230=LINE('',#1211,#312);
#231=LINE('',#1213,#313);
#232=LINE('',#1214,#314);
#233=LINE('',#1217,#315);
#234=LINE('',#1219,#316);
#235=LINE('',#1220,#317);
#236=LINE('',#1223,#318);
#237=LINE('',#1225,#319);
#238=LINE('',#1226,#320);
#239=LINE('',#1228,#321);
#240=LINE('',#1229,#322);
#241=LINE('',#1236,#323);
#242=LINE('',#1243,#324);
#243=LINE('',#1250,#325);
#244=LINE('',#1257,#326);
#245=LINE('',#1264,#327);
#246=LINE('',#1271,#328);
#247=LINE('',#1278,#329);
#248=LINE('',#1285,#330);
#249=LINE('',#1292,#331);
#250=LINE('',#1299,#332);
#251=LINE('',#1305,#333);
#252=LINE('',#1307,#334);
#253=LINE('',#1309,#335);
#254=LINE('',#1310,#336);
#255=LINE('',#1313,#337);
#256=LINE('',#1315,#338);
#257=LINE('',#1316,#339);
#258=LINE('',#1319,#340);
#259=LINE('',#1321,#341);
#260=LINE('',#1322,#342);
#261=LINE('',#1324,#343);
#262=LINE('',#1325,#344);
#263=VECTOR('',#887,10.);
#264=VECTOR('',#888,10.);
#265=VECTOR('',#889,10.);
#266=VECTOR('',#890,10.);
#267=VECTOR('',#893,10.);
#268=VECTOR('',#894,10.);
#269=VECTOR('',#895,10.);
#270=VECTOR('',#898,10.);
#271=VECTOR('',#899,10.);
#272=VECTOR('',#900,10.);
#273=VECTOR('',#903,10.);
#274=VECTOR('',#904,10.);
#275=VECTOR('',#907,10.);
#276=VECTOR('',#908,10.);
#277=VECTOR('',#909,10.);
#278=VECTOR('',#910,10.);
#279=VECTOR('',#911,10.);
#280=VECTOR('',#912,10.);
#281=VECTOR('',#913,10.);
#282=VECTOR('',#914,10.);
#283=VECTOR('',#917,10.);
#284=VECTOR('',#918,10.);
#285=VECTOR('',#919,10.);
#286=VECTOR('',#920,10.);
#287=VECTOR('',#921,10.);
#288=VECTOR('',#922,10.);
#289=VECTOR('',#923,10.);
#290=VECTOR('',#924,10.);
#291=VECTOR('',#927,10.);
#292=VECTOR('',#928,10.);
#293=VECTOR('',#931,10.);
#294=VECTOR('',#934,10.);
#295=VECTOR('',#939,10.);
#296=VECTOR('',#940,10.);
#297=VECTOR('',#943,10.);
#298=VECTOR('',#946,10.);
#299=VECTOR('',#951,10.);
#300=VECTOR('',#952,10.);
#301=VECTOR('',#953,10.);
#302=VECTOR('',#954,10.);
#303=VECTOR('',#957,10.);
#304=VECTOR('',#958,10.);
#305=VECTOR('',#959,10.);
#306=VECTOR('',#962,10.);
#307=VECTOR('',#963,10.);
#308=VECTOR('',#964,10.);
#309=VECTOR('',#967,10.);
#310=VECTOR('',#968,10.);
#311=VECTOR('',#971,10.);
#312=VECTOR('',#972,10.);
#313=VECTOR('',#973,10.);
#314=VECTOR('',#974,10.);
#315=VECTOR('',#977,10.);
#316=VECTOR('',#978,10.);
#317=VECTOR('',#979,10.);
#318=VECTOR('',#982,10.);
#319=VECTOR('',#983,10.);
#320=VECTOR('',#984,10.);
#321=VECTOR('',#987,10.);
#322=VECTOR('',#988,10.);
#323=VECTOR('',#997,1.6);
#324=VECTOR('',#1006,1.6);
#325=VECTOR('',#1015,1.6);
#326=VECTOR('',#1024,1.6);
#327=VECTOR('',#1033,1.6);
#328=VECTOR('',#1042,3.00000000000001);
#329=VECTOR('',#1051,3.00000000000001);
#330=VECTOR('',#1060,3.00000000000001);
#331=VECTOR('',#1069,3.00000000000001);
#332=VECTOR('',#1078,3.00000000000001);
#333=VECTOR('',#1085,10.);
#334=VECTOR('',#1086,10.);
#335=VECTOR('',#1087,10.);
#336=VECTOR('',#1088,10.);
#337=VECTOR('',#1091,10.);
#338=VECTOR('',#1092,10.);
#339=VECTOR('',#1093,10.);
#340=VECTOR('',#1096,10.);
#341=VECTOR('',#1097,10.);
#342=VECTOR('',#1098,10.);
#343=VECTOR('',#1101,10.);
#344=VECTOR('',#1102,10.);
#345=VERTEX_POINT('',#1109);
#346=VERTEX_POINT('',#1110);
#347=VERTEX_POINT('',#1112);
#348=VERTEX_POINT('',#1114);
#349=VERTEX_POINT('',#1118);
#350=VERTEX_POINT('',#1120);
#351=VERTEX_POINT('',#1124);
#352=VERTEX_POINT('',#1126);
#353=VERTEX_POINT('',#1133);
#354=VERTEX_POINT('',#1134);
#355=VERTEX_POINT('',#1136);
#356=VERTEX_POINT('',#1138);
#357=VERTEX_POINT('',#1141);
#358=VERTEX_POINT('',#1142);
#359=VERTEX_POINT('',#1144);
#360=VERTEX_POINT('',#1146);
#361=VERTEX_POINT('',#1150);
#362=VERTEX_POINT('',#1151);
#363=VERTEX_POINT('',#1153);
#364=VERTEX_POINT('',#1155);
#365=VERTEX_POINT('',#1158);
#366=VERTEX_POINT('',#1159);
#367=VERTEX_POINT('',#1161);
#368=VERTEX_POINT('',#1163);
#369=VERTEX_POINT('',#1183);
#370=VERTEX_POINT('',#1184);
#371=VERTEX_POINT('',#1186);
#372=VERTEX_POINT('',#1188);
#373=VERTEX_POINT('',#1192);
#374=VERTEX_POINT('',#1194);
#375=VERTEX_POINT('',#1198);
#376=VERTEX_POINT('',#1200);
#377=VERTEX_POINT('',#1207);
#378=VERTEX_POINT('',#1208);
#379=VERTEX_POINT('',#1210);
#380=VERTEX_POINT('',#1212);
#381=VERTEX_POINT('',#1216);
#382=VERTEX_POINT('',#1218);
#383=VERTEX_POINT('',#1222);
#384=VERTEX_POINT('',#1224);
#385=VERTEX_POINT('',#1233);
#386=VERTEX_POINT('',#1235);
#387=VERTEX_POINT('',#1240);
#388=VERTEX_POINT('',#1242);
#389=VERTEX_POINT('',#1247);
#390=VERTEX_POINT('',#1249);
#391=VERTEX_POINT('',#1254);
#392=VERTEX_POINT('',#1256);
#393=VERTEX_POINT('',#1261);
#394=VERTEX_POINT('',#1263);
#395=VERTEX_POINT('',#1268);
#396=VERTEX_POINT('',#1270);
#397=VERTEX_POINT('',#1275);
#398=VERTEX_POINT('',#1277);
#399=VERTEX_POINT('',#1282);
#400=VERTEX_POINT('',#1284);
#401=VERTEX_POINT('',#1289);
#402=VERTEX_POINT('',#1291);
#403=VERTEX_POINT('',#1296);
#404=VERTEX_POINT('',#1298);
#405=VERTEX_POINT('',#1303);
#406=VERTEX_POINT('',#1304);
#407=VERTEX_POINT('',#1306);
#408=VERTEX_POINT('',#1308);
#409=VERTEX_POINT('',#1312);
#410=VERTEX_POINT('',#1314);
#411=VERTEX_POINT('',#1318);
#412=VERTEX_POINT('',#1320);
#413=EDGE_CURVE('',#345,#346,#181,.T.);
#414=EDGE_CURVE('',#347,#345,#182,.T.);
#415=EDGE_CURVE('',#348,#347,#183,.T.);
#416=EDGE_CURVE('',#348,#346,#184,.T.);
#417=EDGE_CURVE('',#346,#349,#185,.T.);
#418=EDGE_CURVE('',#350,#348,#186,.T.);
#419=EDGE_CURVE('',#350,#349,#187,.T.);
#420=EDGE_CURVE('',#349,#351,#188,.T.);
#421=EDGE_CURVE('',#352,#350,#189,.T.);
#422=EDGE_CURVE('',#352,#351,#190,.T.);
#423=EDGE_CURVE('',#351,#345,#191,.T.);
#424=EDGE_CURVE('',#347,#352,#192,.T.);
#425=EDGE_CURVE('',#353,#354,#193,.T.);
#426=EDGE_CURVE('',#354,#355,#194,.T.);
#427=EDGE_CURVE('',#355,#356,#195,.T.);
#428=EDGE_CURVE('',#356,#353,#196,.T.);
#429=EDGE_CURVE('',#357,#358,#197,.T.);
#430=EDGE_CURVE('',#358,#359,#198,.T.);
#431=EDGE_CURVE('',#359,#360,#199,.T.);
#432=EDGE_CURVE('',#360,#357,#200,.T.);
#433=EDGE_CURVE('',#361,#362,#201,.T.);
#434=EDGE_CURVE('',#362,#363,#202,.T.);
#435=EDGE_CURVE('',#363,#364,#203,.T.);
#436=EDGE_CURVE('',#364,#361,#204,.T.);
#437=EDGE_CURVE('',#365,#366,#205,.T.);
#438=EDGE_CURVE('',#366,#367,#206,.T.);
#439=EDGE_CURVE('',#367,#368,#207,.T.);
#440=EDGE_CURVE('',#368,#365,#208,.T.);
#441=EDGE_CURVE('',#357,#366,#209,.T.);
#442=EDGE_CURVE('',#367,#360,#210,.T.);
#443=EDGE_CURVE('',#368,#359,#211,.T.);
#444=EDGE_CURVE('',#365,#358,#212,.T.);
#445=EDGE_CURVE('',#353,#362,#213,.T.);
#446=EDGE_CURVE('',#363,#356,#214,.T.);
#447=EDGE_CURVE('',#364,#355,#215,.T.);
#448=EDGE_CURVE('',#361,#354,#216,.T.);
#449=EDGE_CURVE('',#369,#370,#217,.T.);
#450=EDGE_CURVE('',#370,#371,#218,.T.);
#451=EDGE_CURVE('',#372,#371,#219,.T.);
#452=EDGE_CURVE('',#369,#372,#220,.T.);
#453=EDGE_CURVE('',#373,#369,#221,.T.);
#454=EDGE_CURVE('',#374,#372,#222,.T.);
#455=EDGE_CURVE('',#373,#374,#223,.T.);
#456=EDGE_CURVE('',#375,#373,#224,.T.);
#457=EDGE_CURVE('',#376,#374,#225,.T.);
#458=EDGE_CURVE('',#375,#376,#226,.T.);
#459=EDGE_CURVE('',#370,#375,#227,.T.);
#460=EDGE_CURVE('',#371,#376,#228,.T.);
#461=EDGE_CURVE('',#377,#378,#229,.T.);
#462=EDGE_CURVE('',#378,#379,#230,.T.);
#463=EDGE_CURVE('',#380,#379,#231,.T.);
#464=EDGE_CURVE('',#377,#380,#232,.T.);
#465=EDGE_CURVE('',#381,#377,#233,.T.);
#466=EDGE_CURVE('',#382,#380,#234,.T.);
#467=EDGE_CURVE('',#381,#382,#235,.T.);
#468=EDGE_CURVE('',#383,#381,#236,.T.);
#469=EDGE_CURVE('',#384,#382,#237,.T.);
#470=EDGE_CURVE('',#383,#384,#238,.T.);
#471=EDGE_CURVE('',#378,#383,#239,.T.);
#472=EDGE_CURVE('',#379,#384,#240,.T.);
#473=EDGE_CURVE('',#385,#385,#13,.T.);
#474=EDGE_CURVE('',#385,#386,#241,.T.);
#475=EDGE_CURVE('',#386,#386,#14,.T.);
#476=EDGE_CURVE('',#387,#387,#15,.T.);
#477=EDGE_CURVE('',#387,#388,#242,.T.);
#478=EDGE_CURVE('',#388,#388,#16,.T.);
#479=EDGE_CURVE('',#389,#389,#17,.T.);
#480=EDGE_CURVE('',#389,#390,#243,.T.);
#481=EDGE_CURVE('',#390,#390,#18,.T.);
#482=EDGE_CURVE('',#391,#391,#19,.T.);
#483=EDGE_CURVE('',#391,#392,#244,.T.);
#484=EDGE_CURVE('',#392,#392,#20,.T.);
#485=EDGE_CURVE('',#393,#393,#21,.T.);
#486=EDGE_CURVE('',#393,#394,#245,.T.);
#487=EDGE_CURVE('',#394,#394,#22,.T.);
#488=EDGE_CURVE('',#395,#395,#23,.T.);
#489=EDGE_CURVE('',#395,#396,#246,.T.);
#490=EDGE_CURVE('',#396,#396,#24,.T.);
#491=EDGE_CURVE('',#397,#397,#25,.T.);
#492=EDGE_CURVE('',#397,#398,#247,.T.);
#493=EDGE_CURVE('',#398,#398,#26,.T.);
#494=EDGE_CURVE('',#399,#399,#27,.T.);
#495=EDGE_CURVE('',#399,#400,#248,.T.);
#496=EDGE_CURVE('',#400,#400,#28,.T.);
#497=EDGE_CURVE('',#401,#401,#29,.T.);
#498=EDGE_CURVE('',#401,#402,#249,.T.);
#499=EDGE_CURVE('',#402,#402,#30,.T.);
#500=EDGE_CURVE('',#403,#403,#31,.T.);
#501=EDGE_CURVE('',#403,#404,#250,.T.);
#502=EDGE_CURVE('',#404,#404,#32,.T.);
#503=EDGE_CURVE('',#405,#406,#251,.T.);
#504=EDGE_CURVE('',#405,#407,#252,.T.);
#505=EDGE_CURVE('',#408,#407,#253,.T.);
#506=EDGE_CURVE('',#406,#408,#254,.T.);
#507=EDGE_CURVE('',#406,#409,#255,.T.);
#508=EDGE_CURVE('',#410,#408,#256,.T.);
#509=EDGE_CURVE('',#409,#410,#257,.T.);
#510=EDGE_CURVE('',#411,#409,#258,.T.);
#511=EDGE_CURVE('',#412,#410,#259,.T.);
#512=EDGE_CURVE('',#411,#412,#260,.T.);
#513=EDGE_CURVE('',#405,#411,#261,.T.);
#514=EDGE_CURVE('',#407,#412,#262,.T.);
#515=ORIENTED_EDGE('',*,*,#413,.F.);
#516=ORIENTED_EDGE('',*,*,#414,.F.);
#517=ORIENTED_EDGE('',*,*,#415,.F.);
#518=ORIENTED_EDGE('',*,*,#416,.T.);
#519=ORIENTED_EDGE('',*,*,#417,.F.);
#520=ORIENTED_EDGE('',*,*,#416,.F.);
#521=ORIENTED_EDGE('',*,*,#418,.F.);
#522=ORIENTED_EDGE('',*,*,#419,.T.);
#523=ORIENTED_EDGE('',*,*,#420,.F.);
#524=ORIENTED_EDGE('',*,*,#419,.F.);
#525=ORIENTED_EDGE('',*,*,#421,.F.);
#526=ORIENTED_EDGE('',*,*,#422,.T.);
#527=ORIENTED_EDGE('',*,*,#423,.F.);
#528=ORIENTED_EDGE('',*,*,#422,.F.);
#529=ORIENTED_EDGE('',*,*,#424,.F.);
#530=ORIENTED_EDGE('',*,*,#414,.T.);
#531=ORIENTED_EDGE('',*,*,#425,.T.);
#532=ORIENTED_EDGE('',*,*,#426,.T.);
#533=ORIENTED_EDGE('',*,*,#427,.T.);
#534=ORIENTED_EDGE('',*,*,#428,.T.);
#535=ORIENTED_EDGE('',*,*,#429,.T.);
#536=ORIENTED_EDGE('',*,*,#430,.T.);
#537=ORIENTED_EDGE('',*,*,#431,.T.);
#538=ORIENTED_EDGE('',*,*,#432,.T.);
#539=ORIENTED_EDGE('',*,*,#433,.T.);
#540=ORIENTED_EDGE('',*,*,#434,.T.);
#541=ORIENTED_EDGE('',*,*,#435,.T.);
#542=ORIENTED_EDGE('',*,*,#436,.T.);
#543=ORIENTED_EDGE('',*,*,#437,.T.);
#544=ORIENTED_EDGE('',*,*,#438,.T.);
#545=ORIENTED_EDGE('',*,*,#439,.T.);
#546=ORIENTED_EDGE('',*,*,#440,.T.);
#547=ORIENTED_EDGE('',*,*,#441,.F.);
#548=ORIENTED_EDGE('',*,*,#432,.F.);
#549=ORIENTED_EDGE('',*,*,#442,.F.);
#550=ORIENTED_EDGE('',*,*,#438,.F.);
#551=ORIENTED_EDGE('',*,*,#442,.T.);
#552=ORIENTED_EDGE('',*,*,#431,.F.);
#553=ORIENTED_EDGE('',*,*,#443,.F.);
#554=ORIENTED_EDGE('',*,*,#439,.F.);
#555=ORIENTED_EDGE('',*,*,#443,.T.);
#556=ORIENTED_EDGE('',*,*,#430,.F.);
#557=ORIENTED_EDGE('',*,*,#444,.F.);
#558=ORIENTED_EDGE('',*,*,#440,.F.);
#559=ORIENTED_EDGE('',*,*,#420,.T.);
#560=ORIENTED_EDGE('',*,*,#423,.T.);
#561=ORIENTED_EDGE('',*,*,#413,.T.);
#562=ORIENTED_EDGE('',*,*,#417,.T.);
#563=ORIENTED_EDGE('',*,*,#444,.T.);
#564=ORIENTED_EDGE('',*,*,#429,.F.);
#565=ORIENTED_EDGE('',*,*,#441,.T.);
#566=ORIENTED_EDGE('',*,*,#437,.F.);
#567=ORIENTED_EDGE('',*,*,#445,.F.);
#568=ORIENTED_EDGE('',*,*,#428,.F.);
#569=ORIENTED_EDGE('',*,*,#446,.F.);
#570=ORIENTED_EDGE('',*,*,#434,.F.);
#571=ORIENTED_EDGE('',*,*,#446,.T.);
#572=ORIENTED_EDGE('',*,*,#427,.F.);
#573=ORIENTED_EDGE('',*,*,#447,.F.);
#574=ORIENTED_EDGE('',*,*,#435,.F.);
#575=ORIENTED_EDGE('',*,*,#447,.T.);
#576=ORIENTED_EDGE('',*,*,#426,.F.);
#577=ORIENTED_EDGE('',*,*,#448,.F.);
#578=ORIENTED_EDGE('',*,*,#436,.F.);
#579=ORIENTED_EDGE('',*,*,#421,.T.);
#580=ORIENTED_EDGE('',*,*,#418,.T.);
#581=ORIENTED_EDGE('',*,*,#415,.T.);
#582=ORIENTED_EDGE('',*,*,#424,.T.);
#583=ORIENTED_EDGE('',*,*,#448,.T.);
#584=ORIENTED_EDGE('',*,*,#425,.F.);
#585=ORIENTED_EDGE('',*,*,#445,.T.);
#586=ORIENTED_EDGE('',*,*,#433,.F.);
#587=ORIENTED_EDGE('',*,*,#449,.T.);
#588=ORIENTED_EDGE('',*,*,#450,.T.);
#589=ORIENTED_EDGE('',*,*,#451,.F.);
#590=ORIENTED_EDGE('',*,*,#452,.F.);
#591=ORIENTED_EDGE('',*,*,#453,.T.);
#592=ORIENTED_EDGE('',*,*,#452,.T.);
#593=ORIENTED_EDGE('',*,*,#454,.F.);
#594=ORIENTED_EDGE('',*,*,#455,.F.);
#595=ORIENTED_EDGE('',*,*,#456,.T.);
#596=ORIENTED_EDGE('',*,*,#455,.T.);
#597=ORIENTED_EDGE('',*,*,#457,.F.);
#598=ORIENTED_EDGE('',*,*,#458,.F.);
#599=ORIENTED_EDGE('',*,*,#459,.T.);
#600=ORIENTED_EDGE('',*,*,#458,.T.);
#601=ORIENTED_EDGE('',*,*,#460,.F.);
#602=ORIENTED_EDGE('',*,*,#450,.F.);
#603=ORIENTED_EDGE('',*,*,#461,.T.);
#604=ORIENTED_EDGE('',*,*,#462,.T.);
#605=ORIENTED_EDGE('',*,*,#463,.F.);
#606=ORIENTED_EDGE('',*,*,#464,.F.);
#607=ORIENTED_EDGE('',*,*,#465,.T.);
#608=ORIENTED_EDGE('',*,*,#464,.T.);
#609=ORIENTED_EDGE('',*,*,#466,.F.);
#610=ORIENTED_EDGE('',*,*,#467,.F.);
#611=ORIENTED_EDGE('',*,*,#468,.T.);
#612=ORIENTED_EDGE('',*,*,#467,.T.);
#613=ORIENTED_EDGE('',*,*,#469,.F.);
#614=ORIENTED_EDGE('',*,*,#470,.F.);
#615=ORIENTED_EDGE('',*,*,#471,.T.);
#616=ORIENTED_EDGE('',*,*,#470,.T.);
#617=ORIENTED_EDGE('',*,*,#472,.F.);
#618=ORIENTED_EDGE('',*,*,#462,.F.);
#619=ORIENTED_EDGE('',*,*,#472,.T.);
#620=ORIENTED_EDGE('',*,*,#469,.T.);
#621=ORIENTED_EDGE('',*,*,#466,.T.);
#622=ORIENTED_EDGE('',*,*,#463,.T.);
#623=ORIENTED_EDGE('',*,*,#460,.T.);
#624=ORIENTED_EDGE('',*,*,#457,.T.);
#625=ORIENTED_EDGE('',*,*,#454,.T.);
#626=ORIENTED_EDGE('',*,*,#451,.T.);
#627=ORIENTED_EDGE('',*,*,#471,.F.);
#628=ORIENTED_EDGE('',*,*,#461,.F.);
#629=ORIENTED_EDGE('',*,*,#465,.F.);
#630=ORIENTED_EDGE('',*,*,#468,.F.);
#631=ORIENTED_EDGE('',*,*,#459,.F.);
#632=ORIENTED_EDGE('',*,*,#449,.F.);
#633=ORIENTED_EDGE('',*,*,#453,.F.);
#634=ORIENTED_EDGE('',*,*,#456,.F.);
#635=ORIENTED_EDGE('',*,*,#473,.F.);
#636=ORIENTED_EDGE('',*,*,#474,.T.);
#637=ORIENTED_EDGE('',*,*,#475,.T.);
#638=ORIENTED_EDGE('',*,*,#474,.F.);
#639=ORIENTED_EDGE('',*,*,#475,.F.);
#640=ORIENTED_EDGE('',*,*,#476,.F.);
#641=ORIENTED_EDGE('',*,*,#477,.T.);
#642=ORIENTED_EDGE('',*,*,#478,.T.);
#643=ORIENTED_EDGE('',*,*,#477,.F.);
#644=ORIENTED_EDGE('',*,*,#478,.F.);
#645=ORIENTED_EDGE('',*,*,#479,.F.);
#646=ORIENTED_EDGE('',*,*,#480,.T.);
#647=ORIENTED_EDGE('',*,*,#481,.T.);
#648=ORIENTED_EDGE('',*,*,#480,.F.);
#649=ORIENTED_EDGE('',*,*,#481,.F.);
#650=ORIENTED_EDGE('',*,*,#482,.F.);
#651=ORIENTED_EDGE('',*,*,#483,.T.);
#652=ORIENTED_EDGE('',*,*,#484,.T.);
#653=ORIENTED_EDGE('',*,*,#483,.F.);
#654=ORIENTED_EDGE('',*,*,#484,.F.);
#655=ORIENTED_EDGE('',*,*,#485,.F.);
#656=ORIENTED_EDGE('',*,*,#486,.T.);
#657=ORIENTED_EDGE('',*,*,#487,.T.);
#658=ORIENTED_EDGE('',*,*,#486,.F.);
#659=ORIENTED_EDGE('',*,*,#487,.F.);
#660=ORIENTED_EDGE('',*,*,#488,.F.);
#661=ORIENTED_EDGE('',*,*,#489,.T.);
#662=ORIENTED_EDGE('',*,*,#490,.F.);
#663=ORIENTED_EDGE('',*,*,#489,.F.);
#664=ORIENTED_EDGE('',*,*,#490,.T.);
#665=ORIENTED_EDGE('',*,*,#482,.T.);
#666=ORIENTED_EDGE('',*,*,#491,.F.);
#667=ORIENTED_EDGE('',*,*,#492,.T.);
#668=ORIENTED_EDGE('',*,*,#493,.F.);
#669=ORIENTED_EDGE('',*,*,#492,.F.);
#670=ORIENTED_EDGE('',*,*,#493,.T.);
#671=ORIENTED_EDGE('',*,*,#485,.T.);
#672=ORIENTED_EDGE('',*,*,#494,.F.);
#673=ORIENTED_EDGE('',*,*,#495,.T.);
#674=ORIENTED_EDGE('',*,*,#496,.F.);
#675=ORIENTED_EDGE('',*,*,#495,.F.);
#676=ORIENTED_EDGE('',*,*,#496,.T.);
#677=ORIENTED_EDGE('',*,*,#476,.T.);
#678=ORIENTED_EDGE('',*,*,#497,.F.);
#679=ORIENTED_EDGE('',*,*,#498,.T.);
#680=ORIENTED_EDGE('',*,*,#499,.F.);
#681=ORIENTED_EDGE('',*,*,#498,.F.);
#682=ORIENTED_EDGE('',*,*,#499,.T.);
#683=ORIENTED_EDGE('',*,*,#479,.T.);
#684=ORIENTED_EDGE('',*,*,#500,.F.);
#685=ORIENTED_EDGE('',*,*,#501,.T.);
#686=ORIENTED_EDGE('',*,*,#502,.F.);
#687=ORIENTED_EDGE('',*,*,#501,.F.);
#688=ORIENTED_EDGE('',*,*,#502,.T.);
#689=ORIENTED_EDGE('',*,*,#473,.T.);
#690=ORIENTED_EDGE('',*,*,#503,.F.);
#691=ORIENTED_EDGE('',*,*,#504,.T.);
#692=ORIENTED_EDGE('',*,*,#505,.F.);
#693=ORIENTED_EDGE('',*,*,#506,.F.);
#694=ORIENTED_EDGE('',*,*,#507,.F.);
#695=ORIENTED_EDGE('',*,*,#506,.T.);
#696=ORIENTED_EDGE('',*,*,#508,.F.);
#697=ORIENTED_EDGE('',*,*,#509,.F.);
#698=ORIENTED_EDGE('',*,*,#510,.T.);
#699=ORIENTED_EDGE('',*,*,#509,.T.);
#700=ORIENTED_EDGE('',*,*,#511,.F.);
#701=ORIENTED_EDGE('',*,*,#512,.F.);
#702=ORIENTED_EDGE('',*,*,#513,.T.);
#703=ORIENTED_EDGE('',*,*,#512,.T.);
#704=ORIENTED_EDGE('',*,*,#514,.F.);
#705=ORIENTED_EDGE('',*,*,#504,.F.);
#706=ORIENTED_EDGE('',*,*,#488,.T.);
#707=ORIENTED_EDGE('',*,*,#491,.T.);
#708=ORIENTED_EDGE('',*,*,#494,.T.);
#709=ORIENTED_EDGE('',*,*,#497,.T.);
#710=ORIENTED_EDGE('',*,*,#500,.T.);
#711=ORIENTED_EDGE('',*,*,#514,.T.);
#712=ORIENTED_EDGE('',*,*,#511,.T.);
#713=ORIENTED_EDGE('',*,*,#508,.T.);
#714=ORIENTED_EDGE('',*,*,#505,.T.);
#715=ORIENTED_EDGE('',*,*,#513,.F.);
#716=ORIENTED_EDGE('',*,*,#503,.T.);
#717=ORIENTED_EDGE('',*,*,#507,.T.);
#718=ORIENTED_EDGE('',*,*,#510,.F.);
#719=PLANE('',#813);
#720=PLANE('',#814);
#721=PLANE('',#815);
#722=PLANE('',#816);
#723=PLANE('',#817);
#724=PLANE('',#818);
#725=PLANE('',#819);
#726=PLANE('',#820);
#727=PLANE('',#821);
#728=PLANE('',#822);
#729=PLANE('',#823);
#730=PLANE('',#824);
#731=PLANE('',#825);
#732=PLANE('',#826);
#733=PLANE('',#827);
#734=PLANE('',#828);
#735=PLANE('',#829);
#736=PLANE('',#830);
#737=PLANE('',#831);
#738=PLANE('',#832);
#739=PLANE('',#833);
#740=PLANE('',#834);
#741=PLANE('',#835);
#742=PLANE('',#836);
#743=PLANE('',#840);
#744=PLANE('',#844);
#745=PLANE('',#848);
#746=PLANE('',#852);
#747=PLANE('',#856);
#748=PLANE('',#860);
#749=PLANE('',#864);
#750=PLANE('',#868);
#751=PLANE('',#872);
#752=PLANE('',#876);
#753=PLANE('',#877);
#754=PLANE('',#878);
#755=PLANE('',#879);
#756=PLANE('',#880);
#757=PLANE('',#881);
#758=PLANE('',#882);
#759=ADVANCED_FACE('',(#65),#719,.F.);
#760=ADVANCED_FACE('',(#66),#720,.F.);
#761=ADVANCED_FACE('',(#67),#721,.F.);
#762=ADVANCED_FACE('',(#68),#722,.F.);
#763=ADVANCED_FACE('',(#69,#49),#723,.T.);
#764=ADVANCED_FACE('',(#70,#50),#724,.T.);
#765=ADVANCED_FACE('',(#71),#725,.T.);
#766=ADVANCED_FACE('',(#72),#726,.T.);
#767=ADVANCED_FACE('',(#73,#51),#727,.T.);
#768=ADVANCED_FACE('',(#74),#728,.T.);
#769=ADVANCED_FACE('',(#75),#729,.T.);
#770=ADVANCED_FACE('',(#76),#730,.T.);
#771=ADVANCED_FACE('',(#77,#52),#731,.T.);
#772=ADVANCED_FACE('',(#78),#732,.T.);
#773=ADVANCED_FACE('',(#79),#733,.T.);
#774=ADVANCED_FACE('',(#80),#734,.T.);
#775=ADVANCED_FACE('',(#81),#735,.T.);
#776=ADVANCED_FACE('',(#82),#736,.T.);
#777=ADVANCED_FACE('',(#83),#737,.T.);
#778=ADVANCED_FACE('',(#84),#738,.T.);
#779=ADVANCED_FACE('',(#85),#739,.T.);
#780=ADVANCED_FACE('',(#86),#740,.T.);
#781=ADVANCED_FACE('',(#87,#53),#741,.T.);
#782=ADVANCED_FACE('',(#88,#54),#742,.F.);
#783=ADVANCED_FACE('',(#89),#33,.F.);
#784=ADVANCED_FACE('',(#90),#743,.T.);
#785=ADVANCED_FACE('',(#91),#34,.F.);
#786=ADVANCED_FACE('',(#92),#744,.T.);
#787=ADVANCED_FACE('',(#93),#35,.F.);
#788=ADVANCED_FACE('',(#94),#745,.T.);
#789=ADVANCED_FACE('',(#95),#36,.F.);
#790=ADVANCED_FACE('',(#96),#746,.T.);
#791=ADVANCED_FACE('',(#97),#37,.F.);
#792=ADVANCED_FACE('',(#98),#747,.T.);
#793=ADVANCED_FACE('',(#99),#38,.T.);
#794=ADVANCED_FACE('',(#100,#55),#748,.T.);
#795=ADVANCED_FACE('',(#101),#39,.T.);
#796=ADVANCED_FACE('',(#102,#56),#749,.T.);
#797=ADVANCED_FACE('',(#103),#40,.T.);
#798=ADVANCED_FACE('',(#104,#57),#750,.T.);
#799=ADVANCED_FACE('',(#105),#41,.T.);
#800=ADVANCED_FACE('',(#106,#58),#751,.T.);
#801=ADVANCED_FACE('',(#107),#42,.T.);
#802=ADVANCED_FACE('',(#108,#59),#752,.T.);
#803=ADVANCED_FACE('',(#109),#753,.T.);
#804=ADVANCED_FACE('',(#110),#754,.T.);
#805=ADVANCED_FACE('',(#111),#755,.T.);
#806=ADVANCED_FACE('',(#112,#60,#61,#62,#63,#64),#756,.T.);
#807=ADVANCED_FACE('',(#113),#757,.T.);
#808=ADVANCED_FACE('',(#114),#758,.F.);
#809=CLOSED_SHELL('',(#759,#760,#761,#762,#763,#764,#765,#766,#767,#768,
#769,#770,#771,#772));
#810=CLOSED_SHELL('',(#773,#774,#775,#776,#777,#778,#779,#780,#781,#782));
#811=CLOSED_SHELL('',(#783,#784,#785,#786,#787,#788,#789,#790,#791,#792,
#793,#794,#795,#796,#797,#798,#799,#800,#801,#802,#803,#804,#805,#806,#807,
#808));
#812=AXIS2_PLACEMENT_3D('',#1107,#883,#884);
#813=AXIS2_PLACEMENT_3D('',#1108,#885,#886);
#814=AXIS2_PLACEMENT_3D('',#1117,#891,#892);
#815=AXIS2_PLACEMENT_3D('',#1123,#896,#897);
#816=AXIS2_PLACEMENT_3D('',#1129,#901,#902);
#817=AXIS2_PLACEMENT_3D('',#1132,#905,#906);
#818=AXIS2_PLACEMENT_3D('',#1149,#915,#916);
#819=AXIS2_PLACEMENT_3D('',#1166,#925,#926);
#820=AXIS2_PLACEMENT_3D('',#1169,#929,#930);
#821=AXIS2_PLACEMENT_3D('',#1171,#932,#933);
#822=AXIS2_PLACEMENT_3D('',#1173,#935,#936);
#823=AXIS2_PLACEMENT_3D('',#1174,#937,#938);
#824=AXIS2_PLACEMENT_3D('',#1177,#941,#942);
#825=AXIS2_PLACEMENT_3D('',#1179,#944,#945);
#826=AXIS2_PLACEMENT_3D('',#1181,#947,#948);
#827=AXIS2_PLACEMENT_3D('',#1182,#949,#950);
#828=AXIS2_PLACEMENT_3D('',#1191,#955,#956);
#829=AXIS2_PLACEMENT_3D('',#1197,#960,#961);
#830=AXIS2_PLACEMENT_3D('',#1203,#965,#966);
#831=AXIS2_PLACEMENT_3D('',#1206,#969,#970);
#832=AXIS2_PLACEMENT_3D('',#1215,#975,#976);
#833=AXIS2_PLACEMENT_3D('',#1221,#980,#981);
#834=AXIS2_PLACEMENT_3D('',#1227,#985,#986);
#835=AXIS2_PLACEMENT_3D('',#1230,#989,#990);
#836=AXIS2_PLACEMENT_3D('',#1231,#991,#992);
#837=AXIS2_PLACEMENT_3D('',#1232,#993,#994);
#838=AXIS2_PLACEMENT_3D('',#1234,#995,#996);
#839=AXIS2_PLACEMENT_3D('',#1237,#998,#999);
#840=AXIS2_PLACEMENT_3D('',#1238,#1000,#1001);
#841=AXIS2_PLACEMENT_3D('',#1239,#1002,#1003);
#842=AXIS2_PLACEMENT_3D('',#1241,#1004,#1005);
#843=AXIS2_PLACEMENT_3D('',#1244,#1007,#1008);
#844=AXIS2_PLACEMENT_3D('',#1245,#1009,#1010);
#845=AXIS2_PLACEMENT_3D('',#1246,#1011,#1012);
#846=AXIS2_PLACEMENT_3D('',#1248,#1013,#1014);
#847=AXIS2_PLACEMENT_3D('',#1251,#1016,#1017);
#848=AXIS2_PLACEMENT_3D('',#1252,#1018,#1019);
#849=AXIS2_PLACEMENT_3D('',#1253,#1020,#1021);
#850=AXIS2_PLACEMENT_3D('',#1255,#1022,#1023);
#851=AXIS2_PLACEMENT_3D('',#1258,#1025,#1026);
#852=AXIS2_PLACEMENT_3D('',#1259,#1027,#1028);
#853=AXIS2_PLACEMENT_3D('',#1260,#1029,#1030);
#854=AXIS2_PLACEMENT_3D('',#1262,#1031,#1032);
#855=AXIS2_PLACEMENT_3D('',#1265,#1034,#1035);
#856=AXIS2_PLACEMENT_3D('',#1266,#1036,#1037);
#857=AXIS2_PLACEMENT_3D('',#1267,#1038,#1039);
#858=AXIS2_PLACEMENT_3D('',#1269,#1040,#1041);
#859=AXIS2_PLACEMENT_3D('',#1272,#1043,#1044);
#860=AXIS2_PLACEMENT_3D('',#1273,#1045,#1046);
#861=AXIS2_PLACEMENT_3D('',#1274,#1047,#1048);
#862=AXIS2_PLACEMENT_3D('',#1276,#1049,#1050);
#863=AXIS2_PLACEMENT_3D('',#1279,#1052,#1053);
#864=AXIS2_PLACEMENT_3D('',#1280,#1054,#1055);
#865=AXIS2_PLACEMENT_3D('',#1281,#1056,#1057);
#866=AXIS2_PLACEMENT_3D('',#1283,#1058,#1059);
#867=AXIS2_PLACEMENT_3D('',#1286,#1061,#1062);
#868=AXIS2_PLACEMENT_3D('',#1287,#1063,#1064);
#869=AXIS2_PLACEMENT_3D('',#1288,#1065,#1066);
#870=AXIS2_PLACEMENT_3D('',#1290,#1067,#1068);
#871=AXIS2_PLACEMENT_3D('',#1293,#1070,#1071);
#872=AXIS2_PLACEMENT_3D('',#1294,#1072,#1073);
#873=AXIS2_PLACEMENT_3D('',#1295,#1074,#1075);
#874=AXIS2_PLACEMENT_3D('',#1297,#1076,#1077);
#875=AXIS2_PLACEMENT_3D('',#1300,#1079,#1080);
#876=AXIS2_PLACEMENT_3D('',#1301,#1081,#1082);
#877=AXIS2_PLACEMENT_3D('',#1302,#1083,#1084);
#878=AXIS2_PLACEMENT_3D('',#1311,#1089,#1090);
#879=AXIS2_PLACEMENT_3D('',#1317,#1094,#1095);
#880=AXIS2_PLACEMENT_3D('',#1323,#1099,#1100);
#881=AXIS2_PLACEMENT_3D('',#1326,#1103,#1104);
#882=AXIS2_PLACEMENT_3D('',#1327,#1105,#1106);
#883=DIRECTION('axis',(0.,0.,1.));
#884=DIRECTION('refdir',(1.,0.,0.));
#885=DIRECTION('center_axis',(0.,1.,0.));
#886=DIRECTION('ref_axis',(0.,0.,1.));
#887=DIRECTION('',(0.,0.,-1.));
#888=DIRECTION('',(1.,0.,0.));
#889=DIRECTION('',(0.,0.,1.));
#890=DIRECTION('',(1.,0.,0.));
#891=DIRECTION('center_axis',(0.,2.79786421323807E-17,-1.));
#892=DIRECTION('ref_axis',(0.,1.,2.79786421323807E-17));
#893=DIRECTION('',(0.,-1.,-2.79786421323807E-17));
#894=DIRECTION('',(0.,1.,2.79786421323807E-17));
#895=DIRECTION('',(1.,0.,0.));
#896=DIRECTION('center_axis',(0.,-1.,0.));
#897=DIRECTION('ref_axis',(0.,0.,-1.));
#898=DIRECTION('',(0.,0.,1.));
#899=DIRECTION('',(0.,0.,-1.));
#900=DIRECTION('',(1.,0.,0.));
#901=DIRECTION('center_axis',(0.,0.,1.));
#902=DIRECTION('ref_axis',(0.,-1.,0.));
#903=DIRECTION('',(0.,1.,0.));
#904=DIRECTION('',(0.,-1.,0.));
#905=DIRECTION('center_axis',(0.,0.,1.));
#906=DIRECTION('ref_axis',(1.,0.,0.));
#907=DIRECTION('',(-1.,0.,0.));
#908=DIRECTION('',(0.,-1.,0.));
#909=DIRECTION('',(1.,0.,0.));
#910=DIRECTION('',(0.,1.,0.));
#911=DIRECTION('',(-1.,0.,0.));
#912=DIRECTION('',(0.,1.,0.));
#913=DIRECTION('',(1.,0.,0.));
#914=DIRECTION('',(0.,-1.,0.));
#915=DIRECTION('center_axis',(0.,0.,-1.));
#916=DIRECTION('ref_axis',(-1.,0.,0.));
#917=DIRECTION('',(1.,0.,0.));
#918=DIRECTION('',(0.,-1.,0.));
#919=DIRECTION('',(-1.,0.,0.));
#920=DIRECTION('',(0.,1.,0.));
#921=DIRECTION('',(1.,0.,0.));
#922=DIRECTION('',(0.,1.,0.));
#923=DIRECTION('',(-1.,0.,0.));
#924=DIRECTION('',(0.,-1.,0.));
#925=DIRECTION('center_axis',(-1.,0.,0.));
#926=DIRECTION('ref_axis',(0.,-1.,0.));
#927=DIRECTION('',(0.,0.,-1.));
#928=DIRECTION('',(0.,0.,1.));
#929=DIRECTION('center_axis',(0.,-1.,0.));
#930=DIRECTION('ref_axis',(1.,0.,0.));
#931=DIRECTION('',(0.,0.,1.));
#932=DIRECTION('center_axis',(1.,0.,0.));
#933=DIRECTION('ref_axis',(0.,1.,0.));
#934=DIRECTION('',(0.,0.,1.));
#935=DIRECTION('center_axis',(0.,1.,0.));
#936=DIRECTION('ref_axis',(-1.,0.,0.));
#937=DIRECTION('center_axis',(1.,0.,0.));
#938=DIRECTION('ref_axis',(0.,1.,0.));
#939=DIRECTION('',(0.,0.,-1.));
#940=DIRECTION('',(0.,0.,1.));
#941=DIRECTION('center_axis',(0.,-1.,0.));
#942=DIRECTION('ref_axis',(1.,0.,0.));
#943=DIRECTION('',(0.,0.,1.));
#944=DIRECTION('center_axis',(-1.,0.,0.));
#945=DIRECTION('ref_axis',(0.,-1.,0.));
#946=DIRECTION('',(0.,0.,1.));
#947=DIRECTION('center_axis',(0.,1.,0.));
#948=DIRECTION('ref_axis',(-1.,0.,0.));
#949=DIRECTION('center_axis',(1.,0.,0.));
#950=DIRECTION('ref_axis',(0.,-1.,0.));
#951=DIRECTION('',(0.,-1.,0.));
#952=DIRECTION('',(0.,0.,-1.));
#953=DIRECTION('',(0.,-1.,0.));
#954=DIRECTION('',(0.,0.,-1.));
#955=DIRECTION('center_axis',(0.,-1.,0.));
#956=DIRECTION('ref_axis',(-1.,0.,0.));
#957=DIRECTION('',(-1.,0.,0.));
#958=DIRECTION('',(-1.,0.,0.));
#959=DIRECTION('',(0.,0.,-1.));
#960=DIRECTION('center_axis',(-1.,0.,0.));
#961=DIRECTION('ref_axis',(0.,1.,0.));
#962=DIRECTION('',(0.,1.,0.));
#963=DIRECTION('',(0.,1.,0.));
#964=DIRECTION('',(0.,0.,-1.));
#965=DIRECTION('center_axis',(0.,1.,0.));
#966=DIRECTION('ref_axis',(1.,0.,0.));
#967=DIRECTION('',(1.,0.,0.));
#968=DIRECTION('',(1.,0.,0.));
#969=DIRECTION('center_axis',(-1.,0.,0.));
#970=DIRECTION('ref_axis',(0.,1.,0.));
#971=DIRECTION('',(0.,1.,0.));
#972=DIRECTION('',(0.,0.,-1.));
#973=DIRECTION('',(0.,1.,0.));
#974=DIRECTION('',(0.,0.,-1.));
#975=DIRECTION('center_axis',(0.,-1.,0.));
#976=DIRECTION('ref_axis',(-1.,0.,0.));
#977=DIRECTION('',(-1.,0.,0.));
#978=DIRECTION('',(-1.,0.,0.));
#979=DIRECTION('',(0.,0.,-1.));
#980=DIRECTION('center_axis',(1.,0.,0.));
#981=DIRECTION('ref_axis',(0.,-1.,0.));
#982=DIRECTION('',(0.,-1.,0.));
#983=DIRECTION('',(0.,-1.,0.));
#984=DIRECTION('',(0.,0.,-1.));
#985=DIRECTION('center_axis',(0.,1.,0.));
#986=DIRECTION('ref_axis',(1.,0.,0.));
#987=DIRECTION('',(1.,0.,0.));
#988=DIRECTION('',(1.,0.,0.));
#989=DIRECTION('center_axis',(0.,0.,-1.));
#990=DIRECTION('ref_axis',(-1.,0.,0.));
#991=DIRECTION('center_axis',(0.,0.,-1.));
#992=DIRECTION('ref_axis',(-1.,0.,0.));
#993=DIRECTION('center_axis',(0.,0.,-1.));
#994=DIRECTION('ref_axis',(-1.,0.,0.));
#995=DIRECTION('center_axis',(0.,0.,-1.));
#996=DIRECTION('ref_axis',(-1.,0.,0.));
#997=DIRECTION('',(0.,0.,-1.));
#998=DIRECTION('center_axis',(0.,0.,-1.));
#999=DIRECTION('ref_axis',(-1.,0.,0.));
#1000=DIRECTION('center_axis',(0.,0.,1.));
#1001=DIRECTION('ref_axis',(-1.,0.,0.));
#1002=DIRECTION('center_axis',(0.,0.,-1.));
#1003=DIRECTION('ref_axis',(-1.,0.,0.));
#1004=DIRECTION('center_axis',(0.,0.,-1.));
#1005=DIRECTION('ref_axis',(-1.,0.,0.));
#1006=DIRECTION('',(0.,0.,-1.));
#1007=DIRECTION('center_axis',(0.,0.,-1.));
#1008=DIRECTION('ref_axis',(-1.,0.,0.));
#1009=DIRECTION('center_axis',(0.,0.,1.));
#1010=DIRECTION('ref_axis',(-1.,0.,0.));
#1011=DIRECTION('center_axis',(0.,0.,-1.));
#1012=DIRECTION('ref_axis',(-1.,0.,0.));
#1013=DIRECTION('center_axis',(0.,0.,-1.));
#1014=DIRECTION('ref_axis',(-1.,0.,0.));
#1015=DIRECTION('',(0.,0.,-1.));
#1016=DIRECTION('center_axis',(0.,0.,-1.));
#1017=DIRECTION('ref_axis',(-1.,0.,0.));
#1018=DIRECTION('center_axis',(0.,0.,1.));
#1019=DIRECTION('ref_axis',(-1.,0.,0.));
#1020=DIRECTION('center_axis',(0.,0.,-1.));
#1021=DIRECTION('ref_axis',(-1.,0.,0.));
#1022=DIRECTION('center_axis',(0.,0.,-1.));
#1023=DIRECTION('ref_axis',(-1.,0.,0.));
#1024=DIRECTION('',(0.,0.,-1.));
#1025=DIRECTION('center_axis',(0.,0.,-1.));
#1026=DIRECTION('ref_axis',(-1.,0.,0.));
#1027=DIRECTION('center_axis',(0.,0.,1.));
#1028=DIRECTION('ref_axis',(-1.,0.,0.));
#1029=DIRECTION('center_axis',(0.,0.,-1.));
#1030=DIRECTION('ref_axis',(-1.,0.,0.));
#1031=DIRECTION('center_axis',(0.,0.,-1.));
#1032=DIRECTION('ref_axis',(-1.,0.,0.));
#1033=DIRECTION('',(0.,0.,-1.));
#1034=DIRECTION('center_axis',(0.,0.,-1.));
#1035=DIRECTION('ref_axis',(-1.,0.,0.));
#1036=DIRECTION('center_axis',(0.,0.,1.));
#1037=DIRECTION('ref_axis',(-1.,0.,0.));
#1038=DIRECTION('center_axis',(0.,0.,-1.));
#1039=DIRECTION('ref_axis',(-1.,0.,0.));
#1040=DIRECTION('center_axis',(0.,0.,-1.));
#1041=DIRECTION('ref_axis',(-1.,0.,0.));
#1042=DIRECTION('',(0.,0.,1.));
#1043=DIRECTION('center_axis',(0.,0.,1.));
#1044=DIRECTION('ref_axis',(-1.,0.,0.));
#1045=DIRECTION('center_axis',(0.,0.,1.));
#1046=DIRECTION('ref_axis',(-1.,0.,0.));
#1047=DIRECTION('center_axis',(0.,0.,-1.));
#1048=DIRECTION('ref_axis',(-1.,0.,0.));
#1049=DIRECTION('center_axis',(0.,0.,-1.));
#1050=DIRECTION('ref_axis',(-1.,0.,0.));
#1051=DIRECTION('',(0.,0.,1.));
#1052=DIRECTION('center_axis',(0.,0.,1.));
#1053=DIRECTION('ref_axis',(-1.,0.,0.));
#1054=DIRECTION('center_axis',(0.,0.,1.));
#1055=DIRECTION('ref_axis',(-1.,0.,0.));
#1056=DIRECTION('center_axis',(0.,0.,-1.));
#1057=DIRECTION('ref_axis',(-1.,0.,0.));
#1058=DIRECTION('center_axis',(0.,0.,-1.));
#1059=DIRECTION('ref_axis',(-1.,0.,0.));
#1060=DIRECTION('',(0.,0.,1.));
#1061=DIRECTION('center_axis',(0.,0.,1.));
#1062=DIRECTION('ref_axis',(-1.,0.,0.));
#1063=DIRECTION('center_axis',(0.,0.,1.));
#1064=DIRECTION('ref_axis',(-1.,0.,0.));
#1065=DIRECTION('center_axis',(0.,0.,-1.));
#1066=DIRECTION('ref_axis',(-1.,0.,0.));
#1067=DIRECTION('center_axis',(0.,0.,-1.));
#1068=DIRECTION('ref_axis',(-1.,0.,0.));
#1069=DIRECTION('',(0.,0.,1.));
#1070=DIRECTION('center_axis',(0.,0.,1.));
#1071=DIRECTION('ref_axis',(-1.,0.,0.));
#1072=DIRECTION('center_axis',(0.,0.,1.));
#1073=DIRECTION('ref_axis',(-1.,0.,0.));
#1074=DIRECTION('center_axis',(0.,0.,-1.));
#1075=DIRECTION('ref_axis',(-1.,0.,0.));
#1076=DIRECTION('center_axis',(0.,0.,-1.));
#1077=DIRECTION('ref_axis',(-1.,0.,0.));
#1078=DIRECTION('',(0.,0.,1.));
#1079=DIRECTION('center_axis',(0.,0.,1.));
#1080=DIRECTION('ref_axis',(-1.,0.,0.));
#1081=DIRECTION('center_axis',(0.,0.,1.));
#1082=DIRECTION('ref_axis',(-1.,0.,0.));
#1083=DIRECTION('center_axis',(0.,-1.,0.));
#1084=DIRECTION('ref_axis',(0.,0.,1.));
#1085=DIRECTION('',(0.,0.,-1.));
#1086=DIRECTION('',(-1.,0.,0.));
#1087=DIRECTION('',(0.,0.,1.));
#1088=DIRECTION('',(-1.,0.,0.));
#1089=DIRECTION('center_axis',(0.,0.,-1.));
#1090=DIRECTION('ref_axis',(0.,-1.,0.));
#1091=DIRECTION('',(0.,1.,0.));
#1092=DIRECTION('',(0.,-1.,0.));
#1093=DIRECTION('',(-1.,0.,0.));
#1094=DIRECTION('center_axis',(0.,1.,0.));
#1095=DIRECTION('ref_axis',(0.,0.,-1.));
#1096=DIRECTION('',(0.,0.,-1.));
#1097=DIRECTION('',(0.,0.,-1.));
#1098=DIRECTION('',(-1.,0.,0.));
#1099=DIRECTION('center_axis',(0.,0.,1.));
#1100=DIRECTION('ref_axis',(0.,1.,0.));
#1101=DIRECTION('',(0.,1.,0.));
#1102=DIRECTION('',(0.,1.,0.));
#1103=DIRECTION('center_axis',(-1.,0.,0.));
#1104=DIRECTION('ref_axis',(0.,0.,1.));
#1105=DIRECTION('center_axis',(-1.,0.,0.));
#1106=DIRECTION('ref_axis',(0.,1.,0.));
#1107=CARTESIAN_POINT('',(0.,0.,0.));
#1108=CARTESIAN_POINT('Origin',(104.5,-112.334080006125,2.06323214746301));
#1109=CARTESIAN_POINT('',(107.,-112.334080006125,6.5920522348212));
#1110=CARTESIAN_POINT('',(107.,-112.334080006125,2.06323214746301));
#1111=CARTESIAN_POINT('',(107.,-112.334080006125,1.7866160737315));
#1112=CARTESIAN_POINT('',(104.5,-112.334080006125,6.5920522348212));
#1113=CARTESIAN_POINT('',(104.5,-112.334080006125,6.5920522348212));
#1114=CARTESIAN_POINT('',(104.5,-112.334080006125,2.06323214746301));
#1115=CARTESIAN_POINT('',(104.5,-112.334080006125,1.7866160737315));
#1116=CARTESIAN_POINT('',(104.5,-112.334080006125,2.06323214746301));
#1117=CARTESIAN_POINT('Origin',(104.5,-122.254352578433,2.06323214746301));
#1118=CARTESIAN_POINT('',(107.,-122.254352578433,2.06323214746301));
#1119=CARTESIAN_POINT('',(107.,-131.252176289217,2.06323214746301));
#1120=CARTESIAN_POINT('',(104.5,-122.254352578433,2.06323214746301));
#1121=CARTESIAN_POINT('',(104.5,-79.8771762892167,2.06323214746301));
#1122=CARTESIAN_POINT('',(104.5,-122.254352578433,2.06323214746301));
#1123=CARTESIAN_POINT('Origin',(104.5,-122.254352578433,6.5920522348212));
#1124=CARTESIAN_POINT('',(107.,-122.254352578433,6.5920522348212));
#1125=CARTESIAN_POINT('',(107.,-122.254352578433,4.0510261174106));
#1126=CARTESIAN_POINT('',(104.5,-122.254352578433,6.5920522348212));
#1127=CARTESIAN_POINT('',(104.5,-122.254352578433,4.0510261174106));
#1128=CARTESIAN_POINT('',(104.5,-122.254352578433,6.5920522348212));
#1129=CARTESIAN_POINT('Origin',(104.5,-112.334080006125,6.5920522348212));
#1130=CARTESIAN_POINT('',(107.,-126.292040003063,6.5920522348212));
#1131=CARTESIAN_POINT('',(104.5,-74.9170400030625,6.5920522348212));
#1132=CARTESIAN_POINT('Origin',(147.5,-90.125,10.51));
#1133=CARTESIAN_POINT('',(190.5,-37.5,10.51));
#1134=CARTESIAN_POINT('',(104.5,-37.5,10.51));
#1135=CARTESIAN_POINT('',(104.5,-37.5,10.51));
#1136=CARTESIAN_POINT('',(104.5,-142.75,10.51));
#1137=CARTESIAN_POINT('',(104.5,-142.75,10.51));
#1138=CARTESIAN_POINT('',(190.5,-142.75,10.51));
#1139=CARTESIAN_POINT('',(190.5,-142.75,10.51));
#1140=CARTESIAN_POINT('',(190.5,-37.5,10.51));
#1141=CARTESIAN_POINT('',(188.,-140.25,10.51));
#1142=CARTESIAN_POINT('',(107.,-140.25,10.51));
#1143=CARTESIAN_POINT('',(188.,-140.25,10.51));
#1144=CARTESIAN_POINT('',(107.,-40.,10.51));
#1145=CARTESIAN_POINT('',(107.,-140.25,10.51));
#1146=CARTESIAN_POINT('',(188.,-40.,10.51));
#1147=CARTESIAN_POINT('',(107.,-40.,10.51));
#1148=CARTESIAN_POINT('',(188.,-40.,10.51));
#1149=CARTESIAN_POINT('Origin',(147.5,-90.125,-4.49));
#1150=CARTESIAN_POINT('',(104.5,-37.5,-4.49));
#1151=CARTESIAN_POINT('',(190.5,-37.5,-4.49));
#1152=CARTESIAN_POINT('',(104.5,-37.5,-4.49));
#1153=CARTESIAN_POINT('',(190.5,-142.75,-4.49));
#1154=CARTESIAN_POINT('',(190.5,-37.5,-4.49));
#1155=CARTESIAN_POINT('',(104.5,-142.75,-4.49));
#1156=CARTESIAN_POINT('',(190.5,-142.75,-4.49));
#1157=CARTESIAN_POINT('',(104.5,-142.75,-4.49));
#1158=CARTESIAN_POINT('',(107.,-140.25,-4.49));
#1159=CARTESIAN_POINT('',(188.,-140.25,-4.49));
#1160=CARTESIAN_POINT('',(188.,-140.25,-4.49));
#1161=CARTESIAN_POINT('',(188.,-40.,-4.49));
#1162=CARTESIAN_POINT('',(188.,-40.,-4.49));
#1163=CARTESIAN_POINT('',(107.,-40.,-4.49));
#1164=CARTESIAN_POINT('',(107.,-40.,-4.49));
#1165=CARTESIAN_POINT('',(107.,-140.25,-4.49));
#1166=CARTESIAN_POINT('Origin',(188.,-40.,1.51));
#1167=CARTESIAN_POINT('',(188.,-140.25,1.51));
#1168=CARTESIAN_POINT('',(188.,-40.,1.51));
#1169=CARTESIAN_POINT('Origin',(107.,-40.,1.51));
#1170=CARTESIAN_POINT('',(107.,-40.,1.51));
#1171=CARTESIAN_POINT('Origin',(107.,-140.25,1.51));
#1172=CARTESIAN_POINT('',(107.,-140.25,1.51));
#1173=CARTESIAN_POINT('Origin',(188.,-140.25,1.51));
#1174=CARTESIAN_POINT('Origin',(190.5,-142.75,1.51));
#1175=CARTESIAN_POINT('',(190.5,-37.5,1.51));
#1176=CARTESIAN_POINT('',(190.5,-142.75,1.51));
#1177=CARTESIAN_POINT('Origin',(104.5,-142.75,1.51));
#1178=CARTESIAN_POINT('',(104.5,-142.75,1.51));
#1179=CARTESIAN_POINT('Origin',(104.5,-37.5,1.51));
#1180=CARTESIAN_POINT('',(104.5,-37.5,1.51));
#1181=CARTESIAN_POINT('Origin',(190.5,-37.5,1.51));
#1182=CARTESIAN_POINT('Origin',(107.,-40.,-4.49));
#1183=CARTESIAN_POINT('',(107.,-40.,-4.49));
#1184=CARTESIAN_POINT('',(107.,-140.25,-4.49));
#1185=CARTESIAN_POINT('',(107.,-140.25,-4.49));
#1186=CARTESIAN_POINT('',(107.,-140.25,-6.49));
#1187=CARTESIAN_POINT('',(107.,-140.25,-4.49));
#1188=CARTESIAN_POINT('',(107.,-40.,-6.49));
#1189=CARTESIAN_POINT('',(107.,-140.25,-6.49));
#1190=CARTESIAN_POINT('',(107.,-40.,-4.49));
#1191=CARTESIAN_POINT('Origin',(188.,-40.,-4.49));
#1192=CARTESIAN_POINT('',(188.,-40.,-4.49));
#1193=CARTESIAN_POINT('',(107.,-40.,-4.49));
#1194=CARTESIAN_POINT('',(188.,-40.,-6.49));
#1195=CARTESIAN_POINT('',(107.,-40.,-6.49));
#1196=CARTESIAN_POINT('',(188.,-40.,-4.49));
#1197=CARTESIAN_POINT('Origin',(188.,-140.25,-4.49));
#1198=CARTESIAN_POINT('',(188.,-140.25,-4.49));
#1199=CARTESIAN_POINT('',(188.,-40.,-4.49));
#1200=CARTESIAN_POINT('',(188.,-140.25,-6.49));
#1201=CARTESIAN_POINT('',(188.,-40.,-6.49));
#1202=CARTESIAN_POINT('',(188.,-140.25,-4.49));
#1203=CARTESIAN_POINT('Origin',(107.,-140.25,-4.49));
#1204=CARTESIAN_POINT('',(188.,-140.25,-4.49));
#1205=CARTESIAN_POINT('',(188.,-140.25,-6.49));
#1206=CARTESIAN_POINT('Origin',(104.5,-142.75,-4.49));
#1207=CARTESIAN_POINT('',(104.5,-142.75,-4.49));
#1208=CARTESIAN_POINT('',(104.5,-37.5,-4.49));
#1209=CARTESIAN_POINT('',(104.5,-142.75,-4.49));
#1210=CARTESIAN_POINT('',(104.5,-37.5,-6.49));
#1211=CARTESIAN_POINT('',(104.5,-37.5,-4.49));
#1212=CARTESIAN_POINT('',(104.5,-142.75,-6.49));
#1213=CARTESIAN_POINT('',(104.5,-142.75,-6.49));
#1214=CARTESIAN_POINT('',(104.5,-142.75,-4.49));
#1215=CARTESIAN_POINT('Origin',(190.5,-142.75,-4.49));
#1216=CARTESIAN_POINT('',(190.5,-142.75,-4.49));
#1217=CARTESIAN_POINT('',(190.5,-142.75,-4.49));
#1218=CARTESIAN_POINT('',(190.5,-142.75,-6.49));
#1219=CARTESIAN_POINT('',(190.5,-142.75,-6.49));
#1220=CARTESIAN_POINT('',(190.5,-142.75,-4.49));
#1221=CARTESIAN_POINT('Origin',(190.5,-37.5,-4.49));
#1222=CARTESIAN_POINT('',(190.5,-37.5,-4.49));
#1223=CARTESIAN_POINT('',(190.5,-37.5,-4.49));
#1224=CARTESIAN_POINT('',(190.5,-37.5,-6.49));
#1225=CARTESIAN_POINT('',(190.5,-37.5,-6.49));
#1226=CARTESIAN_POINT('',(190.5,-37.5,-4.49));
#1227=CARTESIAN_POINT('Origin',(104.5,-37.5,-4.49));
#1228=CARTESIAN_POINT('',(104.5,-37.5,-4.49));
#1229=CARTESIAN_POINT('',(104.5,-37.5,-6.49));
#1230=CARTESIAN_POINT('Origin',(147.5,-90.125,-6.49));
#1231=CARTESIAN_POINT('Origin',(147.5,-90.125,-4.49));
#1232=CARTESIAN_POINT('Origin',(182.280321525324,-110.186581118807,1.51));
#1233=CARTESIAN_POINT('',(183.880321525324,-110.186581118807,1.51));
#1234=CARTESIAN_POINT('Origin',(182.280321525324,-110.186581118807,1.51));
#1235=CARTESIAN_POINT('',(183.880321525324,-110.186581118807,-2.49));
#1236=CARTESIAN_POINT('',(183.880321525324,-110.186581118807,1.51));
#1237=CARTESIAN_POINT('Origin',(182.280321525324,-110.186581118807,-2.49));
#1238=CARTESIAN_POINT('Origin',(182.280321525324,-110.186581118807,-2.49));
#1239=CARTESIAN_POINT('Origin',(138.286870702156,-132.789510249573,1.51));
#1240=CARTESIAN_POINT('',(139.886870702156,-132.789510249573,1.51));
#1241=CARTESIAN_POINT('Origin',(138.286870702156,-132.789510249573,1.51));
#1242=CARTESIAN_POINT('',(139.886870702156,-132.789510249573,-2.49));
#1243=CARTESIAN_POINT('',(139.886870702156,-132.789510249573,1.51));
#1244=CARTESIAN_POINT('Origin',(138.286870702156,-132.789510249573,-2.49));
#1245=CARTESIAN_POINT('Origin',(138.286870702156,-132.789510249573,-2.49));
#1246=CARTESIAN_POINT('Origin',(181.748916412585,-46.7275327656442,1.51));
#1247=CARTESIAN_POINT('',(183.348916412585,-46.7275327656442,1.51));
#1248=CARTESIAN_POINT('Origin',(181.748916412585,-46.7275327656442,1.51));
#1249=CARTESIAN_POINT('',(183.348916412585,-46.7275327656442,-2.49));
#1250=CARTESIAN_POINT('',(183.348916412585,-46.7275327656442,1.51));
#1251=CARTESIAN_POINT('Origin',(181.748916412585,-46.7275327656442,-2.49));
#1252=CARTESIAN_POINT('Origin',(181.748916412585,-46.7275327656442,-2.49));
#1253=CARTESIAN_POINT('Origin',(112.814907035511,-132.504323013597,1.51));
#1254=CARTESIAN_POINT('',(114.414907035511,-132.504323013597,1.51));
#1255=CARTESIAN_POINT('Origin',(112.814907035511,-132.504323013597,1.51));
#1256=CARTESIAN_POINT('',(114.414907035511,-132.504323013597,-2.49));
#1257=CARTESIAN_POINT('',(114.414907035511,-132.504323013597,1.51));
#1258=CARTESIAN_POINT('Origin',(112.814907035511,-132.504323013597,-2.49));
#1259=CARTESIAN_POINT('Origin',(112.814907035511,-132.504323013597,-2.49));
#1260=CARTESIAN_POINT('Origin',(113.,-46.5,1.51));
#1261=CARTESIAN_POINT('',(114.6,-46.5,1.51));
#1262=CARTESIAN_POINT('Origin',(113.,-46.5,1.51));
#1263=CARTESIAN_POINT('',(114.6,-46.5,-2.49));
#1264=CARTESIAN_POINT('',(114.6,-46.5,1.51));
#1265=CARTESIAN_POINT('Origin',(113.,-46.5,-2.49));
#1266=CARTESIAN_POINT('Origin',(113.,-46.5,-2.49));
#1267=CARTESIAN_POINT('Origin',(112.75,-132.5,1.51));
#1268=CARTESIAN_POINT('',(115.75,-132.5,-4.49));
#1269=CARTESIAN_POINT('Origin',(112.75,-132.5,-4.49));
#1270=CARTESIAN_POINT('',(115.75,-132.5,1.51));
#1271=CARTESIAN_POINT('',(115.75,-132.5,1.51));
#1272=CARTESIAN_POINT('Origin',(112.75,-132.5,1.51));
#1273=CARTESIAN_POINT('Origin',(112.75,-132.5,1.51));
#1274=CARTESIAN_POINT('Origin',(113.,-46.5,1.51));
#1275=CARTESIAN_POINT('',(116.,-46.5,-4.49));
#1276=CARTESIAN_POINT('Origin',(113.,-46.5,-4.49));
#1277=CARTESIAN_POINT('',(116.,-46.5,1.51));
#1278=CARTESIAN_POINT('',(116.,-46.5,1.51));
#1279=CARTESIAN_POINT('Origin',(113.,-46.5,1.51));
#1280=CARTESIAN_POINT('Origin',(113.,-46.5,1.51));
#1281=CARTESIAN_POINT('Origin',(138.25,-132.75,1.51));
#1282=CARTESIAN_POINT('',(141.25,-132.75,-4.49));
#1283=CARTESIAN_POINT('Origin',(138.25,-132.75,-4.49));
#1284=CARTESIAN_POINT('',(141.25,-132.75,1.51));
#1285=CARTESIAN_POINT('',(141.25,-132.75,1.51));
#1286=CARTESIAN_POINT('Origin',(138.25,-132.75,1.51));
#1287=CARTESIAN_POINT('Origin',(138.25,-132.75,1.51));
#1288=CARTESIAN_POINT('Origin',(181.75,-46.75,1.51));
#1289=CARTESIAN_POINT('',(184.75,-46.75,-4.49));
#1290=CARTESIAN_POINT('Origin',(181.75,-46.75,-4.49));
#1291=CARTESIAN_POINT('',(184.75,-46.75,1.51));
#1292=CARTESIAN_POINT('',(184.75,-46.75,1.51));
#1293=CARTESIAN_POINT('Origin',(181.75,-46.75,1.51));
#1294=CARTESIAN_POINT('Origin',(181.75,-46.75,1.51));
#1295=CARTESIAN_POINT('Origin',(182.25,-110.25,1.51));
#1296=CARTESIAN_POINT('',(185.25,-110.25,-4.49));
#1297=CARTESIAN_POINT('Origin',(182.25,-110.25,-4.49));
#1298=CARTESIAN_POINT('',(185.25,-110.25,1.51));
#1299=CARTESIAN_POINT('',(185.25,-110.25,1.51));
#1300=CARTESIAN_POINT('Origin',(182.25,-110.25,1.51));
#1301=CARTESIAN_POINT('Origin',(182.25,-110.25,1.51));
#1302=CARTESIAN_POINT('Origin',(188.,-140.25,-6.49));
#1303=CARTESIAN_POINT('',(188.,-140.25,-4.49));
#1304=CARTESIAN_POINT('',(188.,-140.25,-6.49));
#1305=CARTESIAN_POINT('',(188.,-140.25,-4.49));
#1306=CARTESIAN_POINT('',(107.,-140.25,-4.49));
#1307=CARTESIAN_POINT('',(188.,-140.25,-4.49));
#1308=CARTESIAN_POINT('',(107.,-140.25,-6.49));
#1309=CARTESIAN_POINT('',(107.,-140.25,-4.49));
#1310=CARTESIAN_POINT('',(188.,-140.25,-6.49));
#1311=CARTESIAN_POINT('Origin',(188.,-40.,-6.49));
#1312=CARTESIAN_POINT('',(188.,-40.,-6.49));
#1313=CARTESIAN_POINT('',(188.,-40.,-6.49));
#1314=CARTESIAN_POINT('',(107.,-40.,-6.49));
#1315=CARTESIAN_POINT('',(107.,-40.,-6.49));
#1316=CARTESIAN_POINT('',(188.,-40.,-6.49));
#1317=CARTESIAN_POINT('Origin',(188.,-40.,-4.49));
#1318=CARTESIAN_POINT('',(188.,-40.,-4.49));
#1319=CARTESIAN_POINT('',(188.,-40.,-4.49));
#1320=CARTESIAN_POINT('',(107.,-40.,-4.49));
#1321=CARTESIAN_POINT('',(107.,-40.,-4.49));
#1322=CARTESIAN_POINT('',(188.,-40.,-4.49));
#1323=CARTESIAN_POINT('Origin',(188.,-140.25,-4.49));
#1324=CARTESIAN_POINT('',(188.,-40.,-4.49));
#1325=CARTESIAN_POINT('',(107.,-40.,-4.49));
#1326=CARTESIAN_POINT('Origin',(107.,-140.25,-4.49));
#1327=CARTESIAN_POINT('Origin',(188.,-140.25,-4.49));
#1328=UNCERTAINTY_MEASURE_WITH_UNIT(LENGTH_MEASURE(0.01),#1332,
'DISTANCE_ACCURACY_VALUE',
'Maximum model space distance between geometric entities at asserted c
onnectivities');
#1329=UNCERTAINTY_MEASURE_WITH_UNIT(LENGTH_MEASURE(0.01),#1332,
'DISTANCE_ACCURACY_VALUE',
'Maximum model space distance between geometric entities at asserted c
onnectivities');
#1330=(
GEOMETRIC_REPRESENTATION_CONTEXT(3)
GLOBAL_UNCERTAINTY_ASSIGNED_CONTEXT((#1328))
GLOBAL_UNIT_ASSIGNED_CONTEXT((#1332,#1333,#1334))
REPRESENTATION_CONTEXT('','3D')
);
#1331=(
GEOMETRIC_REPRESENTATION_CONTEXT(3)
GLOBAL_UNCERTAINTY_ASSIGNED_CONTEXT((#1329))
GLOBAL_UNIT_ASSIGNED_CONTEXT((#1332,#1333,#1334))
REPRESENTATION_CONTEXT('','3D')
);
#1332=(
LENGTH_UNIT()
NAMED_UNIT(*)
SI_UNIT(.MILLI.,.METRE.)
);
#1333=(
NAMED_UNIT(*)
PLANE_ANGLE_UNIT()
SI_UNIT($,.RADIAN.)
);
#1334=(
NAMED_UNIT(*)
SI_UNIT($,.STERADIAN.)
SOLID_ANGLE_UNIT()
);
#1335=SHAPE_DEFINITION_REPRESENTATION(#1336,#1337);
#1336=PRODUCT_DEFINITION_SHAPE('',$,#1339);
#1337=SHAPE_REPRESENTATION('',(#812),#1330);
#1338=PRODUCT_DEFINITION_CONTEXT('part definition',#1343,'design');
#1339=PRODUCT_DEFINITION('DreamPad 1','DreamPad',#1340,#1338);
#1340=PRODUCT_DEFINITION_FORMATION('',$,#1345);
#1341=PRODUCT_RELATED_PRODUCT_CATEGORY('DreamPad','DreamPad',(#1345));
#1342=APPLICATION_PROTOCOL_DEFINITION('international standard',
'automotive_design',2009,#1343);
#1343=APPLICATION_CONTEXT(
'Core Data for Automotive Mechanical Design Process');
#1344=PRODUCT_CONTEXT('part definition',#1343,'mechanical');
#1345=PRODUCT('DreamPad 1','DreamPad','KiCad electronic assembly',(#1344));
#1346=PRESENTATION_STYLE_ASSIGNMENT((#1347));
#1347=SURFACE_STYLE_USAGE(.BOTH.,#1348);
#1348=SURFACE_SIDE_STYLE('',(#1349));
#1349=SURFACE_STYLE_FILL_AREA(#1350);
#1350=FILL_AREA_STYLE('Steel - Satin',(#1351));
#1351=FILL_AREA_STYLE_COLOUR('Steel - Satin',#1352);
#1352=COLOUR_RGB('Steel - Satin',0.627450980392157,0.627450980392157,0.627450980392157);
ENDSEC;
END-ISO-10303-21;
