ISO-10303-21;
HEADER;
/* Generated by software containing ST-Developer
 * from STEP Tools, Inc. (www.steptools.com) 
 */

FILE_DESCRIPTION(
/* description */ ('KiCad electronic assembly'),
/* implementation_level */ '2;1');

FILE_NAME(
/* name */ 'DreamPad_Lid.step',
/* time_stamp */ '2026-09-12T19:50:04+05:30',
/* author */ (''),
/* organization */ (''),
/* preprocessor_version */ 'ST-DEVELOPER v20.2',
/* originating_system */ 'Autodesk Translation Framework v15.15.0.0',
/* authorisation */ '');

FILE_SCHEMA (('AUTOMOTIVE_DESIGN { 1 0 10303 214 3 1 1 }'));
ENDSEC;

DATA;
#10=MECHANICAL_DESIGN_GEOMETRIC_PRESENTATION_REPRESENTATION('',(#16,#17,
#18),#1396);
#11=SHAPE_REPRESENTATION_RELATIONSHIP('SRR','None',#1402,#12);
#12=ADVANCED_BREP_SHAPE_REPRESENTATION('',(#19,#20,#21),#1395);
#13=CIRCLE('',#901,3.50000000000001);
#14=CIRCLE('',#902,3.50000000000001);
#15=CYLINDRICAL_SURFACE('',#900,3.50000000000001);
#16=STYLED_ITEM('',(#1411),#19);
#17=STYLED_ITEM('',(#1411),#20);
#18=STYLED_ITEM('',(#1411),#21);
#19=MANIFOLD_SOLID_BREP('Body4',#886);
#20=MANIFOLD_SOLID_BREP('Body5',#887);
#21=MANIFOLD_SOLID_BREP('Body6',#888);
#22=FACE_BOUND('',#88,.T.);
#23=FACE_BOUND('',#90,.T.);
#24=FACE_BOUND('',#109,.T.);
#25=FACE_BOUND('',#110,.T.);
#26=FACE_BOUND('',#111,.T.);
#27=FACE_BOUND('',#112,.T.);
#28=FACE_BOUND('',#115,.T.);
#29=FACE_BOUND('',#116,.T.);
#30=FACE_BOUND('',#117,.T.);
#31=FACE_BOUND('',#133,.T.);
#32=FACE_BOUND('',#135,.T.);
#33=FACE_OUTER_BOUND('',#79,.T.);
#34=FACE_OUTER_BOUND('',#80,.T.);
#35=FACE_OUTER_BOUND('',#81,.T.);
#36=FACE_OUTER_BOUND('',#82,.T.);
#37=FACE_OUTER_BOUND('',#83,.T.);
#38=FACE_OUTER_BOUND('',#84,.T.);
#39=FACE_OUTER_BOUND('',#85,.T.);
#40=FACE_OUTER_BOUND('',#86,.T.);
#41=FACE_OUTER_BOUND('',#87,.T.);
#42=FACE_OUTER_BOUND('',#89,.T.);
#43=FACE_OUTER_BOUND('',#91,.T.);
#44=FACE_OUTER_BOUND('',#92,.T.);
#45=FACE_OUTER_BOUND('',#93,.T.);
#46=FACE_OUTER_BOUND('',#94,.T.);
#47=FACE_OUTER_BOUND('',#95,.T.);
#48=FACE_OUTER_BOUND('',#96,.T.);
#49=FACE_OUTER_BOUND('',#97,.T.);
#50=FACE_OUTER_BOUND('',#98,.T.);
#51=FACE_OUTER_BOUND('',#99,.T.);
#52=FACE_OUTER_BOUND('',#100,.T.);
#53=FACE_OUTER_BOUND('',#101,.T.);
#54=FACE_OUTER_BOUND('',#102,.T.);
#55=FACE_OUTER_BOUND('',#103,.T.);
#56=FACE_OUTER_BOUND('',#104,.T.);
#57=FACE_OUTER_BOUND('',#105,.T.);
#58=FACE_OUTER_BOUND('',#106,.T.);
#59=FACE_OUTER_BOUND('',#107,.T.);
#60=FACE_OUTER_BOUND('',#108,.T.);
#61=FACE_OUTER_BOUND('',#113,.T.);
#62=FACE_OUTER_BOUND('',#114,.T.);
#63=FACE_OUTER_BOUND('',#118,.T.);
#64=FACE_OUTER_BOUND('',#119,.T.);
#65=FACE_OUTER_BOUND('',#120,.T.);
#66=FACE_OUTER_BOUND('',#121,.T.);
#67=FACE_OUTER_BOUND('',#122,.T.);
#68=FACE_OUTER_BOUND('',#123,.T.);
#69=FACE_OUTER_BOUND('',#124,.T.);
#70=FACE_OUTER_BOUND('',#125,.T.);
#71=FACE_OUTER_BOUND('',#126,.T.);
#72=FACE_OUTER_BOUND('',#127,.T.);
#73=FACE_OUTER_BOUND('',#128,.T.);
#74=FACE_OUTER_BOUND('',#129,.T.);
#75=FACE_OUTER_BOUND('',#130,.T.);
#76=FACE_OUTER_BOUND('',#131,.T.);
#77=FACE_OUTER_BOUND('',#132,.T.);
#78=FACE_OUTER_BOUND('',#134,.T.);
#79=EDGE_LOOP('',(#561,#562,#563,#564));
#80=EDGE_LOOP('',(#565,#566,#567,#568));
#81=EDGE_LOOP('',(#569,#570,#571,#572));
#82=EDGE_LOOP('',(#573,#574,#575,#576));
#83=EDGE_LOOP('',(#577,#578,#579,#580));
#84=EDGE_LOOP('',(#581,#582,#583,#584));
#85=EDGE_LOOP('',(#585,#586,#587,#588));
#86=EDGE_LOOP('',(#589,#590,#591,#592));
#87=EDGE_LOOP('',(#593,#594,#595,#596));
#88=EDGE_LOOP('',(#597,#598,#599,#600));
#89=EDGE_LOOP('',(#601,#602,#603,#604));
#90=EDGE_LOOP('',(#605,#606,#607,#608));
#91=EDGE_LOOP('',(#609,#610,#611,#612));
#92=EDGE_LOOP('',(#613,#614,#615,#616));
#93=EDGE_LOOP('',(#617,#618,#619,#620));
#94=EDGE_LOOP('',(#621,#622,#623,#624));
#95=EDGE_LOOP('',(#625,#626,#627,#628));
#96=EDGE_LOOP('',(#629,#630,#631,#632));
#97=EDGE_LOOP('',(#633,#634,#635,#636));
#98=EDGE_LOOP('',(#637,#638,#639,#640,#641,#642));
#99=EDGE_LOOP('',(#643,#644,#645,#646));
#100=EDGE_LOOP('',(#647,#648,#649,#650));
#101=EDGE_LOOP('',(#651,#652,#653,#654));
#102=EDGE_LOOP('',(#655,#656,#657,#658));
#103=EDGE_LOOP('',(#659,#660,#661,#662));
#104=EDGE_LOOP('',(#663,#664,#665,#666));
#105=EDGE_LOOP('',(#667,#668,#669,#670));
#106=EDGE_LOOP('',(#671,#672,#673,#674));
#107=EDGE_LOOP('',(#675,#676,#677,#678));
#108=EDGE_LOOP('',(#679,#680,#681,#682));
#109=EDGE_LOOP('',(#683));
#110=EDGE_LOOP('',(#684,#685,#686,#687,#688,#689));
#111=EDGE_LOOP('',(#690,#691,#692,#693));
#112=EDGE_LOOP('',(#694,#695,#696,#697));
#113=EDGE_LOOP('',(#698,#699,#700,#701));
#114=EDGE_LOOP('',(#702,#703,#704,#705));
#115=EDGE_LOOP('',(#706));
#116=EDGE_LOOP('',(#707,#708,#709,#710));
#117=EDGE_LOOP('',(#711,#712,#713,#714));
#118=EDGE_LOOP('',(#715,#716,#717,#718));
#119=EDGE_LOOP('',(#719,#720,#721,#722));
#120=EDGE_LOOP('',(#723,#724,#725,#726));
#121=EDGE_LOOP('',(#727,#728,#729,#730));
#122=EDGE_LOOP('',(#731,#732,#733,#734));
#123=EDGE_LOOP('',(#735,#736,#737,#738));
#124=EDGE_LOOP('',(#739,#740,#741,#742));
#125=EDGE_LOOP('',(#743,#744,#745,#746));
#126=EDGE_LOOP('',(#747,#748,#749,#750));
#127=EDGE_LOOP('',(#751,#752,#753,#754));
#128=EDGE_LOOP('',(#755,#756,#757,#758));
#129=EDGE_LOOP('',(#759,#760,#761,#762));
#130=EDGE_LOOP('',(#763,#764,#765,#766));
#131=EDGE_LOOP('',(#767,#768,#769,#770));
#132=EDGE_LOOP('',(#771,#772,#773,#774,#775,#776));
#133=EDGE_LOOP('',(#777,#778,#779,#780,#781,#782));
#134=EDGE_LOOP('',(#783,#784,#785,#786,#787,#788));
#135=EDGE_LOOP('',(#789,#790,#791,#792,#793,#794));
#136=LINE('',#1155,#251);
#137=LINE('',#1157,#252);
#138=LINE('',#1159,#253);
#139=LINE('',#1160,#254);
#140=LINE('',#1163,#255);
#141=LINE('',#1165,#256);
#142=LINE('',#1166,#257);
#143=LINE('',#1169,#258);
#144=LINE('',#1171,#259);
#145=LINE('',#1172,#260);
#146=LINE('',#1174,#261);
#147=LINE('',#1175,#262);
#148=LINE('',#1179,#263);
#149=LINE('',#1181,#264);
#150=LINE('',#1183,#265);
#151=LINE('',#1184,#266);
#152=LINE('',#1187,#267);
#153=LINE('',#1189,#268);
#154=LINE('',#1190,#269);
#155=LINE('',#1193,#270);
#156=LINE('',#1195,#271);
#157=LINE('',#1196,#272);
#158=LINE('',#1198,#273);
#159=LINE('',#1199,#274);
#160=LINE('',#1206,#275);
#161=LINE('',#1211,#276);
#162=LINE('',#1213,#277);
#163=LINE('',#1215,#278);
#164=LINE('',#1216,#279);
#165=LINE('',#1219,#280);
#166=LINE('',#1221,#281);
#167=LINE('',#1222,#282);
#168=LINE('',#1225,#283);
#169=LINE('',#1227,#284);
#170=LINE('',#1228,#285);
#171=LINE('',#1231,#286);
#172=LINE('',#1233,#287);
#173=LINE('',#1234,#288);
#174=LINE('',#1237,#289);
#175=LINE('',#1239,#290);
#176=LINE('',#1240,#291);
#177=LINE('',#1242,#292);
#178=LINE('',#1243,#293);
#179=LINE('',#1248,#294);
#180=LINE('',#1250,#295);
#181=LINE('',#1252,#296);
#182=LINE('',#1253,#297);
#183=LINE('',#1256,#298);
#184=LINE('',#1258,#299);
#185=LINE('',#1259,#300);
#186=LINE('',#1262,#301);
#187=LINE('',#1264,#302);
#188=LINE('',#1265,#303);
#189=LINE('',#1267,#304);
#190=LINE('',#1268,#305);
#191=LINE('',#1272,#306);
#192=LINE('',#1274,#307);
#193=LINE('',#1276,#308);
#194=LINE('',#1277,#309);
#195=LINE('',#1280,#310);
#196=LINE('',#1282,#311);
#197=LINE('',#1283,#312);
#198=LINE('',#1286,#313);
#199=LINE('',#1288,#314);
#200=LINE('',#1289,#315);
#201=LINE('',#1291,#316);
#202=LINE('',#1292,#317);
#203=LINE('',#1296,#318);
#204=LINE('',#1298,#319);
#205=LINE('',#1300,#320);
#206=LINE('',#1301,#321);
#207=LINE('',#1304,#322);
#208=LINE('',#1306,#323);
#209=LINE('',#1307,#324);
#210=LINE('',#1310,#325);
#211=LINE('',#1312,#326);
#212=LINE('',#1313,#327);
#213=LINE('',#1315,#328);
#214=LINE('',#1316,#329);
#215=LINE('',#1322,#330);
#216=LINE('',#1324,#331);
#217=LINE('',#1326,#332);
#218=LINE('',#1327,#333);
#219=LINE('',#1330,#334);
#220=LINE('',#1332,#335);
#221=LINE('',#1333,#336);
#222=LINE('',#1336,#337);
#223=LINE('',#1338,#338);
#224=LINE('',#1339,#339);
#225=LINE('',#1342,#340);
#226=LINE('',#1344,#341);
#227=LINE('',#1345,#342);
#228=LINE('',#1348,#343);
#229=LINE('',#1350,#344);
#230=LINE('',#1351,#345);
#231=LINE('',#1353,#346);
#232=LINE('',#1354,#347);
#233=LINE('',#1358,#348);
#234=LINE('',#1360,#349);
#235=LINE('',#1362,#350);
#236=LINE('',#1363,#351);
#237=LINE('',#1366,#352);
#238=LINE('',#1368,#353);
#239=LINE('',#1369,#354);
#240=LINE('',#1372,#355);
#241=LINE('',#1374,#356);
#242=LINE('',#1375,#357);
#243=LINE('',#1378,#358);
#244=LINE('',#1380,#359);
#245=LINE('',#1381,#360);
#246=LINE('',#1384,#361);
#247=LINE('',#1386,#362);
#248=LINE('',#1387,#363);
#249=LINE('',#1389,#364);
#250=LINE('',#1390,#365);
#251=VECTOR('',#942,10.);
#252=VECTOR('',#943,10.);
#253=VECTOR('',#944,10.);
#254=VECTOR('',#945,10.);
#255=VECTOR('',#948,10.);
#256=VECTOR('',#949,10.);
#257=VECTOR('',#950,10.);
#258=VECTOR('',#953,10.);
#259=VECTOR('',#954,10.);
#260=VECTOR('',#955,10.);
#261=VECTOR('',#958,10.);
#262=VECTOR('',#959,10.);
#263=VECTOR('',#962,10.);
#264=VECTOR('',#963,10.);
#265=VECTOR('',#964,10.);
#266=VECTOR('',#965,10.);
#267=VECTOR('',#968,10.);
#268=VECTOR('',#969,10.);
#269=VECTOR('',#970,10.);
#270=VECTOR('',#973,10.);
#271=VECTOR('',#974,10.);
#272=VECTOR('',#975,10.);
#273=VECTOR('',#978,10.);
#274=VECTOR('',#979,10.);
#275=VECTOR('',#988,3.50000000000001);
#276=VECTOR('',#993,10.);
#277=VECTOR('',#994,10.);
#278=VECTOR('',#995,10.);
#279=VECTOR('',#996,10.);
#280=VECTOR('',#999,10.);
#281=VECTOR('',#1000,10.);
#282=VECTOR('',#1001,10.);
#283=VECTOR('',#1004,10.);
#284=VECTOR('',#1005,10.);
#285=VECTOR('',#1006,10.);
#286=VECTOR('',#1009,10.);
#287=VECTOR('',#1010,10.);
#288=VECTOR('',#1011,10.);
#289=VECTOR('',#1014,10.);
#290=VECTOR('',#1015,10.);
#291=VECTOR('',#1016,10.);
#292=VECTOR('',#1019,10.);
#293=VECTOR('',#1020,10.);
#294=VECTOR('',#1025,10.);
#295=VECTOR('',#1026,10.);
#296=VECTOR('',#1027,10.);
#297=VECTOR('',#1028,10.);
#298=VECTOR('',#1031,10.);
#299=VECTOR('',#1032,10.);
#300=VECTOR('',#1033,10.);
#301=VECTOR('',#1036,10.);
#302=VECTOR('',#1037,10.);
#303=VECTOR('',#1038,10.);
#304=VECTOR('',#1041,10.);
#305=VECTOR('',#1042,10.);
#306=VECTOR('',#1045,10.);
#307=VECTOR('',#1046,10.);
#308=VECTOR('',#1047,10.);
#309=VECTOR('',#1048,10.);
#310=VECTOR('',#1051,10.);
#311=VECTOR('',#1052,10.);
#312=VECTOR('',#1053,10.);
#313=VECTOR('',#1056,10.);
#314=VECTOR('',#1057,10.);
#315=VECTOR('',#1058,10.);
#316=VECTOR('',#1061,10.);
#317=VECTOR('',#1062,10.);
#318=VECTOR('',#1065,10.);
#319=VECTOR('',#1066,10.);
#320=VECTOR('',#1067,10.);
#321=VECTOR('',#1068,10.);
#322=VECTOR('',#1071,10.);
#323=VECTOR('',#1072,10.);
#324=VECTOR('',#1073,10.);
#325=VECTOR('',#1076,10.);
#326=VECTOR('',#1077,10.);
#327=VECTOR('',#1078,10.);
#328=VECTOR('',#1081,10.);
#329=VECTOR('',#1082,10.);
#330=VECTOR('',#1089,10.);
#331=VECTOR('',#1090,10.);
#332=VECTOR('',#1091,10.);
#333=VECTOR('',#1092,10.);
#334=VECTOR('',#1095,10.);
#335=VECTOR('',#1096,10.);
#336=VECTOR('',#1097,10.);
#337=VECTOR('',#1100,10.);
#338=VECTOR('',#1101,10.);
#339=VECTOR('',#1102,10.);
#340=VECTOR('',#1105,10.);
#341=VECTOR('',#1106,10.);
#342=VECTOR('',#1107,10.);
#343=VECTOR('',#1110,10.);
#344=VECTOR('',#1111,10.);
#345=VECTOR('',#1112,10.);
#346=VECTOR('',#1115,10.);
#347=VECTOR('',#1116,10.);
#348=VECTOR('',#1119,10.);
#349=VECTOR('',#1120,10.);
#350=VECTOR('',#1121,10.);
#351=VECTOR('',#1122,10.);
#352=VECTOR('',#1125,10.);
#353=VECTOR('',#1126,10.);
#354=VECTOR('',#1127,10.);
#355=VECTOR('',#1130,10.);
#356=VECTOR('',#1131,10.);
#357=VECTOR('',#1132,10.);
#358=VECTOR('',#1135,10.);
#359=VECTOR('',#1136,10.);
#360=VECTOR('',#1137,10.);
#361=VECTOR('',#1140,10.);
#362=VECTOR('',#1141,10.);
#363=VECTOR('',#1142,10.);
#364=VECTOR('',#1145,10.);
#365=VECTOR('',#1146,10.);
#366=VERTEX_POINT('',#1153);
#367=VERTEX_POINT('',#1154);
#368=VERTEX_POINT('',#1156);
#369=VERTEX_POINT('',#1158);
#370=VERTEX_POINT('',#1162);
#371=VERTEX_POINT('',#1164);
#372=VERTEX_POINT('',#1168);
#373=VERTEX_POINT('',#1170);
#374=VERTEX_POINT('',#1177);
#375=VERTEX_POINT('',#1178);
#376=VERTEX_POINT('',#1180);
#377=VERTEX_POINT('',#1182);
#378=VERTEX_POINT('',#1186);
#379=VERTEX_POINT('',#1188);
#380=VERTEX_POINT('',#1192);
#381=VERTEX_POINT('',#1194);
#382=VERTEX_POINT('',#1203);
#383=VERTEX_POINT('',#1205);
#384=VERTEX_POINT('',#1209);
#385=VERTEX_POINT('',#1210);
#386=VERTEX_POINT('',#1212);
#387=VERTEX_POINT('',#1214);
#388=VERTEX_POINT('',#1218);
#389=VERTEX_POINT('',#1220);
#390=VERTEX_POINT('',#1224);
#391=VERTEX_POINT('',#1226);
#392=VERTEX_POINT('',#1230);
#393=VERTEX_POINT('',#1232);
#394=VERTEX_POINT('',#1236);
#395=VERTEX_POINT('',#1238);
#396=VERTEX_POINT('',#1246);
#397=VERTEX_POINT('',#1247);
#398=VERTEX_POINT('',#1249);
#399=VERTEX_POINT('',#1251);
#400=VERTEX_POINT('',#1255);
#401=VERTEX_POINT('',#1257);
#402=VERTEX_POINT('',#1261);
#403=VERTEX_POINT('',#1263);
#404=VERTEX_POINT('',#1270);
#405=VERTEX_POINT('',#1271);
#406=VERTEX_POINT('',#1273);
#407=VERTEX_POINT('',#1275);
#408=VERTEX_POINT('',#1279);
#409=VERTEX_POINT('',#1281);
#410=VERTEX_POINT('',#1285);
#411=VERTEX_POINT('',#1287);
#412=VERTEX_POINT('',#1294);
#413=VERTEX_POINT('',#1295);
#414=VERTEX_POINT('',#1297);
#415=VERTEX_POINT('',#1299);
#416=VERTEX_POINT('',#1303);
#417=VERTEX_POINT('',#1305);
#418=VERTEX_POINT('',#1309);
#419=VERTEX_POINT('',#1311);
#420=VERTEX_POINT('',#1320);
#421=VERTEX_POINT('',#1321);
#422=VERTEX_POINT('',#1323);
#423=VERTEX_POINT('',#1325);
#424=VERTEX_POINT('',#1329);
#425=VERTEX_POINT('',#1331);
#426=VERTEX_POINT('',#1335);
#427=VERTEX_POINT('',#1337);
#428=VERTEX_POINT('',#1341);
#429=VERTEX_POINT('',#1343);
#430=VERTEX_POINT('',#1347);
#431=VERTEX_POINT('',#1349);
#432=VERTEX_POINT('',#1356);
#433=VERTEX_POINT('',#1357);
#434=VERTEX_POINT('',#1359);
#435=VERTEX_POINT('',#1361);
#436=VERTEX_POINT('',#1365);
#437=VERTEX_POINT('',#1367);
#438=VERTEX_POINT('',#1371);
#439=VERTEX_POINT('',#1373);
#440=VERTEX_POINT('',#1377);
#441=VERTEX_POINT('',#1379);
#442=VERTEX_POINT('',#1383);
#443=VERTEX_POINT('',#1385);
#444=EDGE_CURVE('',#366,#367,#136,.T.);
#445=EDGE_CURVE('',#367,#368,#137,.T.);
#446=EDGE_CURVE('',#369,#368,#138,.T.);
#447=EDGE_CURVE('',#366,#369,#139,.T.);
#448=EDGE_CURVE('',#370,#366,#140,.T.);
#449=EDGE_CURVE('',#371,#369,#141,.T.);
#450=EDGE_CURVE('',#370,#371,#142,.T.);
#451=EDGE_CURVE('',#372,#370,#143,.T.);
#452=EDGE_CURVE('',#373,#371,#144,.T.);
#453=EDGE_CURVE('',#372,#373,#145,.T.);
#454=EDGE_CURVE('',#367,#372,#146,.T.);
#455=EDGE_CURVE('',#368,#373,#147,.T.);
#456=EDGE_CURVE('',#374,#375,#148,.T.);
#457=EDGE_CURVE('',#375,#376,#149,.T.);
#458=EDGE_CURVE('',#377,#376,#150,.T.);
#459=EDGE_CURVE('',#374,#377,#151,.T.);
#460=EDGE_CURVE('',#378,#374,#152,.T.);
#461=EDGE_CURVE('',#379,#377,#153,.T.);
#462=EDGE_CURVE('',#378,#379,#154,.T.);
#463=EDGE_CURVE('',#380,#378,#155,.T.);
#464=EDGE_CURVE('',#381,#379,#156,.T.);
#465=EDGE_CURVE('',#380,#381,#157,.T.);
#466=EDGE_CURVE('',#375,#380,#158,.T.);
#467=EDGE_CURVE('',#376,#381,#159,.T.);
#468=EDGE_CURVE('',#382,#382,#13,.T.);
#469=EDGE_CURVE('',#382,#383,#160,.T.);
#470=EDGE_CURVE('',#383,#383,#14,.T.);
#471=EDGE_CURVE('',#384,#385,#161,.T.);
#472=EDGE_CURVE('',#384,#386,#162,.T.);
#473=EDGE_CURVE('',#387,#386,#163,.T.);
#474=EDGE_CURVE('',#385,#387,#164,.T.);
#475=EDGE_CURVE('',#385,#388,#165,.T.);
#476=EDGE_CURVE('',#389,#387,#166,.T.);
#477=EDGE_CURVE('',#388,#389,#167,.T.);
#478=EDGE_CURVE('',#388,#390,#168,.T.);
#479=EDGE_CURVE('',#391,#389,#169,.T.);
#480=EDGE_CURVE('',#390,#391,#170,.T.);
#481=EDGE_CURVE('',#390,#392,#171,.T.);
#482=EDGE_CURVE('',#393,#391,#172,.T.);
#483=EDGE_CURVE('',#392,#393,#173,.T.);
#484=EDGE_CURVE('',#392,#394,#174,.T.);
#485=EDGE_CURVE('',#395,#393,#175,.T.);
#486=EDGE_CURVE('',#394,#395,#176,.T.);
#487=EDGE_CURVE('',#394,#384,#177,.T.);
#488=EDGE_CURVE('',#386,#395,#178,.T.);
#489=EDGE_CURVE('',#396,#397,#179,.T.);
#490=EDGE_CURVE('',#398,#396,#180,.T.);
#491=EDGE_CURVE('',#399,#398,#181,.T.);
#492=EDGE_CURVE('',#399,#397,#182,.T.);
#493=EDGE_CURVE('',#397,#400,#183,.T.);
#494=EDGE_CURVE('',#401,#399,#184,.T.);
#495=EDGE_CURVE('',#401,#400,#185,.T.);
#496=EDGE_CURVE('',#400,#402,#186,.T.);
#497=EDGE_CURVE('',#403,#401,#187,.T.);
#498=EDGE_CURVE('',#403,#402,#188,.T.);
#499=EDGE_CURVE('',#402,#396,#189,.T.);
#500=EDGE_CURVE('',#398,#403,#190,.T.);
#501=EDGE_CURVE('',#404,#405,#191,.T.);
#502=EDGE_CURVE('',#406,#404,#192,.T.);
#503=EDGE_CURVE('',#407,#406,#193,.T.);
#504=EDGE_CURVE('',#407,#405,#194,.T.);
#505=EDGE_CURVE('',#405,#408,#195,.T.);
#506=EDGE_CURVE('',#409,#407,#196,.T.);
#507=EDGE_CURVE('',#409,#408,#197,.T.);
#508=EDGE_CURVE('',#408,#410,#198,.T.);
#509=EDGE_CURVE('',#411,#409,#199,.T.);
#510=EDGE_CURVE('',#411,#410,#200,.T.);
#511=EDGE_CURVE('',#410,#404,#201,.T.);
#512=EDGE_CURVE('',#406,#411,#202,.T.);
#513=EDGE_CURVE('',#412,#413,#203,.T.);
#514=EDGE_CURVE('',#412,#414,#204,.T.);
#515=EDGE_CURVE('',#415,#414,#205,.T.);
#516=EDGE_CURVE('',#413,#415,#206,.T.);
#517=EDGE_CURVE('',#413,#416,#207,.T.);
#518=EDGE_CURVE('',#417,#415,#208,.T.);
#519=EDGE_CURVE('',#416,#417,#209,.T.);
#520=EDGE_CURVE('',#418,#416,#210,.T.);
#521=EDGE_CURVE('',#419,#417,#211,.T.);
#522=EDGE_CURVE('',#418,#419,#212,.T.);
#523=EDGE_CURVE('',#412,#418,#213,.T.);
#524=EDGE_CURVE('',#414,#419,#214,.T.);
#525=EDGE_CURVE('',#420,#421,#215,.T.);
#526=EDGE_CURVE('',#421,#422,#216,.T.);
#527=EDGE_CURVE('',#423,#422,#217,.T.);
#528=EDGE_CURVE('',#420,#423,#218,.T.);
#529=EDGE_CURVE('',#424,#420,#219,.T.);
#530=EDGE_CURVE('',#425,#423,#220,.T.);
#531=EDGE_CURVE('',#424,#425,#221,.T.);
#532=EDGE_CURVE('',#426,#424,#222,.T.);
#533=EDGE_CURVE('',#427,#425,#223,.T.);
#534=EDGE_CURVE('',#426,#427,#224,.T.);
#535=EDGE_CURVE('',#428,#426,#225,.T.);
#536=EDGE_CURVE('',#429,#427,#226,.T.);
#537=EDGE_CURVE('',#428,#429,#227,.T.);
#538=EDGE_CURVE('',#430,#428,#228,.T.);
#539=EDGE_CURVE('',#431,#429,#229,.T.);
#540=EDGE_CURVE('',#430,#431,#230,.T.);
#541=EDGE_CURVE('',#421,#430,#231,.T.);
#542=EDGE_CURVE('',#422,#431,#232,.T.);
#543=EDGE_CURVE('',#432,#433,#233,.T.);
#544=EDGE_CURVE('',#432,#434,#234,.T.);
#545=EDGE_CURVE('',#435,#434,#235,.T.);
#546=EDGE_CURVE('',#433,#435,#236,.T.);
#547=EDGE_CURVE('',#433,#436,#237,.T.);
#548=EDGE_CURVE('',#437,#435,#238,.T.);
#549=EDGE_CURVE('',#436,#437,#239,.T.);
#550=EDGE_CURVE('',#436,#438,#240,.T.);
#551=EDGE_CURVE('',#439,#437,#241,.T.);
#552=EDGE_CURVE('',#438,#439,#242,.T.);
#553=EDGE_CURVE('',#438,#440,#243,.T.);
#554=EDGE_CURVE('',#441,#439,#244,.T.);
#555=EDGE_CURVE('',#440,#441,#245,.T.);
#556=EDGE_CURVE('',#440,#442,#246,.T.);
#557=EDGE_CURVE('',#443,#441,#247,.T.);
#558=EDGE_CURVE('',#442,#443,#248,.T.);
#559=EDGE_CURVE('',#442,#432,#249,.T.);
#560=EDGE_CURVE('',#434,#443,#250,.T.);
#561=ORIENTED_EDGE('',*,*,#444,.T.);
#562=ORIENTED_EDGE('',*,*,#445,.T.);
#563=ORIENTED_EDGE('',*,*,#446,.F.);
#564=ORIENTED_EDGE('',*,*,#447,.F.);
#565=ORIENTED_EDGE('',*,*,#448,.T.);
#566=ORIENTED_EDGE('',*,*,#447,.T.);
#567=ORIENTED_EDGE('',*,*,#449,.F.);
#568=ORIENTED_EDGE('',*,*,#450,.F.);
#569=ORIENTED_EDGE('',*,*,#451,.T.);
#570=ORIENTED_EDGE('',*,*,#450,.T.);
#571=ORIENTED_EDGE('',*,*,#452,.F.);
#572=ORIENTED_EDGE('',*,*,#453,.F.);
#573=ORIENTED_EDGE('',*,*,#454,.T.);
#574=ORIENTED_EDGE('',*,*,#453,.T.);
#575=ORIENTED_EDGE('',*,*,#455,.F.);
#576=ORIENTED_EDGE('',*,*,#445,.F.);
#577=ORIENTED_EDGE('',*,*,#456,.T.);
#578=ORIENTED_EDGE('',*,*,#457,.T.);
#579=ORIENTED_EDGE('',*,*,#458,.F.);
#580=ORIENTED_EDGE('',*,*,#459,.F.);
#581=ORIENTED_EDGE('',*,*,#460,.T.);
#582=ORIENTED_EDGE('',*,*,#459,.T.);
#583=ORIENTED_EDGE('',*,*,#461,.F.);
#584=ORIENTED_EDGE('',*,*,#462,.F.);
#585=ORIENTED_EDGE('',*,*,#463,.T.);
#586=ORIENTED_EDGE('',*,*,#462,.T.);
#587=ORIENTED_EDGE('',*,*,#464,.F.);
#588=ORIENTED_EDGE('',*,*,#465,.F.);
#589=ORIENTED_EDGE('',*,*,#466,.T.);
#590=ORIENTED_EDGE('',*,*,#465,.T.);
#591=ORIENTED_EDGE('',*,*,#467,.F.);
#592=ORIENTED_EDGE('',*,*,#457,.F.);
#593=ORIENTED_EDGE('',*,*,#467,.T.);
#594=ORIENTED_EDGE('',*,*,#464,.T.);
#595=ORIENTED_EDGE('',*,*,#461,.T.);
#596=ORIENTED_EDGE('',*,*,#458,.T.);
#597=ORIENTED_EDGE('',*,*,#455,.T.);
#598=ORIENTED_EDGE('',*,*,#452,.T.);
#599=ORIENTED_EDGE('',*,*,#449,.T.);
#600=ORIENTED_EDGE('',*,*,#446,.T.);
#601=ORIENTED_EDGE('',*,*,#466,.F.);
#602=ORIENTED_EDGE('',*,*,#456,.F.);
#603=ORIENTED_EDGE('',*,*,#460,.F.);
#604=ORIENTED_EDGE('',*,*,#463,.F.);
#605=ORIENTED_EDGE('',*,*,#454,.F.);
#606=ORIENTED_EDGE('',*,*,#444,.F.);
#607=ORIENTED_EDGE('',*,*,#448,.F.);
#608=ORIENTED_EDGE('',*,*,#451,.F.);
#609=ORIENTED_EDGE('',*,*,#468,.F.);
#610=ORIENTED_EDGE('',*,*,#469,.T.);
#611=ORIENTED_EDGE('',*,*,#470,.F.);
#612=ORIENTED_EDGE('',*,*,#469,.F.);
#613=ORIENTED_EDGE('',*,*,#471,.F.);
#614=ORIENTED_EDGE('',*,*,#472,.T.);
#615=ORIENTED_EDGE('',*,*,#473,.F.);
#616=ORIENTED_EDGE('',*,*,#474,.F.);
#617=ORIENTED_EDGE('',*,*,#475,.F.);
#618=ORIENTED_EDGE('',*,*,#474,.T.);
#619=ORIENTED_EDGE('',*,*,#476,.F.);
#620=ORIENTED_EDGE('',*,*,#477,.F.);
#621=ORIENTED_EDGE('',*,*,#478,.F.);
#622=ORIENTED_EDGE('',*,*,#477,.T.);
#623=ORIENTED_EDGE('',*,*,#479,.F.);
#624=ORIENTED_EDGE('',*,*,#480,.F.);
#625=ORIENTED_EDGE('',*,*,#481,.F.);
#626=ORIENTED_EDGE('',*,*,#480,.T.);
#627=ORIENTED_EDGE('',*,*,#482,.F.);
#628=ORIENTED_EDGE('',*,*,#483,.F.);
#629=ORIENTED_EDGE('',*,*,#484,.F.);
#630=ORIENTED_EDGE('',*,*,#483,.T.);
#631=ORIENTED_EDGE('',*,*,#485,.F.);
#632=ORIENTED_EDGE('',*,*,#486,.F.);
#633=ORIENTED_EDGE('',*,*,#487,.F.);
#634=ORIENTED_EDGE('',*,*,#486,.T.);
#635=ORIENTED_EDGE('',*,*,#488,.F.);
#636=ORIENTED_EDGE('',*,*,#472,.F.);
#637=ORIENTED_EDGE('',*,*,#488,.T.);
#638=ORIENTED_EDGE('',*,*,#485,.T.);
#639=ORIENTED_EDGE('',*,*,#482,.T.);
#640=ORIENTED_EDGE('',*,*,#479,.T.);
#641=ORIENTED_EDGE('',*,*,#476,.T.);
#642=ORIENTED_EDGE('',*,*,#473,.T.);
#643=ORIENTED_EDGE('',*,*,#489,.F.);
#644=ORIENTED_EDGE('',*,*,#490,.F.);
#645=ORIENTED_EDGE('',*,*,#491,.F.);
#646=ORIENTED_EDGE('',*,*,#492,.T.);
#647=ORIENTED_EDGE('',*,*,#493,.F.);
#648=ORIENTED_EDGE('',*,*,#492,.F.);
#649=ORIENTED_EDGE('',*,*,#494,.F.);
#650=ORIENTED_EDGE('',*,*,#495,.T.);
#651=ORIENTED_EDGE('',*,*,#496,.F.);
#652=ORIENTED_EDGE('',*,*,#495,.F.);
#653=ORIENTED_EDGE('',*,*,#497,.F.);
#654=ORIENTED_EDGE('',*,*,#498,.T.);
#655=ORIENTED_EDGE('',*,*,#499,.F.);
#656=ORIENTED_EDGE('',*,*,#498,.F.);
#657=ORIENTED_EDGE('',*,*,#500,.F.);
#658=ORIENTED_EDGE('',*,*,#490,.T.);
#659=ORIENTED_EDGE('',*,*,#501,.F.);
#660=ORIENTED_EDGE('',*,*,#502,.F.);
#661=ORIENTED_EDGE('',*,*,#503,.F.);
#662=ORIENTED_EDGE('',*,*,#504,.T.);
#663=ORIENTED_EDGE('',*,*,#505,.F.);
#664=ORIENTED_EDGE('',*,*,#504,.F.);
#665=ORIENTED_EDGE('',*,*,#506,.F.);
#666=ORIENTED_EDGE('',*,*,#507,.T.);
#667=ORIENTED_EDGE('',*,*,#508,.F.);
#668=ORIENTED_EDGE('',*,*,#507,.F.);
#669=ORIENTED_EDGE('',*,*,#509,.F.);
#670=ORIENTED_EDGE('',*,*,#510,.T.);
#671=ORIENTED_EDGE('',*,*,#511,.F.);
#672=ORIENTED_EDGE('',*,*,#510,.F.);
#673=ORIENTED_EDGE('',*,*,#512,.F.);
#674=ORIENTED_EDGE('',*,*,#502,.T.);
#675=ORIENTED_EDGE('',*,*,#513,.F.);
#676=ORIENTED_EDGE('',*,*,#514,.T.);
#677=ORIENTED_EDGE('',*,*,#515,.F.);
#678=ORIENTED_EDGE('',*,*,#516,.F.);
#679=ORIENTED_EDGE('',*,*,#517,.F.);
#680=ORIENTED_EDGE('',*,*,#516,.T.);
#681=ORIENTED_EDGE('',*,*,#518,.F.);
#682=ORIENTED_EDGE('',*,*,#519,.F.);
#683=ORIENTED_EDGE('',*,*,#468,.T.);
#684=ORIENTED_EDGE('',*,*,#471,.T.);
#685=ORIENTED_EDGE('',*,*,#475,.T.);
#686=ORIENTED_EDGE('',*,*,#478,.T.);
#687=ORIENTED_EDGE('',*,*,#481,.T.);
#688=ORIENTED_EDGE('',*,*,#484,.T.);
#689=ORIENTED_EDGE('',*,*,#487,.T.);
#690=ORIENTED_EDGE('',*,*,#497,.T.);
#691=ORIENTED_EDGE('',*,*,#494,.T.);
#692=ORIENTED_EDGE('',*,*,#491,.T.);
#693=ORIENTED_EDGE('',*,*,#500,.T.);
#694=ORIENTED_EDGE('',*,*,#509,.T.);
#695=ORIENTED_EDGE('',*,*,#506,.T.);
#696=ORIENTED_EDGE('',*,*,#503,.T.);
#697=ORIENTED_EDGE('',*,*,#512,.T.);
#698=ORIENTED_EDGE('',*,*,#520,.T.);
#699=ORIENTED_EDGE('',*,*,#519,.T.);
#700=ORIENTED_EDGE('',*,*,#521,.F.);
#701=ORIENTED_EDGE('',*,*,#522,.F.);
#702=ORIENTED_EDGE('',*,*,#523,.T.);
#703=ORIENTED_EDGE('',*,*,#522,.T.);
#704=ORIENTED_EDGE('',*,*,#524,.F.);
#705=ORIENTED_EDGE('',*,*,#514,.F.);
#706=ORIENTED_EDGE('',*,*,#470,.T.);
#707=ORIENTED_EDGE('',*,*,#496,.T.);
#708=ORIENTED_EDGE('',*,*,#499,.T.);
#709=ORIENTED_EDGE('',*,*,#489,.T.);
#710=ORIENTED_EDGE('',*,*,#493,.T.);
#711=ORIENTED_EDGE('',*,*,#508,.T.);
#712=ORIENTED_EDGE('',*,*,#511,.T.);
#713=ORIENTED_EDGE('',*,*,#501,.T.);
#714=ORIENTED_EDGE('',*,*,#505,.T.);
#715=ORIENTED_EDGE('',*,*,#524,.T.);
#716=ORIENTED_EDGE('',*,*,#521,.T.);
#717=ORIENTED_EDGE('',*,*,#518,.T.);
#718=ORIENTED_EDGE('',*,*,#515,.T.);
#719=ORIENTED_EDGE('',*,*,#523,.F.);
#720=ORIENTED_EDGE('',*,*,#513,.T.);
#721=ORIENTED_EDGE('',*,*,#517,.T.);
#722=ORIENTED_EDGE('',*,*,#520,.F.);
#723=ORIENTED_EDGE('',*,*,#525,.T.);
#724=ORIENTED_EDGE('',*,*,#526,.T.);
#725=ORIENTED_EDGE('',*,*,#527,.F.);
#726=ORIENTED_EDGE('',*,*,#528,.F.);
#727=ORIENTED_EDGE('',*,*,#529,.T.);
#728=ORIENTED_EDGE('',*,*,#528,.T.);
#729=ORIENTED_EDGE('',*,*,#530,.F.);
#730=ORIENTED_EDGE('',*,*,#531,.F.);
#731=ORIENTED_EDGE('',*,*,#532,.T.);
#732=ORIENTED_EDGE('',*,*,#531,.T.);
#733=ORIENTED_EDGE('',*,*,#533,.F.);
#734=ORIENTED_EDGE('',*,*,#534,.F.);
#735=ORIENTED_EDGE('',*,*,#535,.T.);
#736=ORIENTED_EDGE('',*,*,#534,.T.);
#737=ORIENTED_EDGE('',*,*,#536,.F.);
#738=ORIENTED_EDGE('',*,*,#537,.F.);
#739=ORIENTED_EDGE('',*,*,#538,.T.);
#740=ORIENTED_EDGE('',*,*,#537,.T.);
#741=ORIENTED_EDGE('',*,*,#539,.F.);
#742=ORIENTED_EDGE('',*,*,#540,.F.);
#743=ORIENTED_EDGE('',*,*,#541,.T.);
#744=ORIENTED_EDGE('',*,*,#540,.T.);
#745=ORIENTED_EDGE('',*,*,#542,.F.);
#746=ORIENTED_EDGE('',*,*,#526,.F.);
#747=ORIENTED_EDGE('',*,*,#543,.F.);
#748=ORIENTED_EDGE('',*,*,#544,.T.);
#749=ORIENTED_EDGE('',*,*,#545,.F.);
#750=ORIENTED_EDGE('',*,*,#546,.F.);
#751=ORIENTED_EDGE('',*,*,#547,.F.);
#752=ORIENTED_EDGE('',*,*,#546,.T.);
#753=ORIENTED_EDGE('',*,*,#548,.F.);
#754=ORIENTED_EDGE('',*,*,#549,.F.);
#755=ORIENTED_EDGE('',*,*,#550,.F.);
#756=ORIENTED_EDGE('',*,*,#549,.T.);
#757=ORIENTED_EDGE('',*,*,#551,.F.);
#758=ORIENTED_EDGE('',*,*,#552,.F.);
#759=ORIENTED_EDGE('',*,*,#553,.F.);
#760=ORIENTED_EDGE('',*,*,#552,.T.);
#761=ORIENTED_EDGE('',*,*,#554,.F.);
#762=ORIENTED_EDGE('',*,*,#555,.F.);
#763=ORIENTED_EDGE('',*,*,#556,.F.);
#764=ORIENTED_EDGE('',*,*,#555,.T.);
#765=ORIENTED_EDGE('',*,*,#557,.F.);
#766=ORIENTED_EDGE('',*,*,#558,.F.);
#767=ORIENTED_EDGE('',*,*,#559,.F.);
#768=ORIENTED_EDGE('',*,*,#558,.T.);
#769=ORIENTED_EDGE('',*,*,#560,.F.);
#770=ORIENTED_EDGE('',*,*,#544,.F.);
#771=ORIENTED_EDGE('',*,*,#560,.T.);
#772=ORIENTED_EDGE('',*,*,#557,.T.);
#773=ORIENTED_EDGE('',*,*,#554,.T.);
#774=ORIENTED_EDGE('',*,*,#551,.T.);
#775=ORIENTED_EDGE('',*,*,#548,.T.);
#776=ORIENTED_EDGE('',*,*,#545,.T.);
#777=ORIENTED_EDGE('',*,*,#542,.T.);
#778=ORIENTED_EDGE('',*,*,#539,.T.);
#779=ORIENTED_EDGE('',*,*,#536,.T.);
#780=ORIENTED_EDGE('',*,*,#533,.T.);
#781=ORIENTED_EDGE('',*,*,#530,.T.);
#782=ORIENTED_EDGE('',*,*,#527,.T.);
#783=ORIENTED_EDGE('',*,*,#559,.T.);
#784=ORIENTED_EDGE('',*,*,#543,.T.);
#785=ORIENTED_EDGE('',*,*,#547,.T.);
#786=ORIENTED_EDGE('',*,*,#550,.T.);
#787=ORIENTED_EDGE('',*,*,#553,.T.);
#788=ORIENTED_EDGE('',*,*,#556,.T.);
#789=ORIENTED_EDGE('',*,*,#541,.F.);
#790=ORIENTED_EDGE('',*,*,#525,.F.);
#791=ORIENTED_EDGE('',*,*,#529,.F.);
#792=ORIENTED_EDGE('',*,*,#532,.F.);
#793=ORIENTED_EDGE('',*,*,#535,.F.);
#794=ORIENTED_EDGE('',*,*,#538,.F.);
#795=PLANE('',#890);
#796=PLANE('',#891);
#797=PLANE('',#892);
#798=PLANE('',#893);
#799=PLANE('',#894);
#800=PLANE('',#895);
#801=PLANE('',#896);
#802=PLANE('',#897);
#803=PLANE('',#898);
#804=PLANE('',#899);
#805=PLANE('',#903);
#806=PLANE('',#904);
#807=PLANE('',#905);
#808=PLANE('',#906);
#809=PLANE('',#907);
#810=PLANE('',#908);
#811=PLANE('',#909);
#812=PLANE('',#910);
#813=PLANE('',#911);
#814=PLANE('',#912);
#815=PLANE('',#913);
#816=PLANE('',#914);
#817=PLANE('',#915);
#818=PLANE('',#916);
#819=PLANE('',#917);
#820=PLANE('',#918);
#821=PLANE('',#919);
#822=PLANE('',#920);
#823=PLANE('',#921);
#824=PLANE('',#922);
#825=PLANE('',#923);
#826=PLANE('',#924);
#827=PLANE('',#925);
#828=PLANE('',#926);
#829=PLANE('',#927);
#830=PLANE('',#928);
#831=PLANE('',#929);
#832=PLANE('',#930);
#833=PLANE('',#931);
#834=PLANE('',#932);
#835=PLANE('',#933);
#836=PLANE('',#934);
#837=PLANE('',#935);
#838=PLANE('',#936);
#839=PLANE('',#937);
#840=ADVANCED_FACE('',(#33),#795,.T.);
#841=ADVANCED_FACE('',(#34),#796,.T.);
#842=ADVANCED_FACE('',(#35),#797,.T.);
#843=ADVANCED_FACE('',(#36),#798,.T.);
#844=ADVANCED_FACE('',(#37),#799,.T.);
#845=ADVANCED_FACE('',(#38),#800,.T.);
#846=ADVANCED_FACE('',(#39),#801,.T.);
#847=ADVANCED_FACE('',(#40),#802,.T.);
#848=ADVANCED_FACE('',(#41,#22),#803,.T.);
#849=ADVANCED_FACE('',(#42,#23),#804,.F.);
#850=ADVANCED_FACE('',(#43),#15,.F.);
#851=ADVANCED_FACE('',(#44),#805,.T.);
#852=ADVANCED_FACE('',(#45),#806,.T.);
#853=ADVANCED_FACE('',(#46),#807,.T.);
#854=ADVANCED_FACE('',(#47),#808,.T.);
#855=ADVANCED_FACE('',(#48),#809,.T.);
#856=ADVANCED_FACE('',(#49),#810,.T.);
#857=ADVANCED_FACE('',(#50),#811,.T.);
#858=ADVANCED_FACE('',(#51),#812,.F.);
#859=ADVANCED_FACE('',(#52),#813,.F.);
#860=ADVANCED_FACE('',(#53),#814,.F.);
#861=ADVANCED_FACE('',(#54),#815,.F.);
#862=ADVANCED_FACE('',(#55),#816,.F.);
#863=ADVANCED_FACE('',(#56),#817,.F.);
#864=ADVANCED_FACE('',(#57),#818,.F.);
#865=ADVANCED_FACE('',(#58),#819,.F.);
#866=ADVANCED_FACE('',(#59),#820,.T.);
#867=ADVANCED_FACE('',(#60,#24,#25,#26,#27),#821,.T.);
#868=ADVANCED_FACE('',(#61),#822,.T.);
#869=ADVANCED_FACE('',(#62,#28,#29,#30),#823,.T.);
#870=ADVANCED_FACE('',(#63),#824,.T.);
#871=ADVANCED_FACE('',(#64),#825,.F.);
#872=ADVANCED_FACE('',(#65),#826,.T.);
#873=ADVANCED_FACE('',(#66),#827,.T.);
#874=ADVANCED_FACE('',(#67),#828,.T.);
#875=ADVANCED_FACE('',(#68),#829,.T.);
#876=ADVANCED_FACE('',(#69),#830,.T.);
#877=ADVANCED_FACE('',(#70),#831,.T.);
#878=ADVANCED_FACE('',(#71),#832,.T.);
#879=ADVANCED_FACE('',(#72),#833,.T.);
#880=ADVANCED_FACE('',(#73),#834,.T.);
#881=ADVANCED_FACE('',(#74),#835,.T.);
#882=ADVANCED_FACE('',(#75),#836,.T.);
#883=ADVANCED_FACE('',(#76),#837,.T.);
#884=ADVANCED_FACE('',(#77,#31),#838,.T.);
#885=ADVANCED_FACE('',(#78,#32),#839,.F.);
#886=CLOSED_SHELL('',(#840,#841,#842,#843,#844,#845,#846,#847,#848,#849));
#887=CLOSED_SHELL('',(#850,#851,#852,#853,#854,#855,#856,#857,#858,#859,
#860,#861,#862,#863,#864,#865,#866,#867,#868,#869,#870,#871));
#888=CLOSED_SHELL('',(#872,#873,#874,#875,#876,#877,#878,#879,#880,#881,
#882,#883,#884,#885));
#889=AXIS2_PLACEMENT_3D('',#1151,#938,#939);
#890=AXIS2_PLACEMENT_3D('',#1152,#940,#941);
#891=AXIS2_PLACEMENT_3D('',#1161,#946,#947);
#892=AXIS2_PLACEMENT_3D('',#1167,#951,#952);
#893=AXIS2_PLACEMENT_3D('',#1173,#956,#957);
#894=AXIS2_PLACEMENT_3D('',#1176,#960,#961);
#895=AXIS2_PLACEMENT_3D('',#1185,#966,#967);
#896=AXIS2_PLACEMENT_3D('',#1191,#971,#972);
#897=AXIS2_PLACEMENT_3D('',#1197,#976,#977);
#898=AXIS2_PLACEMENT_3D('',#1200,#980,#981);
#899=AXIS2_PLACEMENT_3D('',#1201,#982,#983);
#900=AXIS2_PLACEMENT_3D('',#1202,#984,#985);
#901=AXIS2_PLACEMENT_3D('',#1204,#986,#987);
#902=AXIS2_PLACEMENT_3D('',#1207,#989,#990);
#903=AXIS2_PLACEMENT_3D('',#1208,#991,#992);
#904=AXIS2_PLACEMENT_3D('',#1217,#997,#998);
#905=AXIS2_PLACEMENT_3D('',#1223,#1002,#1003);
#906=AXIS2_PLACEMENT_3D('',#1229,#1007,#1008);
#907=AXIS2_PLACEMENT_3D('',#1235,#1012,#1013);
#908=AXIS2_PLACEMENT_3D('',#1241,#1017,#1018);
#909=AXIS2_PLACEMENT_3D('',#1244,#1021,#1022);
#910=AXIS2_PLACEMENT_3D('',#1245,#1023,#1024);
#911=AXIS2_PLACEMENT_3D('',#1254,#1029,#1030);
#912=AXIS2_PLACEMENT_3D('',#1260,#1034,#1035);
#913=AXIS2_PLACEMENT_3D('',#1266,#1039,#1040);
#914=AXIS2_PLACEMENT_3D('',#1269,#1043,#1044);
#915=AXIS2_PLACEMENT_3D('',#1278,#1049,#1050);
#916=AXIS2_PLACEMENT_3D('',#1284,#1054,#1055);
#917=AXIS2_PLACEMENT_3D('',#1290,#1059,#1060);
#918=AXIS2_PLACEMENT_3D('',#1293,#1063,#1064);
#919=AXIS2_PLACEMENT_3D('',#1302,#1069,#1070);
#920=AXIS2_PLACEMENT_3D('',#1308,#1074,#1075);
#921=AXIS2_PLACEMENT_3D('',#1314,#1079,#1080);
#922=AXIS2_PLACEMENT_3D('',#1317,#1083,#1084);
#923=AXIS2_PLACEMENT_3D('',#1318,#1085,#1086);
#924=AXIS2_PLACEMENT_3D('',#1319,#1087,#1088);
#925=AXIS2_PLACEMENT_3D('',#1328,#1093,#1094);
#926=AXIS2_PLACEMENT_3D('',#1334,#1098,#1099);
#927=AXIS2_PLACEMENT_3D('',#1340,#1103,#1104);
#928=AXIS2_PLACEMENT_3D('',#1346,#1108,#1109);
#929=AXIS2_PLACEMENT_3D('',#1352,#1113,#1114);
#930=AXIS2_PLACEMENT_3D('',#1355,#1117,#1118);
#931=AXIS2_PLACEMENT_3D('',#1364,#1123,#1124);
#932=AXIS2_PLACEMENT_3D('',#1370,#1128,#1129);
#933=AXIS2_PLACEMENT_3D('',#1376,#1133,#1134);
#934=AXIS2_PLACEMENT_3D('',#1382,#1138,#1139);
#935=AXIS2_PLACEMENT_3D('',#1388,#1143,#1144);
#936=AXIS2_PLACEMENT_3D('',#1391,#1147,#1148);
#937=AXIS2_PLACEMENT_3D('',#1392,#1149,#1150);
#938=DIRECTION('axis',(0.,0.,1.));
#939=DIRECTION('refdir',(1.,0.,0.));
#940=DIRECTION('center_axis',(-1.,0.,0.));
#941=DIRECTION('ref_axis',(0.,-1.,0.));
#942=DIRECTION('',(0.,-1.,0.));
#943=DIRECTION('',(0.,0.,1.));
#944=DIRECTION('',(0.,-1.,0.));
#945=DIRECTION('',(0.,0.,1.));
#946=DIRECTION('center_axis',(0.,-1.,0.));
#947=DIRECTION('ref_axis',(1.,0.,0.));
#948=DIRECTION('',(1.,0.,0.));
#949=DIRECTION('',(1.,0.,0.));
#950=DIRECTION('',(0.,0.,1.));
#951=DIRECTION('center_axis',(1.,0.,0.));
#952=DIRECTION('ref_axis',(0.,1.,0.));
#953=DIRECTION('',(0.,1.,0.));
#954=DIRECTION('',(0.,1.,0.));
#955=DIRECTION('',(0.,0.,1.));
#956=DIRECTION('center_axis',(0.,1.,0.));
#957=DIRECTION('ref_axis',(-1.,0.,0.));
#958=DIRECTION('',(-1.,0.,0.));
#959=DIRECTION('',(-1.,0.,0.));
#960=DIRECTION('center_axis',(1.,0.,0.));
#961=DIRECTION('ref_axis',(0.,1.,0.));
#962=DIRECTION('',(0.,1.,0.));
#963=DIRECTION('',(0.,0.,1.));
#964=DIRECTION('',(0.,1.,0.));
#965=DIRECTION('',(0.,0.,1.));
#966=DIRECTION('center_axis',(0.,-1.,0.));
#967=DIRECTION('ref_axis',(1.,0.,0.));
#968=DIRECTION('',(1.,0.,0.));
#969=DIRECTION('',(1.,0.,0.));
#970=DIRECTION('',(0.,0.,1.));
#971=DIRECTION('center_axis',(-1.,0.,0.));
#972=DIRECTION('ref_axis',(0.,-1.,0.));
#973=DIRECTION('',(0.,-1.,0.));
#974=DIRECTION('',(0.,-1.,0.));
#975=DIRECTION('',(0.,0.,1.));
#976=DIRECTION('center_axis',(0.,1.,0.));
#977=DIRECTION('ref_axis',(-1.,0.,0.));
#978=DIRECTION('',(-1.,0.,0.));
#979=DIRECTION('',(-1.,0.,0.));
#980=DIRECTION('center_axis',(0.,0.,1.));
#981=DIRECTION('ref_axis',(1.,0.,0.));
#982=DIRECTION('center_axis',(0.,0.,1.));
#983=DIRECTION('ref_axis',(1.,0.,0.));
#984=DIRECTION('center_axis',(0.,0.,-1.));
#985=DIRECTION('ref_axis',(-1.,0.,0.));
#986=DIRECTION('center_axis',(0.,0.,-1.));
#987=DIRECTION('ref_axis',(-1.,0.,0.));
#988=DIRECTION('',(0.,0.,-1.));
#989=DIRECTION('center_axis',(0.,0.,1.));
#990=DIRECTION('ref_axis',(-1.,0.,0.));
#991=DIRECTION('center_axis',(-1.,0.,0.));
#992=DIRECTION('ref_axis',(0.,-1.,0.));
#993=DIRECTION('',(0.,1.,0.));
#994=DIRECTION('',(0.,0.,1.));
#995=DIRECTION('',(0.,-1.,0.));
#996=DIRECTION('',(0.,0.,1.));
#997=DIRECTION('center_axis',(0.,1.,0.));
#998=DIRECTION('ref_axis',(-1.,0.,0.));
#999=DIRECTION('',(1.,0.,0.));
#1000=DIRECTION('',(-1.,0.,0.));
#1001=DIRECTION('',(0.,0.,1.));
#1002=DIRECTION('center_axis',(1.,0.,0.));
#1003=DIRECTION('ref_axis',(0.,1.,0.));
#1004=DIRECTION('',(0.,-1.,0.));
#1005=DIRECTION('',(0.,1.,0.));
#1006=DIRECTION('',(0.,0.,1.));
#1007=DIRECTION('center_axis',(0.,-1.,0.));
#1008=DIRECTION('ref_axis',(1.,0.,0.));
#1009=DIRECTION('',(-1.,0.,0.));
#1010=DIRECTION('',(1.,0.,0.));
#1011=DIRECTION('',(0.,0.,1.));
#1012=DIRECTION('center_axis',(-1.,0.,0.));
#1013=DIRECTION('ref_axis',(0.,-1.,0.));
#1014=DIRECTION('',(0.,1.,0.));
#1015=DIRECTION('',(0.,-1.,0.));
#1016=DIRECTION('',(0.,0.,1.));
#1017=DIRECTION('center_axis',(0.,1.,0.));
#1018=DIRECTION('ref_axis',(-1.,0.,0.));
#1019=DIRECTION('',(1.,0.,0.));
#1020=DIRECTION('',(-1.,0.,0.));
#1021=DIRECTION('center_axis',(0.,0.,1.));
#1022=DIRECTION('ref_axis',(1.,0.,0.));
#1023=DIRECTION('center_axis',(-1.,0.,0.));
#1024=DIRECTION('ref_axis',(0.,1.,0.));
#1025=DIRECTION('',(0.,-1.,0.));
#1026=DIRECTION('',(0.,0.,-1.));
#1027=DIRECTION('',(0.,1.,0.));
#1028=DIRECTION('',(0.,0.,-1.));
#1029=DIRECTION('center_axis',(0.,-1.,0.));
#1030=DIRECTION('ref_axis',(-1.,0.,0.));
#1031=DIRECTION('',(1.,0.,0.));
#1032=DIRECTION('',(-1.,0.,0.));
#1033=DIRECTION('',(0.,0.,-1.));
#1034=DIRECTION('center_axis',(1.,0.,0.));
#1035=DIRECTION('ref_axis',(0.,-1.,0.));
#1036=DIRECTION('',(0.,1.,0.));
#1037=DIRECTION('',(0.,-1.,0.));
#1038=DIRECTION('',(0.,0.,-1.));
#1039=DIRECTION('center_axis',(0.,1.,0.));
#1040=DIRECTION('ref_axis',(1.,0.,0.));
#1041=DIRECTION('',(-1.,0.,0.));
#1042=DIRECTION('',(1.,0.,0.));
#1043=DIRECTION('center_axis',(-1.,0.,0.));
#1044=DIRECTION('ref_axis',(0.,1.,0.));
#1045=DIRECTION('',(0.,-1.,0.));
#1046=DIRECTION('',(0.,0.,-1.));
#1047=DIRECTION('',(0.,1.,0.));
#1048=DIRECTION('',(0.,0.,-1.));
#1049=DIRECTION('center_axis',(0.,-1.,0.));
#1050=DIRECTION('ref_axis',(-1.,0.,0.));
#1051=DIRECTION('',(1.,0.,0.));
#1052=DIRECTION('',(-1.,0.,0.));
#1053=DIRECTION('',(0.,0.,-1.));
#1054=DIRECTION('center_axis',(1.,0.,0.));
#1055=DIRECTION('ref_axis',(0.,-1.,0.));
#1056=DIRECTION('',(0.,1.,0.));
#1057=DIRECTION('',(0.,-1.,0.));
#1058=DIRECTION('',(0.,0.,-1.));
#1059=DIRECTION('center_axis',(0.,1.,0.));
#1060=DIRECTION('ref_axis',(1.,0.,0.));
#1061=DIRECTION('',(-1.,0.,0.));
#1062=DIRECTION('',(1.,0.,0.));
#1063=DIRECTION('center_axis',(1.,0.,0.));
#1064=DIRECTION('ref_axis',(0.,0.,-1.));
#1065=DIRECTION('',(0.,0.,1.));
#1066=DIRECTION('',(0.,1.,0.));
#1067=DIRECTION('',(0.,0.,-1.));
#1068=DIRECTION('',(0.,1.,0.));
#1069=DIRECTION('center_axis',(0.,0.,1.));
#1070=DIRECTION('ref_axis',(1.,0.,0.));
#1071=DIRECTION('',(-1.,0.,0.));
#1072=DIRECTION('',(1.,0.,0.));
#1073=DIRECTION('',(0.,1.,0.));
#1074=DIRECTION('center_axis',(-1.,0.,0.));
#1075=DIRECTION('ref_axis',(0.,0.,1.));
#1076=DIRECTION('',(0.,0.,1.));
#1077=DIRECTION('',(0.,0.,1.));
#1078=DIRECTION('',(0.,1.,0.));
#1079=DIRECTION('center_axis',(0.,0.,-1.));
#1080=DIRECTION('ref_axis',(-1.,0.,0.));
#1081=DIRECTION('',(-1.,0.,0.));
#1082=DIRECTION('',(-1.,0.,0.));
#1083=DIRECTION('center_axis',(0.,1.,0.));
#1084=DIRECTION('ref_axis',(0.,0.,1.));
#1085=DIRECTION('center_axis',(0.,1.,0.));
#1086=DIRECTION('ref_axis',(-1.,0.,0.));
#1087=DIRECTION('center_axis',(1.,0.,0.));
#1088=DIRECTION('ref_axis',(0.,1.,0.));
#1089=DIRECTION('',(0.,1.,0.));
#1090=DIRECTION('',(0.,0.,1.));
#1091=DIRECTION('',(0.,1.,0.));
#1092=DIRECTION('',(0.,0.,1.));
#1093=DIRECTION('center_axis',(0.,1.,0.));
#1094=DIRECTION('ref_axis',(-1.,0.,0.));
#1095=DIRECTION('',(-1.,0.,0.));
#1096=DIRECTION('',(-1.,0.,0.));
#1097=DIRECTION('',(0.,0.,1.));
#1098=DIRECTION('center_axis',(-1.,0.,0.));
#1099=DIRECTION('ref_axis',(0.,-1.,0.));
#1100=DIRECTION('',(0.,-1.,0.));
#1101=DIRECTION('',(0.,-1.,0.));
#1102=DIRECTION('',(0.,0.,1.));
#1103=DIRECTION('center_axis',(0.,-1.,0.));
#1104=DIRECTION('ref_axis',(1.,0.,0.));
#1105=DIRECTION('',(1.,0.,0.));
#1106=DIRECTION('',(1.,0.,0.));
#1107=DIRECTION('',(0.,0.,1.));
#1108=DIRECTION('center_axis',(1.,0.,0.));
#1109=DIRECTION('ref_axis',(0.,1.,0.));
#1110=DIRECTION('',(0.,1.,0.));
#1111=DIRECTION('',(0.,1.,0.));
#1112=DIRECTION('',(0.,0.,1.));
#1113=DIRECTION('center_axis',(0.,-1.,0.));
#1114=DIRECTION('ref_axis',(1.,0.,0.));
#1115=DIRECTION('',(1.,0.,0.));
#1116=DIRECTION('',(1.,0.,0.));
#1117=DIRECTION('center_axis',(-1.,0.,0.));
#1118=DIRECTION('ref_axis',(0.,-1.,0.));
#1119=DIRECTION('',(0.,1.,0.));
#1120=DIRECTION('',(0.,0.,1.));
#1121=DIRECTION('',(0.,-1.,0.));
#1122=DIRECTION('',(0.,0.,1.));
#1123=DIRECTION('center_axis',(0.,1.,0.));
#1124=DIRECTION('ref_axis',(-1.,0.,0.));
#1125=DIRECTION('',(1.,0.,0.));
#1126=DIRECTION('',(-1.,0.,0.));
#1127=DIRECTION('',(0.,0.,1.));
#1128=DIRECTION('center_axis',(1.,0.,0.));
#1129=DIRECTION('ref_axis',(0.,1.,0.));
#1130=DIRECTION('',(0.,-1.,0.));
#1131=DIRECTION('',(0.,1.,0.));
#1132=DIRECTION('',(0.,0.,1.));
#1133=DIRECTION('center_axis',(0.,-1.,0.));
#1134=DIRECTION('ref_axis',(1.,0.,0.));
#1135=DIRECTION('',(-1.,0.,0.));
#1136=DIRECTION('',(1.,0.,0.));
#1137=DIRECTION('',(0.,0.,1.));
#1138=DIRECTION('center_axis',(-1.,0.,0.));
#1139=DIRECTION('ref_axis',(0.,-1.,0.));
#1140=DIRECTION('',(0.,1.,0.));
#1141=DIRECTION('',(0.,-1.,0.));
#1142=DIRECTION('',(0.,0.,1.));
#1143=DIRECTION('center_axis',(0.,1.,0.));
#1144=DIRECTION('ref_axis',(-1.,0.,0.));
#1145=DIRECTION('',(1.,0.,0.));
#1146=DIRECTION('',(-1.,0.,0.));
#1147=DIRECTION('center_axis',(0.,0.,1.));
#1148=DIRECTION('ref_axis',(1.,0.,0.));
#1149=DIRECTION('center_axis',(0.,0.,1.));
#1150=DIRECTION('ref_axis',(-1.,0.,0.));
#1151=CARTESIAN_POINT('',(0.,0.,0.));
#1152=CARTESIAN_POINT('Origin',(188.,-40.,10.51));
#1153=CARTESIAN_POINT('',(188.,-40.,10.51));
#1154=CARTESIAN_POINT('',(188.,-140.25,10.51));
#1155=CARTESIAN_POINT('',(188.,-40.,10.51));
#1156=CARTESIAN_POINT('',(188.,-140.25,12.51));
#1157=CARTESIAN_POINT('',(188.,-140.25,10.51));
#1158=CARTESIAN_POINT('',(188.,-40.,12.51));
#1159=CARTESIAN_POINT('',(188.,-40.,12.51));
#1160=CARTESIAN_POINT('',(188.,-40.,10.51));
#1161=CARTESIAN_POINT('Origin',(107.,-40.,10.51));
#1162=CARTESIAN_POINT('',(107.,-40.,10.51));
#1163=CARTESIAN_POINT('',(107.,-40.,10.51));
#1164=CARTESIAN_POINT('',(107.,-40.,12.51));
#1165=CARTESIAN_POINT('',(107.,-40.,12.51));
#1166=CARTESIAN_POINT('',(107.,-40.,10.51));
#1167=CARTESIAN_POINT('Origin',(107.,-140.25,10.51));
#1168=CARTESIAN_POINT('',(107.,-140.25,10.51));
#1169=CARTESIAN_POINT('',(107.,-140.25,10.51));
#1170=CARTESIAN_POINT('',(107.,-140.25,12.51));
#1171=CARTESIAN_POINT('',(107.,-140.25,12.51));
#1172=CARTESIAN_POINT('',(107.,-140.25,10.51));
#1173=CARTESIAN_POINT('Origin',(188.,-140.25,10.51));
#1174=CARTESIAN_POINT('',(188.,-140.25,10.51));
#1175=CARTESIAN_POINT('',(188.,-140.25,12.51));
#1176=CARTESIAN_POINT('Origin',(190.5,-142.75,10.51));
#1177=CARTESIAN_POINT('',(190.5,-142.75,10.51));
#1178=CARTESIAN_POINT('',(190.5,-37.5,10.51));
#1179=CARTESIAN_POINT('',(190.5,-37.5,10.51));
#1180=CARTESIAN_POINT('',(190.5,-37.5,12.51));
#1181=CARTESIAN_POINT('',(190.5,-37.5,10.51));
#1182=CARTESIAN_POINT('',(190.5,-142.75,12.51));
#1183=CARTESIAN_POINT('',(190.5,-37.5,12.51));
#1184=CARTESIAN_POINT('',(190.5,-142.75,10.51));
#1185=CARTESIAN_POINT('Origin',(104.5,-142.75,10.51));
#1186=CARTESIAN_POINT('',(104.5,-142.75,10.51));
#1187=CARTESIAN_POINT('',(190.5,-142.75,10.51));
#1188=CARTESIAN_POINT('',(104.5,-142.75,12.51));
#1189=CARTESIAN_POINT('',(190.5,-142.75,12.51));
#1190=CARTESIAN_POINT('',(104.5,-142.75,10.51));
#1191=CARTESIAN_POINT('Origin',(104.5,-37.5,10.51));
#1192=CARTESIAN_POINT('',(104.5,-37.5,10.51));
#1193=CARTESIAN_POINT('',(104.5,-142.75,10.51));
#1194=CARTESIAN_POINT('',(104.5,-37.5,12.51));
#1195=CARTESIAN_POINT('',(104.5,-142.75,12.51));
#1196=CARTESIAN_POINT('',(104.5,-37.5,10.51));
#1197=CARTESIAN_POINT('Origin',(190.5,-37.5,10.51));
#1198=CARTESIAN_POINT('',(104.5,-37.5,10.51));
#1199=CARTESIAN_POINT('',(104.5,-37.5,12.51));
#1200=CARTESIAN_POINT('Origin',(147.5,-90.125,12.51));
#1201=CARTESIAN_POINT('Origin',(147.5,-90.125,10.51));
#1202=CARTESIAN_POINT('Origin',(169.480582069208,-50.6007335156339,12.51));
#1203=CARTESIAN_POINT('',(172.980582069208,-50.6007335156339,12.51));
#1204=CARTESIAN_POINT('Origin',(169.480582069208,-50.6007335156339,12.51));
#1205=CARTESIAN_POINT('',(172.980582069208,-50.6007335156339,10.51));
#1206=CARTESIAN_POINT('',(172.980582069208,-50.6007335156339,12.51));
#1207=CARTESIAN_POINT('Origin',(169.480582069208,-50.6007335156339,10.51));
#1208=CARTESIAN_POINT('Origin',(170.344229293642,-67.9383955659999,12.51));
#1209=CARTESIAN_POINT('',(170.344229293642,-112.5,12.51));
#1210=CARTESIAN_POINT('',(170.344229293642,-67.9383955659999,12.51));
#1211=CARTESIAN_POINT('',(170.344229293642,-104.094197783,12.51));
#1212=CARTESIAN_POINT('',(170.344229293642,-112.5,17.51));
#1213=CARTESIAN_POINT('',(170.344229293642,-112.5,12.51));
#1214=CARTESIAN_POINT('',(170.344229293642,-67.9383955659999,17.51));
#1215=CARTESIAN_POINT('',(170.344229293642,-112.5,17.51));
#1216=CARTESIAN_POINT('',(170.344229293642,-67.9383955659999,12.51));
#1217=CARTESIAN_POINT('Origin',(182.5,-67.9383955659999,12.51));
#1218=CARTESIAN_POINT('',(182.5,-67.9383955659999,12.51));
#1219=CARTESIAN_POINT('',(144.75,-67.9383955659999,12.51));
#1220=CARTESIAN_POINT('',(182.5,-67.9383955659999,17.51));
#1221=CARTESIAN_POINT('',(170.344229293642,-67.9383955659999,17.51));
#1222=CARTESIAN_POINT('',(182.5,-67.9383955659999,12.51));
#1223=CARTESIAN_POINT('Origin',(182.5,-132.5,12.51));
#1224=CARTESIAN_POINT('',(182.5,-132.5,12.51));
#1225=CARTESIAN_POINT('',(182.5,-136.375,12.51));
#1226=CARTESIAN_POINT('',(182.5,-132.5,17.51));
#1227=CARTESIAN_POINT('',(182.5,-110.,17.51));
#1228=CARTESIAN_POINT('',(182.5,-132.5,12.51));
#1229=CARTESIAN_POINT('Origin',(117.5,-132.5,12.51));
#1230=CARTESIAN_POINT('',(117.5,-132.5,12.51));
#1231=CARTESIAN_POINT('',(112.25,-132.5,12.51));
#1232=CARTESIAN_POINT('',(117.5,-132.5,17.51));
#1233=CARTESIAN_POINT('',(182.5,-132.5,17.51));
#1234=CARTESIAN_POINT('',(117.5,-132.5,12.51));
#1235=CARTESIAN_POINT('Origin',(117.5,-112.5,12.51));
#1236=CARTESIAN_POINT('',(117.5,-112.5,12.51));
#1237=CARTESIAN_POINT('',(117.5,-126.375,12.51));
#1238=CARTESIAN_POINT('',(117.5,-112.5,17.51));
#1239=CARTESIAN_POINT('',(117.5,-132.5,17.51));
#1240=CARTESIAN_POINT('',(117.5,-112.5,12.51));
#1241=CARTESIAN_POINT('Origin',(170.344229293642,-112.5,12.51));
#1242=CARTESIAN_POINT('',(138.672114646821,-112.5,12.51));
#1243=CARTESIAN_POINT('',(117.5,-112.5,17.51));
#1244=CARTESIAN_POINT('Origin',(150.,-100.219197783,17.51));
#1245=CARTESIAN_POINT('Origin',(118.000001758337,-56.000000834465,12.51));
#1246=CARTESIAN_POINT('',(118.000001758337,-42.0000006258488,10.51));
#1247=CARTESIAN_POINT('',(118.000001758337,-56.000000834465,10.51));
#1248=CARTESIAN_POINT('',(118.000001758337,-98.1250004172325,10.51));
#1249=CARTESIAN_POINT('',(118.000001758337,-42.0000006258488,12.51));
#1250=CARTESIAN_POINT('',(118.000001758337,-42.0000006258488,12.51));
#1251=CARTESIAN_POINT('',(118.000001758337,-56.000000834465,12.51));
#1252=CARTESIAN_POINT('',(118.000001758337,-98.1250004172325,12.51));
#1253=CARTESIAN_POINT('',(118.000001758337,-56.000000834465,12.51));
#1254=CARTESIAN_POINT('Origin',(156.000002324581,-56.000000834465,12.51));
#1255=CARTESIAN_POINT('',(156.000002324581,-56.000000834465,10.51));
#1256=CARTESIAN_POINT('',(172.000001162291,-56.000000834465,10.51));
#1257=CARTESIAN_POINT('',(156.000002324581,-56.000000834465,12.51));
#1258=CARTESIAN_POINT('',(131.500001162291,-56.000000834465,12.51));
#1259=CARTESIAN_POINT('',(156.000002324581,-56.000000834465,12.51));
#1260=CARTESIAN_POINT('Origin',(156.000002324581,-42.0000006258488,12.51));
#1261=CARTESIAN_POINT('',(156.000002324581,-42.0000006258488,10.51));
#1262=CARTESIAN_POINT('',(156.000002324581,-91.1250003129244,10.51));
#1263=CARTESIAN_POINT('',(156.000002324581,-42.0000006258488,12.51));
#1264=CARTESIAN_POINT('',(156.000002324581,-91.1250003129244,12.51));
#1265=CARTESIAN_POINT('',(156.000002324581,-42.0000006258488,12.51));
#1266=CARTESIAN_POINT('Origin',(118.000001758337,-42.0000006258488,12.51));
#1267=CARTESIAN_POINT('',(153.000000879169,-42.0000006258488,10.51));
#1268=CARTESIAN_POINT('',(112.500000879169,-42.0000006258488,12.51));
#1269=CARTESIAN_POINT('Origin',(117.586369166711,-104.888085369343,12.51));
#1270=CARTESIAN_POINT('',(117.586369166711,-59.4231732170512,10.51));
#1271=CARTESIAN_POINT('',(117.586369166711,-104.888085369343,10.51));
#1272=CARTESIAN_POINT('',(117.586369166711,-122.569042684672,10.51));
#1273=CARTESIAN_POINT('',(117.586369166711,-59.4231732170512,12.51));
#1274=CARTESIAN_POINT('',(117.586369166711,-59.4231732170512,12.51));
#1275=CARTESIAN_POINT('',(117.586369166711,-104.888085369343,12.51));
#1276=CARTESIAN_POINT('',(117.586369166711,-122.569042684672,12.51));
#1277=CARTESIAN_POINT('',(117.586369166711,-104.888085369343,12.51));
#1278=CARTESIAN_POINT('Origin',(163.450851149381,-104.888085369343,12.51));
#1279=CARTESIAN_POINT('',(163.450851149381,-104.888085369343,10.51));
#1280=CARTESIAN_POINT('',(175.725425574691,-104.888085369343,10.51));
#1281=CARTESIAN_POINT('',(163.450851149381,-104.888085369343,12.51));
#1282=CARTESIAN_POINT('',(135.225425574691,-104.888085369343,12.51));
#1283=CARTESIAN_POINT('',(163.450851149381,-104.888085369343,12.51));
#1284=CARTESIAN_POINT('Origin',(163.450851149381,-59.4231732170512,12.51));
#1285=CARTESIAN_POINT('',(163.450851149381,-59.4231732170512,10.51));
#1286=CARTESIAN_POINT('',(163.450851149381,-99.8365866085256,10.51));
#1287=CARTESIAN_POINT('',(163.450851149381,-59.4231732170512,12.51));
#1288=CARTESIAN_POINT('',(163.450851149381,-99.8365866085256,12.51));
#1289=CARTESIAN_POINT('',(163.450851149381,-59.4231732170512,12.51));
#1290=CARTESIAN_POINT('Origin',(117.586369166711,-59.4231732170512,12.51));
#1291=CARTESIAN_POINT('',(152.793184583355,-59.4231732170512,10.51));
#1292=CARTESIAN_POINT('',(112.293184583355,-59.4231732170512,12.51));
#1293=CARTESIAN_POINT('Origin',(188.,-140.25,12.51));
#1294=CARTESIAN_POINT('',(188.,-140.25,10.51));
#1295=CARTESIAN_POINT('',(188.,-140.25,12.51));
#1296=CARTESIAN_POINT('',(188.,-140.25,10.51));
#1297=CARTESIAN_POINT('',(188.,-40.,10.51));
#1298=CARTESIAN_POINT('',(188.,-140.25,10.51));
#1299=CARTESIAN_POINT('',(188.,-40.,12.51));
#1300=CARTESIAN_POINT('',(188.,-40.,10.51));
#1301=CARTESIAN_POINT('',(188.,-140.25,12.51));
#1302=CARTESIAN_POINT('Origin',(107.,-140.25,12.51));
#1303=CARTESIAN_POINT('',(107.,-140.25,12.51));
#1304=CARTESIAN_POINT('',(188.,-140.25,12.51));
#1305=CARTESIAN_POINT('',(107.,-40.,12.51));
#1306=CARTESIAN_POINT('',(188.,-40.,12.51));
#1307=CARTESIAN_POINT('',(107.,-140.25,12.51));
#1308=CARTESIAN_POINT('Origin',(107.,-140.25,10.51));
#1309=CARTESIAN_POINT('',(107.,-140.25,10.51));
#1310=CARTESIAN_POINT('',(107.,-140.25,10.51));
#1311=CARTESIAN_POINT('',(107.,-40.,10.51));
#1312=CARTESIAN_POINT('',(107.,-40.,10.51));
#1313=CARTESIAN_POINT('',(107.,-140.25,10.51));
#1314=CARTESIAN_POINT('Origin',(188.,-140.25,10.51));
#1315=CARTESIAN_POINT('',(188.,-140.25,10.51));
#1316=CARTESIAN_POINT('',(188.,-40.,10.51));
#1317=CARTESIAN_POINT('Origin',(188.,-40.,10.51));
#1318=CARTESIAN_POINT('Origin',(188.,-140.25,10.51));
#1319=CARTESIAN_POINT('Origin',(117.5,-132.5,12.51));
#1320=CARTESIAN_POINT('',(117.5,-132.5,12.51));
#1321=CARTESIAN_POINT('',(117.5,-112.5,12.51));
#1322=CARTESIAN_POINT('',(117.5,-132.5,12.51));
#1323=CARTESIAN_POINT('',(117.5,-112.5,15.01));
#1324=CARTESIAN_POINT('',(117.5,-112.5,12.51));
#1325=CARTESIAN_POINT('',(117.5,-132.5,15.01));
#1326=CARTESIAN_POINT('',(117.5,-132.5,15.01));
#1327=CARTESIAN_POINT('',(117.5,-132.5,12.51));
#1328=CARTESIAN_POINT('Origin',(182.5,-132.5,12.51));
#1329=CARTESIAN_POINT('',(182.5,-132.5,12.51));
#1330=CARTESIAN_POINT('',(182.5,-132.5,12.51));
#1331=CARTESIAN_POINT('',(182.5,-132.5,15.01));
#1332=CARTESIAN_POINT('',(182.5,-132.5,15.01));
#1333=CARTESIAN_POINT('',(182.5,-132.5,12.51));
#1334=CARTESIAN_POINT('Origin',(182.5,-67.9383955659999,12.51));
#1335=CARTESIAN_POINT('',(182.5,-67.9383955659999,12.51));
#1336=CARTESIAN_POINT('',(182.5,-110.,12.51));
#1337=CARTESIAN_POINT('',(182.5,-67.9383955659999,15.01));
#1338=CARTESIAN_POINT('',(182.5,-110.,15.01));
#1339=CARTESIAN_POINT('',(182.5,-67.9383955659999,12.51));
#1340=CARTESIAN_POINT('Origin',(170.344229293642,-67.9383955659999,12.51));
#1341=CARTESIAN_POINT('',(170.344229293642,-67.9383955659999,12.51));
#1342=CARTESIAN_POINT('',(170.344229293642,-67.9383955659999,12.51));
#1343=CARTESIAN_POINT('',(170.344229293642,-67.9383955659999,15.01));
#1344=CARTESIAN_POINT('',(170.344229293642,-67.9383955659999,15.01));
#1345=CARTESIAN_POINT('',(170.344229293642,-67.9383955659999,12.51));
#1346=CARTESIAN_POINT('Origin',(170.344229293642,-112.5,12.51));
#1347=CARTESIAN_POINT('',(170.344229293642,-112.5,12.51));
#1348=CARTESIAN_POINT('',(170.344229293642,-112.5,12.51));
#1349=CARTESIAN_POINT('',(170.344229293642,-112.5,15.01));
#1350=CARTESIAN_POINT('',(170.344229293642,-112.5,15.01));
#1351=CARTESIAN_POINT('',(170.344229293642,-112.5,12.51));
#1352=CARTESIAN_POINT('Origin',(117.5,-112.5,12.51));
#1353=CARTESIAN_POINT('',(117.5,-112.5,12.51));
#1354=CARTESIAN_POINT('',(117.5,-112.5,15.01));
#1355=CARTESIAN_POINT('Origin',(167.844229293642,-65.4383955659999,12.51));
#1356=CARTESIAN_POINT('',(167.844229293642,-110.,12.51));
#1357=CARTESIAN_POINT('',(167.844229293642,-65.4383955659999,12.51));
#1358=CARTESIAN_POINT('',(167.844229293642,-110.,12.51));
#1359=CARTESIAN_POINT('',(167.844229293642,-110.,15.01));
#1360=CARTESIAN_POINT('',(167.844229293642,-110.,12.51));
#1361=CARTESIAN_POINT('',(167.844229293642,-65.4383955659999,15.01));
#1362=CARTESIAN_POINT('',(167.844229293642,-110.,15.01));
#1363=CARTESIAN_POINT('',(167.844229293642,-65.4383955659999,12.51));
#1364=CARTESIAN_POINT('Origin',(185.,-65.4383955659999,12.51));
#1365=CARTESIAN_POINT('',(185.,-65.4383955659999,12.51));
#1366=CARTESIAN_POINT('',(167.844229293642,-65.4383955659999,12.51));
#1367=CARTESIAN_POINT('',(185.,-65.4383955659999,15.01));
#1368=CARTESIAN_POINT('',(167.844229293642,-65.4383955659999,15.01));
#1369=CARTESIAN_POINT('',(185.,-65.4383955659999,12.51));
#1370=CARTESIAN_POINT('Origin',(185.,-135.,12.51));
#1371=CARTESIAN_POINT('',(185.,-135.,12.51));
#1372=CARTESIAN_POINT('',(185.,-110.,12.51));
#1373=CARTESIAN_POINT('',(185.,-135.,15.01));
#1374=CARTESIAN_POINT('',(185.,-110.,15.01));
#1375=CARTESIAN_POINT('',(185.,-135.,12.51));
#1376=CARTESIAN_POINT('Origin',(115.,-135.,12.51));
#1377=CARTESIAN_POINT('',(115.,-135.,12.51));
#1378=CARTESIAN_POINT('',(185.,-135.,12.51));
#1379=CARTESIAN_POINT('',(115.,-135.,15.01));
#1380=CARTESIAN_POINT('',(185.,-135.,15.01));
#1381=CARTESIAN_POINT('',(115.,-135.,12.51));
#1382=CARTESIAN_POINT('Origin',(115.,-110.,12.51));
#1383=CARTESIAN_POINT('',(115.,-110.,12.51));
#1384=CARTESIAN_POINT('',(115.,-135.,12.51));
#1385=CARTESIAN_POINT('',(115.,-110.,15.01));
#1386=CARTESIAN_POINT('',(115.,-135.,15.01));
#1387=CARTESIAN_POINT('',(115.,-110.,12.51));
#1388=CARTESIAN_POINT('Origin',(167.844229293642,-110.,12.51));
#1389=CARTESIAN_POINT('',(115.,-110.,12.51));
#1390=CARTESIAN_POINT('',(115.,-110.,15.01));
#1391=CARTESIAN_POINT('Origin',(150.,-100.219197783,15.01));
#1392=CARTESIAN_POINT('Origin',(150.,-100.219197783,12.51));
#1393=UNCERTAINTY_MEASURE_WITH_UNIT(LENGTH_MEASURE(0.01),#1397,
'DISTANCE_ACCURACY_VALUE',
'Maximum model space distance between geometric entities at asserted c
onnectivities');
#1394=UNCERTAINTY_MEASURE_WITH_UNIT(LENGTH_MEASURE(0.01),#1397,
'DISTANCE_ACCURACY_VALUE',
'Maximum model space distance between geometric entities at asserted c
onnectivities');
#1395=(
GEOMETRIC_REPRESENTATION_CONTEXT(3)
GLOBAL_UNCERTAINTY_ASSIGNED_CONTEXT((#1393))
GLOBAL_UNIT_ASSIGNED_CONTEXT((#1397,#1398,#1399))
REPRESENTATION_CONTEXT('','3D')
);
#1396=(
GEOMETRIC_REPRESENTATION_CONTEXT(3)
GLOBAL_UNCERTAINTY_ASSIGNED_CONTEXT((#1394))
GLOBAL_UNIT_ASSIGNED_CONTEXT((#1397,#1398,#1399))
REPRESENTATION_CONTEXT('','3D')
);
#1397=(
LENGTH_UNIT()
NAMED_UNIT(*)
SI_UNIT(.MILLI.,.METRE.)
);
#1398=(
NAMED_UNIT(*)
PLANE_ANGLE_UNIT()
SI_UNIT($,.RADIAN.)
);
#1399=(
NAMED_UNIT(*)
SI_UNIT($,.STERADIAN.)
SOLID_ANGLE_UNIT()
);
#1400=SHAPE_DEFINITION_REPRESENTATION(#1401,#1402);
#1401=PRODUCT_DEFINITION_SHAPE('',$,#1404);
#1402=SHAPE_REPRESENTATION('',(#889),#1395);
#1403=PRODUCT_DEFINITION_CONTEXT('part definition',#1408,'design');
#1404=PRODUCT_DEFINITION('DreamPad 1','DreamPad',#1405,#1403);
#1405=PRODUCT_DEFINITION_FORMATION('',$,#1410);
#1406=PRODUCT_RELATED_PRODUCT_CATEGORY('DreamPad','DreamPad',(#1410));
#1407=APPLICATION_PROTOCOL_DEFINITION('international standard',
'automotive_design',2009,#1408);
#1408=APPLICATION_CONTEXT(
'Core Data for Automotive Mechanical Design Process');
#1409=PRODUCT_CONTEXT('part definition',#1408,'mechanical');
#1410=PRODUCT('DreamPad 1','DreamPad','KiCad electronic assembly',(#1409));
#1411=PRESENTATION_STYLE_ASSIGNMENT((#1412));
#1412=SURFACE_STYLE_USAGE(.BOTH.,#1413);
#1413=SURFACE_SIDE_STYLE('',(#1414));
#1414=SURFACE_STYLE_FILL_AREA(#1415);
#1415=FILL_AREA_STYLE('Steel - Satin',(#1416));
#1416=FILL_AREA_STYLE_COLOUR('Steel - Satin',#1417);
#1417=COLOUR_RGB('Steel - Satin',0.627450980392157,0.627450980392157,0.627450980392157);
ENDSEC;
END-ISO-10303-21;
