%TF.GenerationSoftware,KiCad,Pcbnew,10.0.5*%
%TF.CreationDate,2026-09-12T15:58:33+05:30*%
%TF.ProjectId,DreamPad,44726561-6d50-4616-942e-6b696361645f,rev?*%
%TF.SameCoordinates,Original*%
%TF.FileFunction,Copper,L1,Top*%
%TF.FilePolarity,Positive*%
%FSLAX46Y46*%
G04 Gerber Fmt 4.6, Leading zero omitted, Abs format (unit mm)*
G04 Created by KiCad (PCBNEW 10.0.5) date 2026-09-12 15:58:33*
%MOMM*%
%LPD*%
G01*
G04 APERTURE LIST*
G04 Aperture macros list*
%AMRoundRect*
0 Rectangle with rounded corners*
0 $1 Rounding radius*
0 $2 $3 $4 $5 $6 $7 $8 $9 X,Y pos of 4 corners*
0 Add a 4 corners polygon primitive as box body*
4,1,4,$2,$3,$4,$5,$6,$7,$8,$9,$2,$3,0*
0 Add four circle primitives for the rounded corners*
1,1,$1+$1,$2,$3*
1,1,$1+$1,$4,$5*
1,1,$1+$1,$6,$7*
1,1,$1+$1,$8,$9*
0 Add four rect primitives between the rounded corners*
20,1,$1+$1,$2,$3,$4,$5,0*
20,1,$1+$1,$4,$5,$6,$7,0*
20,1,$1+$1,$6,$7,$8,$9,0*
20,1,$1+$1,$8,$9,$2,$3,0*%
G04 Aperture macros list end*
%TA.AperFunction,ComponentPad*%
%ADD10RoundRect,0.250000X-0.550000X-0.550000X0.550000X-0.550000X0.550000X0.550000X-0.550000X0.550000X0*%
%TD*%
%TA.AperFunction,ComponentPad*%
%ADD11C,1.600000*%
%TD*%
%TA.AperFunction,ComponentPad*%
%ADD12R,2.000000X2.000000*%
%TD*%
%TA.AperFunction,ComponentPad*%
%ADD13C,2.000000*%
%TD*%
%TA.AperFunction,ComponentPad*%
%ADD14R,3.200000X2.000000*%
%TD*%
%TA.AperFunction,ComponentPad*%
%ADD15C,2.200000*%
%TD*%
%TA.AperFunction,ComponentPad*%
%ADD16R,1.700000X3.500000*%
%TD*%
%TA.AperFunction,ComponentPad*%
%ADD17O,1.700000X3.600000*%
%TD*%
%TA.AperFunction,ComponentPad*%
%ADD18O,1.700000X3.700000*%
%TD*%
%TA.AperFunction,ComponentPad*%
%ADD19R,1.700000X1.700000*%
%TD*%
%TA.AperFunction,ComponentPad*%
%ADD20C,1.700000*%
%TD*%
%TA.AperFunction,ViaPad*%
%ADD21C,0.600000*%
%TD*%
%TA.AperFunction,Conductor*%
%ADD22C,0.200000*%
%TD*%
G04 APERTURE END LIST*
D10*
%TO.P,D6,1,K_1*%
%TO.N,Row 2*%
X173380000Y-83250000D03*
D11*
%TO.P,D6,2,A_2*%
%TO.N,Net-(D6-A)*%
X181000000Y-83250000D03*
%TD*%
D12*
%TO.P,SW13,A,A_A*%
%TO.N,Net-(U1-PA7_A8_D8_SCK)*%
X162000000Y-48000000D03*
D13*
%TO.P,SW13,B,B_B*%
%TO.N,Net-(U1-PA6_A10_D10_MOSI)*%
X162000000Y-53000000D03*
%TO.P,SW13,C,C_C*%
%TO.N,GND*%
X162000000Y-50500000D03*
D14*
%TO.P,SW13,MP*%
%TO.N,N/C*%
X169500000Y-44900000D03*
X169500000Y-56100000D03*
D13*
%TO.P,SW13,S1,S1_S1*%
%TO.N,Net-(U1-PA5_A9_D9_MISO)*%
X176500000Y-53000000D03*
%TO.P,SW13,S2,S2_S2*%
%TO.N,GND*%
X176500000Y-48000000D03*
%TD*%
D15*
%TO.P,SW11,1,1_1*%
%TO.N,Column 2*%
X158200000Y-92330000D03*
%TO.P,SW11,2,2_2*%
%TO.N,Net-(D9-A)*%
X151850000Y-94870000D03*
%TD*%
D10*
%TO.P,D3,1,K_1*%
%TO.N,Row 2*%
X163630000Y-83250000D03*
D11*
%TO.P,D3,2,A_2*%
%TO.N,Net-(D3-A)*%
X171250000Y-83250000D03*
%TD*%
D10*
%TO.P,D4,1,K_1*%
%TO.N,Row 0*%
X174500000Y-61500000D03*
D11*
%TO.P,D4,2,A_2*%
%TO.N,Net-(D4-A)*%
X182120000Y-61500000D03*
%TD*%
D15*
%TO.P,SW9,1,1_1*%
%TO.N,Column 0*%
X158200000Y-62150000D03*
%TO.P,SW9,2,2_2*%
%TO.N,Net-(D3-A)*%
X151850000Y-64690000D03*
%TD*%
D10*
%TO.P,D1,1,K_1*%
%TO.N,Row 0*%
X164780000Y-61460000D03*
D11*
%TO.P,D1,2,A_2*%
%TO.N,Net-(D1-A)*%
X172400000Y-61460000D03*
%TD*%
D10*
%TO.P,D5,1,K_1*%
%TO.N,Row 1*%
X174500000Y-71750000D03*
D11*
%TO.P,D5,2,A_2*%
%TO.N,Net-(D5-A)*%
X182120000Y-71750000D03*
%TD*%
D10*
%TO.P,D7,1,K_1*%
%TO.N,Row 0*%
X170190000Y-66000000D03*
D11*
%TO.P,D7,2,A_2*%
%TO.N,Net-(D7-A)*%
X177810000Y-66000000D03*
%TD*%
D10*
%TO.P,D2,1,K_1*%
%TO.N,Row 1*%
X164130000Y-72000000D03*
D11*
%TO.P,D2,2,A_2*%
%TO.N,Net-(D2-A)*%
X171750000Y-72000000D03*
%TD*%
D15*
%TO.P,SW2,1,1_1*%
%TO.N,Column 1*%
X128020000Y-77240000D03*
%TO.P,SW2,2,2_2*%
%TO.N,Net-(D4-A)*%
X121670000Y-79780000D03*
%TD*%
%TO.P,SW5,1,1_1*%
%TO.N,Column 0*%
X143110000Y-62150000D03*
%TO.P,SW5,2,2_2*%
%TO.N,Net-(D2-A)*%
X136760000Y-64690000D03*
%TD*%
D10*
%TO.P,D8,1,K_1*%
%TO.N,Row 1*%
X169630000Y-77250000D03*
D11*
%TO.P,D8,2,A_2*%
%TO.N,Net-(D8-A)*%
X177250000Y-77250000D03*
%TD*%
D10*
%TO.P,D9,1,K_1*%
%TO.N,Row 2*%
X169130000Y-89000000D03*
D11*
%TO.P,D9,2,A_2*%
%TO.N,Net-(D9-A)*%
X176750000Y-89000000D03*
%TD*%
D15*
%TO.P,SW3,1,1_1*%
%TO.N,Column 2*%
X128020000Y-92330000D03*
%TO.P,SW3,2,2_2*%
%TO.N,Net-(D7-A)*%
X121670000Y-94870000D03*
%TD*%
%TO.P,SW6,1,1_1*%
%TO.N,Column 1*%
X143110000Y-77240000D03*
%TO.P,SW6,2,2_2*%
%TO.N,Net-(D5-A)*%
X136760000Y-79780000D03*
%TD*%
%TO.P,SW7,1,1_1*%
%TO.N,Column 2*%
X143110000Y-92330000D03*
%TO.P,SW7,2,2_2*%
%TO.N,Net-(D8-A)*%
X136760000Y-94870000D03*
%TD*%
%TO.P,SW10,1,1_1*%
%TO.N,Column 1*%
X158200000Y-77240000D03*
%TO.P,SW10,2,2_2*%
%TO.N,Net-(D6-A)*%
X151850000Y-79780000D03*
%TD*%
%TO.P,SW1,1,1_1*%
%TO.N,Column 0*%
X128020000Y-62150000D03*
%TO.P,SW1,2,2_2*%
%TO.N,Net-(D1-A)*%
X121670000Y-64690000D03*
%TD*%
D16*
%TO.P,U1,1,PA02_A0_D0_1*%
%TO.N,Column 0*%
X113630000Y-125875000D03*
D17*
%TO.P,U1,2,PA4_A1_D1_2*%
%TO.N,Column 1*%
X116170000Y-125875000D03*
%TO.P,U1,3,PA10_A2_D2_3*%
%TO.N,Column 2*%
X118710000Y-125875000D03*
%TO.P,U1,4,PA11_A3_D3_4*%
%TO.N,Row 0*%
X121250000Y-125875000D03*
%TO.P,U1,5,PA8_A4_D4_SDA_5*%
%TO.N,SDA*%
X123790000Y-125875000D03*
%TO.P,U1,6,PA9_A5_D5_SCL_6*%
%TO.N,SCL*%
X126330000Y-125875000D03*
%TO.P,U1,7,PB08_A6_D6_TX_7*%
%TO.N,Row 1*%
X128870000Y-125875000D03*
%TO.P,U1,8,PB09_A7_D7_RX_8*%
%TO.N,Row 2*%
X128870000Y-108625000D03*
%TO.P,U1,9,PA7_A8_D8_SCK_9*%
%TO.N,Net-(U1-PA7_A8_D8_SCK)*%
X126330000Y-108625000D03*
%TO.P,U1,10,PA5_A9_D9_MISO_10*%
%TO.N,Net-(U1-PA5_A9_D9_MISO)*%
X123790000Y-108625000D03*
D18*
%TO.P,U1,11,PA6_A10_D10_MOSI_11*%
%TO.N,Net-(U1-PA6_A10_D10_MOSI)*%
X121250000Y-108625000D03*
%TO.P,U1,12,3V3_12*%
%TO.N,+3.3V*%
X118710000Y-108625000D03*
%TO.P,U1,13,GND_13*%
%TO.N,GND*%
X116170000Y-108625000D03*
%TO.P,U1,14,5V_14*%
%TO.N,Net-(J1-Pin_3)*%
X113630000Y-108625000D03*
%TD*%
D19*
%TO.P,J1,1,Pin_1_1*%
%TO.N,SDA*%
X119000000Y-45750000D03*
D20*
%TO.P,J1,2,Pin_2_2*%
%TO.N,SCL*%
X119000000Y-48290000D03*
%TO.P,J1,3,Pin_3_3*%
%TO.N,Net-(J1-Pin_3)*%
X119000000Y-50830000D03*
%TO.P,J1,4,Pin_4_4*%
%TO.N,GND*%
X119000000Y-53370000D03*
%TD*%
D21*
%TO.N,Row 1*%
X170557810Y-79055464D03*
%TO.N,Net-(D8-A)*%
X169250000Y-84250000D03*
%TO.N,SCL*%
X116250000Y-55000000D03*
X115183359Y-106703483D03*
%TD*%
%TO.N,Row 2*%
D22*
X158779899Y-93730000D02*
X157620101Y-93730000D01*
X163630000Y-83250000D02*
X163630000Y-88879899D01*
X131678402Y-109625000D02*
X128870000Y-109625000D01*
X163630000Y-88879899D02*
X158779899Y-93730000D01*
X156620101Y-92730000D02*
X148573402Y-92730000D01*
X157620101Y-93730000D02*
X156620101Y-92730000D01*
X148573402Y-92730000D02*
X131678402Y-109625000D01*
X169130000Y-87500000D02*
X173380000Y-83250000D01*
X169130000Y-87444365D02*
X169130000Y-89000000D01*
X169130000Y-89000000D02*
X169130000Y-87500000D01*
X164935635Y-83250000D02*
X169130000Y-87444365D01*
X163630000Y-83250000D02*
X164935635Y-83250000D01*
%TO.N,Net-(D6-A)*%
X177530000Y-79780000D02*
X151850000Y-79780000D01*
X181000000Y-83250000D02*
X177530000Y-79780000D01*
%TO.N,GND*%
X121750000Y-56120000D02*
X121750000Y-58500000D01*
X116000000Y-59000000D02*
X116500000Y-58500000D01*
X116500000Y-58500000D02*
X121750000Y-58500000D01*
X116170000Y-59170000D02*
X116000000Y-59000000D01*
X157250000Y-45750000D02*
X162000000Y-50500000D01*
X164500000Y-48000000D02*
X176500000Y-48000000D01*
X162000000Y-50500000D02*
X164500000Y-48000000D01*
X119000000Y-53370000D02*
X121750000Y-56120000D01*
X144130000Y-56120000D02*
X154500000Y-45750000D01*
X116170000Y-109625000D02*
X116170000Y-59170000D01*
X154500000Y-45750000D02*
X157250000Y-45750000D01*
X121750000Y-56120000D02*
X144130000Y-56120000D01*
%TO.N,Net-(U1-PA5_A9_D9_MISO)*%
X170500000Y-112250000D02*
X182750000Y-100000000D01*
X134069087Y-112250000D02*
X170500000Y-112250000D01*
X130020000Y-110025000D02*
X131844087Y-110025000D01*
X127480000Y-109750000D02*
X127720000Y-109750000D01*
X183500000Y-60000000D02*
X183500000Y-100000000D01*
X126806346Y-110725000D02*
X127480000Y-110051346D01*
X127720000Y-110051346D02*
X128393654Y-110725000D01*
X123790000Y-109625000D02*
X124500000Y-110335000D01*
X129346346Y-110725000D02*
X130020000Y-110051346D01*
X127480000Y-110051346D02*
X127480000Y-109750000D01*
X124500000Y-110335000D02*
X124500000Y-109750000D01*
X131844087Y-110025000D02*
X134069087Y-112250000D01*
X125853654Y-110725000D02*
X126806346Y-110725000D01*
X176500000Y-53000000D02*
X183500000Y-60000000D01*
X125180000Y-109750000D02*
X125180000Y-110051346D01*
X125180000Y-110051346D02*
X125853654Y-110725000D01*
X124500000Y-109750000D02*
X125180000Y-109750000D01*
X182750000Y-100000000D02*
X183500000Y-100000000D01*
X130020000Y-110051346D02*
X130020000Y-110025000D01*
X127720000Y-109750000D02*
X127720000Y-110051346D01*
X128393654Y-110725000D02*
X129346346Y-110725000D01*
%TO.N,Column 2*%
X128020000Y-92330000D02*
X158200000Y-92330000D01*
%TO.N,Net-(D9-A)*%
X151850000Y-94870000D02*
X170880000Y-94870000D01*
X170880000Y-94870000D02*
X176750000Y-89000000D01*
%TO.N,Row 0*%
X125364416Y-58450000D02*
X173900430Y-58450000D01*
X165650000Y-61460000D02*
X170190000Y-66000000D01*
X170190000Y-65810000D02*
X174500000Y-61500000D01*
X170190000Y-66000000D02*
X170190000Y-65810000D01*
X119200000Y-94379899D02*
X119200000Y-64614416D01*
X171290000Y-67100000D02*
X170190000Y-66000000D01*
X178910000Y-66455635D02*
X178265635Y-67100000D01*
X178910000Y-63459570D02*
X178910000Y-66455635D01*
X121250000Y-124875000D02*
X122640000Y-123485000D01*
X178265635Y-67100000D02*
X171290000Y-67100000D01*
X122640000Y-97819899D02*
X119200000Y-94379899D01*
X119200000Y-64614416D02*
X125364416Y-58450000D01*
X173900430Y-58450000D02*
X178910000Y-63459570D01*
X164780000Y-61460000D02*
X165650000Y-61460000D01*
X122640000Y-123485000D02*
X122640000Y-97819899D01*
%TO.N,Column 0*%
X128020000Y-62150000D02*
X158200000Y-62150000D01*
%TO.N,Net-(D1-A)*%
X155040000Y-63290000D02*
X143949899Y-63290000D01*
X171000000Y-59250000D02*
X163750000Y-59250000D01*
X137599899Y-63550000D02*
X137339899Y-63290000D01*
X171000000Y-60060000D02*
X171000000Y-59250000D01*
X128859899Y-63290000D02*
X127459899Y-64690000D01*
X137339899Y-63290000D02*
X128859899Y-63290000D01*
X163750000Y-59250000D02*
X159000000Y-64000000D01*
X127459899Y-64690000D02*
X121670000Y-64690000D01*
X172400000Y-61460000D02*
X171000000Y-60060000D01*
X143689899Y-63550000D02*
X137599899Y-63550000D01*
X143949899Y-63290000D02*
X143689899Y-63550000D01*
X155750000Y-64000000D02*
X155040000Y-63290000D01*
X159000000Y-64000000D02*
X155750000Y-64000000D01*
%TO.N,Row 1*%
X183900000Y-58561522D02*
X177038478Y-51700000D01*
X128870000Y-124875000D02*
X141095000Y-112650000D01*
X183665685Y-100400000D02*
X183900000Y-100165685D01*
X175200000Y-52461522D02*
X175200000Y-59183884D01*
X169630000Y-75370000D02*
X170750000Y-74250000D01*
X179310000Y-63293885D02*
X179310000Y-66940000D01*
X174250000Y-74250000D02*
X174500000Y-74000000D01*
X170750000Y-74250000D02*
X174250000Y-74250000D01*
X156794415Y-78380000D02*
X157469879Y-79055464D01*
X179310000Y-66940000D02*
X171900000Y-74350000D01*
X157469879Y-79055464D02*
X170557810Y-79055464D01*
X174500000Y-74000000D02*
X174500000Y-71750000D01*
X127440101Y-78640000D02*
X128599899Y-78640000D01*
X126620000Y-76660101D02*
X126620000Y-77819899D01*
X183900000Y-100165685D02*
X183900000Y-58561522D01*
X177038478Y-51700000D02*
X175961522Y-51700000D01*
X175200000Y-59183884D02*
X179310000Y-63293885D01*
X128930101Y-74350000D02*
X126620000Y-76660101D01*
X169380000Y-77250000D02*
X169630000Y-77250000D01*
X126620000Y-77819899D02*
X127440101Y-78640000D01*
X169630000Y-77250000D02*
X169630000Y-75370000D01*
X141095000Y-112650000D02*
X170665686Y-112650000D01*
X164130000Y-72000000D02*
X169380000Y-77250000D01*
X182915686Y-100400000D02*
X183665685Y-100400000D01*
X175961522Y-51700000D02*
X175200000Y-52461522D01*
X141602944Y-84670000D02*
X147892944Y-78380000D01*
X147892944Y-78380000D02*
X156794415Y-78380000D01*
X128599899Y-78640000D02*
X134629899Y-84670000D01*
X134629899Y-84670000D02*
X141602944Y-84670000D01*
X171900000Y-74350000D02*
X128930101Y-74350000D01*
X170665686Y-112650000D02*
X182915686Y-100400000D01*
%TO.N,Net-(D5-A)*%
X144510000Y-77819899D02*
X156800000Y-77819899D01*
X171000000Y-75250000D02*
X171500000Y-74750000D01*
X136760000Y-79780000D02*
X142549899Y-79780000D01*
X157620101Y-78640000D02*
X170124744Y-78640000D01*
X179120000Y-74750000D02*
X182120000Y-71750000D01*
X171000000Y-77764744D02*
X171000000Y-75250000D01*
X170124744Y-78640000D02*
X171000000Y-77764744D01*
X171500000Y-74750000D02*
X179120000Y-74750000D01*
X156800000Y-77819899D02*
X157620101Y-78640000D01*
X142549899Y-79780000D02*
X144510000Y-77819899D01*
%TO.N,Net-(D7-A)*%
X177810000Y-62925256D02*
X173734744Y-58850000D01*
X120270000Y-64110101D02*
X120270000Y-65269899D01*
X123130000Y-68129899D02*
X123130000Y-93410000D01*
X125530101Y-58850000D02*
X120270000Y-64110101D01*
X120270000Y-65269899D02*
X123130000Y-68129899D01*
X177810000Y-66000000D02*
X177810000Y-62925256D01*
X173734744Y-58850000D02*
X125530101Y-58850000D01*
X123130000Y-93410000D02*
X121670000Y-94870000D01*
%TO.N,Net-(D2-A)*%
X152552944Y-70900000D02*
X170650000Y-70900000D01*
X136760000Y-64690000D02*
X146342944Y-64690000D01*
X146342944Y-64690000D02*
X152552944Y-70900000D01*
X170650000Y-70900000D02*
X171750000Y-72000000D01*
%TO.N,Column 1*%
X128020000Y-77240000D02*
X158200000Y-77240000D01*
%TO.N,Net-(D8-A)*%
X169250000Y-83694365D02*
X172764365Y-80180000D01*
X182100000Y-83705635D02*
X182100000Y-82100000D01*
X179170000Y-84350000D02*
X181455635Y-84350000D01*
X182100000Y-82100000D02*
X177250000Y-77250000D01*
X181455635Y-84350000D02*
X182100000Y-83705635D01*
X172764365Y-80180000D02*
X175000000Y-80180000D01*
X169250000Y-84250000D02*
X169250000Y-83694365D01*
X175000000Y-80180000D02*
X179170000Y-84350000D01*
%TO.N,SDA*%
X121250000Y-48000000D02*
X119000000Y-45750000D01*
X112750000Y-57080000D02*
X112750000Y-106878654D01*
X113153654Y-110775000D02*
X112750000Y-110371346D01*
X114780000Y-107148654D02*
X114780000Y-110101346D01*
X114780000Y-110101346D02*
X114106346Y-110775000D01*
X117830000Y-52000000D02*
X121250000Y-52000000D01*
X124000000Y-125085000D02*
X123790000Y-124875000D01*
X112750000Y-57080000D02*
X117830000Y-52000000D01*
X124000000Y-129750000D02*
X124000000Y-125085000D01*
X114106346Y-106475000D02*
X114780000Y-107148654D01*
X112750000Y-110371346D02*
X112750000Y-112250000D01*
X111250000Y-113750000D02*
X111250000Y-129000000D01*
X111250000Y-129000000D02*
X112000000Y-129750000D01*
X121250000Y-52000000D02*
X121250000Y-48000000D01*
X112750000Y-112250000D02*
X111250000Y-113750000D01*
X112000000Y-129750000D02*
X124000000Y-129750000D01*
X113153654Y-106475000D02*
X114106346Y-106475000D01*
X112750000Y-106878654D02*
X113153654Y-106475000D01*
X114106346Y-110775000D02*
X113153654Y-110775000D01*
%TO.N,SCL*%
X113750000Y-105270124D02*
X113750000Y-57500000D01*
X115183359Y-106703483D02*
X113750000Y-105270124D01*
X113750000Y-57500000D02*
X116250000Y-55000000D01*
%TO.N,Net-(J1-Pin_3)*%
X112505000Y-108500000D02*
X113630000Y-109625000D01*
X111250000Y-108500000D02*
X112505000Y-108500000D01*
X111250000Y-56040000D02*
X116460000Y-50830000D01*
X116460000Y-50830000D02*
X119000000Y-50830000D01*
X111250000Y-56040000D02*
X111250000Y-108500000D01*
%TD*%
M02*
