M48
; DRILL file KiCad 10.0.5 date 2026-09-12T15:58:30
; FORMAT={-:-/ absolute / metric / decimal}
; #@! TF.CreationDate,2026-09-12T15:58:30+05:30
; #@! TF.GenerationSoftware,Kicad,Pcbnew,10.0.5
; #@! TF.FileFunction,Plated,1,2,PTH
FMAT,2
METRIC
; #@! TA.AperFunction,Plated,PTH,ViaDrill
T1C0.300
; #@! TA.AperFunction,Plated,PTH,ComponentDrill
T2C0.800
; #@! TA.AperFunction,Plated,PTH,ComponentDrill
T3C1.000
; #@! TA.AperFunction,Plated,PTH,ComponentDrill
T4C1.500
%
G90
G05
T1
X115.183Y-106.703
X116.25Y-55.0
X169.25Y-84.25
X170.558Y-79.055
T2
X163.63Y-83.25
X164.13Y-72.0
X164.78Y-61.46
X169.13Y-89.0
X169.63Y-77.25
X170.19Y-66.0
X171.25Y-83.25
X171.75Y-72.0
X172.4Y-61.46
X173.38Y-83.25
X174.5Y-61.5
X174.5Y-71.75
X176.75Y-89.0
X177.25Y-77.25
X177.81Y-66.0
X181.0Y-83.25
X182.12Y-61.5
X182.12Y-71.75
T3
X113.63Y-109.625
X113.63Y-124.875
X116.17Y-109.625
X116.17Y-124.875
X118.71Y-109.625
X118.71Y-124.875
X119.0Y-45.75
X119.0Y-48.29
X119.0Y-50.83
X119.0Y-53.37
X121.25Y-109.625
X121.25Y-124.875
X123.79Y-109.625
X123.79Y-124.875
X126.33Y-109.625
X126.33Y-124.875
X128.87Y-109.625
X128.87Y-124.875
X162.0Y-48.0
X162.0Y-50.5
X162.0Y-53.0
X176.5Y-48.0
X176.5Y-53.0
T4
X121.67Y-64.69
X121.67Y-79.78
X121.67Y-94.87
X128.02Y-62.15
X128.02Y-77.24
X128.02Y-92.33
X136.76Y-64.69
X136.76Y-79.78
X136.76Y-94.87
X143.11Y-62.15
X143.11Y-77.24
X143.11Y-92.33
X151.85Y-64.69
X151.85Y-79.78
X151.85Y-94.87
X158.2Y-62.15
X158.2Y-77.24
X158.2Y-92.33
T4
G00X168.85Y-44.9
M15
G01X170.15Y-44.9
M16
G05
G00X168.85Y-56.1
M15
G01X170.15Y-56.1
M16
G05
M30
