%TF.GenerationSoftware,KiCad,Pcbnew,10.0.5*%
%TF.CreationDate,2026-09-12T15:58:33+05:30*%
%TF.ProjectId,DreamPad,44726561-6d50-4616-942e-6b696361645f,rev?*%
%TF.SameCoordinates,Original*%
%TF.FileFunction,Soldermask,Bot*%
%TF.FilePolarity,Negative*%
%FSLAX46Y46*%
G04 Gerber Fmt 4.6, Leading zero omitted, Abs format (unit mm)*
G04 Created by KiCad (PCBNEW 10.0.5) date 2026-09-12 15:58:33*
%MOMM*%
%LPD*%
G01*
G04 APERTURE LIST*
G04 Aperture macros list*
%AMRoundRect*
0 Rectangle with rounded corners*
0 $1 Rounding radius*
0 $2 $3 $4 $5 $6 $7 $8 $9 X,Y pos of 4 corners*
0 Add a 4 corners polygon primitive as box body*
4,1,4,$2,$3,$4,$5,$6,$7,$8,$9,$2,$3,0*
0 Add four circle primitives for the rounded corners*
1,1,$1+$1,$2,$3*
1,1,$1+$1,$4,$5*
1,1,$1+$1,$6,$7*
1,1,$1+$1,$8,$9*
0 Add four rect primitives between the rounded corners*
20,1,$1+$1,$2,$3,$4,$5,0*
20,1,$1+$1,$4,$5,$6,$7,0*
20,1,$1+$1,$6,$7,$8,$9,0*
20,1,$1+$1,$8,$9,$2,$3,0*%
G04 Aperture macros list end*
%ADD10RoundRect,0.250000X-0.550000X-0.550000X0.550000X-0.550000X0.550000X0.550000X-0.550000X0.550000X0*%
%ADD11C,1.600000*%
%ADD12R,2.000000X2.000000*%
%ADD13C,2.000000*%
%ADD14R,3.200000X2.000000*%
%ADD15C,1.700000*%
%ADD16C,4.000000*%
%ADD17C,2.200000*%
%ADD18C,3.200000*%
%ADD19R,1.700000X3.500000*%
%ADD20O,1.700000X3.600000*%
%ADD21O,1.700000X3.700000*%
%ADD22R,1.700000X1.700000*%
G04 APERTURE END LIST*
D10*
%TO.C,D6*%
X173380000Y-83250000D03*
D11*
X181000000Y-83250000D03*
%TD*%
D12*
%TO.C,SW13*%
X162000000Y-48000000D03*
D13*
X162000000Y-53000000D03*
X162000000Y-50500000D03*
D14*
X169500000Y-44900000D03*
X169500000Y-56100000D03*
D13*
X176500000Y-53000000D03*
X176500000Y-48000000D03*
%TD*%
D15*
%TO.C,SW11*%
X150580000Y-97410000D03*
D16*
X155660000Y-97410000D03*
D15*
X160740000Y-97410000D03*
D17*
X158200000Y-92330000D03*
X151850000Y-94870000D03*
%TD*%
D10*
%TO.C,D3*%
X163630000Y-83250000D03*
D11*
X171250000Y-83250000D03*
%TD*%
D18*
%TO.C,H4*%
X138250000Y-132750000D03*
%TD*%
D10*
%TO.C,D4*%
X174500000Y-61500000D03*
D11*
X182120000Y-61500000D03*
%TD*%
D18*
%TO.C,H1*%
X113000000Y-46500000D03*
%TD*%
D15*
%TO.C,SW9*%
X150580000Y-67230000D03*
D16*
X155660000Y-67230000D03*
D15*
X160740000Y-67230000D03*
D17*
X158200000Y-62150000D03*
X151850000Y-64690000D03*
%TD*%
D10*
%TO.C,D1*%
X164780000Y-61460000D03*
D11*
X172400000Y-61460000D03*
%TD*%
D18*
%TO.C,H2*%
X181750000Y-46750000D03*
%TD*%
D10*
%TO.C,D5*%
X174500000Y-71750000D03*
D11*
X182120000Y-71750000D03*
%TD*%
D10*
%TO.C,D7*%
X170190000Y-66000000D03*
D11*
X177810000Y-66000000D03*
%TD*%
D10*
%TO.C,D2*%
X164130000Y-72000000D03*
D11*
X171750000Y-72000000D03*
%TD*%
D18*
%TO.C,H3*%
X112750000Y-132500000D03*
%TD*%
%TO.C,H5*%
X182250000Y-110250000D03*
%TD*%
D15*
%TO.C,SW2*%
X120400000Y-82320000D03*
D16*
X125480000Y-82320000D03*
D15*
X130560000Y-82320000D03*
D17*
X128020000Y-77240000D03*
X121670000Y-79780000D03*
%TD*%
D15*
%TO.C,SW5*%
X135490000Y-67230000D03*
D16*
X140570000Y-67230000D03*
D15*
X145650000Y-67230000D03*
D17*
X143110000Y-62150000D03*
X136760000Y-64690000D03*
%TD*%
D10*
%TO.C,D8*%
X169630000Y-77250000D03*
D11*
X177250000Y-77250000D03*
%TD*%
D10*
%TO.C,D9*%
X169130000Y-89000000D03*
D11*
X176750000Y-89000000D03*
%TD*%
D15*
%TO.C,SW3*%
X120400000Y-97410000D03*
D16*
X125480000Y-97410000D03*
D15*
X130560000Y-97410000D03*
D17*
X128020000Y-92330000D03*
X121670000Y-94870000D03*
%TD*%
D15*
%TO.C,SW6*%
X135490000Y-82320000D03*
D16*
X140570000Y-82320000D03*
D15*
X145650000Y-82320000D03*
D17*
X143110000Y-77240000D03*
X136760000Y-79780000D03*
%TD*%
D15*
%TO.C,SW7*%
X135490000Y-97410000D03*
D16*
X140570000Y-97410000D03*
D15*
X145650000Y-97410000D03*
D17*
X143110000Y-92330000D03*
X136760000Y-94870000D03*
%TD*%
D15*
%TO.C,SW10*%
X150580000Y-82320000D03*
D16*
X155660000Y-82320000D03*
D15*
X160740000Y-82320000D03*
D17*
X158200000Y-77240000D03*
X151850000Y-79780000D03*
%TD*%
D15*
%TO.C,SW1*%
X120400000Y-67230000D03*
D16*
X125480000Y-67230000D03*
D15*
X130560000Y-67230000D03*
D17*
X128020000Y-62150000D03*
X121670000Y-64690000D03*
%TD*%
D19*
%TO.C,U1*%
X113630000Y-125875000D03*
D20*
X116170000Y-125875000D03*
X118710000Y-125875000D03*
X121250000Y-125875000D03*
X123790000Y-125875000D03*
X126330000Y-125875000D03*
X128870000Y-125875000D03*
X128870000Y-108625000D03*
X126330000Y-108625000D03*
X123790000Y-108625000D03*
D21*
X121250000Y-108625000D03*
X118710000Y-108625000D03*
X116170000Y-108625000D03*
X113630000Y-108625000D03*
%TD*%
D22*
%TO.C,J1*%
X119000000Y-45750000D03*
D15*
X119000000Y-48290000D03*
X119000000Y-50830000D03*
X119000000Y-53370000D03*
%TD*%
M02*
