%TF.GenerationSoftware,KiCad,Pcbnew,10.0.5*%
%TF.CreationDate,2026-09-12T15:58:33+05:30*%
%TF.ProjectId,DreamPad,44726561-6d50-4616-942e-6b696361645f,rev?*%
%TF.SameCoordinates,Original*%
%TF.FileFunction,Legend,Top*%
%TF.FilePolarity,Positive*%
%FSLAX46Y46*%
G04 Gerber Fmt 4.6, Leading zero omitted, Abs format (unit mm)*
G04 Created by KiCad (PCBNEW 10.0.5) date 2026-09-12 15:58:33*
%MOMM*%
%LPD*%
G01*
G04 APERTURE LIST*
%ADD10C,0.150000*%
%ADD11C,0.101600*%
%ADD12C,0.120000*%
%ADD13C,0.127000*%
%ADD14C,0.254000*%
%ADD15C,0.025400*%
G04 APERTURE END LIST*
D10*
X176451905Y-81584819D02*
X176451905Y-80584819D01*
X176451905Y-80584819D02*
X176690000Y-80584819D01*
X176690000Y-80584819D02*
X176832857Y-80632438D01*
X176832857Y-80632438D02*
X176928095Y-80727676D01*
X176928095Y-80727676D02*
X176975714Y-80822914D01*
X176975714Y-80822914D02*
X177023333Y-81013390D01*
X177023333Y-81013390D02*
X177023333Y-81156247D01*
X177023333Y-81156247D02*
X176975714Y-81346723D01*
X176975714Y-81346723D02*
X176928095Y-81441961D01*
X176928095Y-81441961D02*
X176832857Y-81537200D01*
X176832857Y-81537200D02*
X176690000Y-81584819D01*
X176690000Y-81584819D02*
X176451905Y-81584819D01*
X177880476Y-80584819D02*
X177690000Y-80584819D01*
X177690000Y-80584819D02*
X177594762Y-80632438D01*
X177594762Y-80632438D02*
X177547143Y-80680057D01*
X177547143Y-80680057D02*
X177451905Y-80822914D01*
X177451905Y-80822914D02*
X177404286Y-81013390D01*
X177404286Y-81013390D02*
X177404286Y-81394342D01*
X177404286Y-81394342D02*
X177451905Y-81489580D01*
X177451905Y-81489580D02*
X177499524Y-81537200D01*
X177499524Y-81537200D02*
X177594762Y-81584819D01*
X177594762Y-81584819D02*
X177785238Y-81584819D01*
X177785238Y-81584819D02*
X177880476Y-81537200D01*
X177880476Y-81537200D02*
X177928095Y-81489580D01*
X177928095Y-81489580D02*
X177975714Y-81394342D01*
X177975714Y-81394342D02*
X177975714Y-81156247D01*
X177975714Y-81156247D02*
X177928095Y-81061009D01*
X177928095Y-81061009D02*
X177880476Y-81013390D01*
X177880476Y-81013390D02*
X177785238Y-80965771D01*
X177785238Y-80965771D02*
X177594762Y-80965771D01*
X177594762Y-80965771D02*
X177499524Y-81013390D01*
X177499524Y-81013390D02*
X177451905Y-81061009D01*
X177451905Y-81061009D02*
X177404286Y-81156247D01*
X173118095Y-81904819D02*
X173118095Y-80904819D01*
X173689523Y-81904819D02*
X173260952Y-81333390D01*
X173689523Y-80904819D02*
X173118095Y-81476247D01*
X162990476Y-43707200D02*
X163133333Y-43754819D01*
X163133333Y-43754819D02*
X163371428Y-43754819D01*
X163371428Y-43754819D02*
X163466666Y-43707200D01*
X163466666Y-43707200D02*
X163514285Y-43659580D01*
X163514285Y-43659580D02*
X163561904Y-43564342D01*
X163561904Y-43564342D02*
X163561904Y-43469104D01*
X163561904Y-43469104D02*
X163514285Y-43373866D01*
X163514285Y-43373866D02*
X163466666Y-43326247D01*
X163466666Y-43326247D02*
X163371428Y-43278628D01*
X163371428Y-43278628D02*
X163180952Y-43231009D01*
X163180952Y-43231009D02*
X163085714Y-43183390D01*
X163085714Y-43183390D02*
X163038095Y-43135771D01*
X163038095Y-43135771D02*
X162990476Y-43040533D01*
X162990476Y-43040533D02*
X162990476Y-42945295D01*
X162990476Y-42945295D02*
X163038095Y-42850057D01*
X163038095Y-42850057D02*
X163085714Y-42802438D01*
X163085714Y-42802438D02*
X163180952Y-42754819D01*
X163180952Y-42754819D02*
X163419047Y-42754819D01*
X163419047Y-42754819D02*
X163561904Y-42802438D01*
X163895238Y-42754819D02*
X164133333Y-43754819D01*
X164133333Y-43754819D02*
X164323809Y-43040533D01*
X164323809Y-43040533D02*
X164514285Y-43754819D01*
X164514285Y-43754819D02*
X164752381Y-42754819D01*
X165657142Y-43754819D02*
X165085714Y-43754819D01*
X165371428Y-43754819D02*
X165371428Y-42754819D01*
X165371428Y-42754819D02*
X165276190Y-42897676D01*
X165276190Y-42897676D02*
X165180952Y-42992914D01*
X165180952Y-42992914D02*
X165085714Y-43040533D01*
X165990476Y-42754819D02*
X166609523Y-42754819D01*
X166609523Y-42754819D02*
X166276190Y-43135771D01*
X166276190Y-43135771D02*
X166419047Y-43135771D01*
X166419047Y-43135771D02*
X166514285Y-43183390D01*
X166514285Y-43183390D02*
X166561904Y-43231009D01*
X166561904Y-43231009D02*
X166609523Y-43326247D01*
X166609523Y-43326247D02*
X166609523Y-43564342D01*
X166609523Y-43564342D02*
X166561904Y-43659580D01*
X166561904Y-43659580D02*
X166514285Y-43707200D01*
X166514285Y-43707200D02*
X166419047Y-43754819D01*
X166419047Y-43754819D02*
X166133333Y-43754819D01*
X166133333Y-43754819D02*
X166038095Y-43707200D01*
X166038095Y-43707200D02*
X165990476Y-43659580D01*
X153850476Y-89943200D02*
X153993333Y-89990819D01*
X153993333Y-89990819D02*
X154231428Y-89990819D01*
X154231428Y-89990819D02*
X154326666Y-89943200D01*
X154326666Y-89943200D02*
X154374285Y-89895580D01*
X154374285Y-89895580D02*
X154421904Y-89800342D01*
X154421904Y-89800342D02*
X154421904Y-89705104D01*
X154421904Y-89705104D02*
X154374285Y-89609866D01*
X154374285Y-89609866D02*
X154326666Y-89562247D01*
X154326666Y-89562247D02*
X154231428Y-89514628D01*
X154231428Y-89514628D02*
X154040952Y-89467009D01*
X154040952Y-89467009D02*
X153945714Y-89419390D01*
X153945714Y-89419390D02*
X153898095Y-89371771D01*
X153898095Y-89371771D02*
X153850476Y-89276533D01*
X153850476Y-89276533D02*
X153850476Y-89181295D01*
X153850476Y-89181295D02*
X153898095Y-89086057D01*
X153898095Y-89086057D02*
X153945714Y-89038438D01*
X153945714Y-89038438D02*
X154040952Y-88990819D01*
X154040952Y-88990819D02*
X154279047Y-88990819D01*
X154279047Y-88990819D02*
X154421904Y-89038438D01*
X154755238Y-88990819D02*
X154993333Y-89990819D01*
X154993333Y-89990819D02*
X155183809Y-89276533D01*
X155183809Y-89276533D02*
X155374285Y-89990819D01*
X155374285Y-89990819D02*
X155612381Y-88990819D01*
X156517142Y-89990819D02*
X155945714Y-89990819D01*
X156231428Y-89990819D02*
X156231428Y-88990819D01*
X156231428Y-88990819D02*
X156136190Y-89133676D01*
X156136190Y-89133676D02*
X156040952Y-89228914D01*
X156040952Y-89228914D02*
X155945714Y-89276533D01*
X157469523Y-89990819D02*
X156898095Y-89990819D01*
X157183809Y-89990819D02*
X157183809Y-88990819D01*
X157183809Y-88990819D02*
X157088571Y-89133676D01*
X157088571Y-89133676D02*
X156993333Y-89228914D01*
X156993333Y-89228914D02*
X156898095Y-89276533D01*
X166701905Y-81584819D02*
X166701905Y-80584819D01*
X166701905Y-80584819D02*
X166940000Y-80584819D01*
X166940000Y-80584819D02*
X167082857Y-80632438D01*
X167082857Y-80632438D02*
X167178095Y-80727676D01*
X167178095Y-80727676D02*
X167225714Y-80822914D01*
X167225714Y-80822914D02*
X167273333Y-81013390D01*
X167273333Y-81013390D02*
X167273333Y-81156247D01*
X167273333Y-81156247D02*
X167225714Y-81346723D01*
X167225714Y-81346723D02*
X167178095Y-81441961D01*
X167178095Y-81441961D02*
X167082857Y-81537200D01*
X167082857Y-81537200D02*
X166940000Y-81584819D01*
X166940000Y-81584819D02*
X166701905Y-81584819D01*
X167606667Y-80584819D02*
X168225714Y-80584819D01*
X168225714Y-80584819D02*
X167892381Y-80965771D01*
X167892381Y-80965771D02*
X168035238Y-80965771D01*
X168035238Y-80965771D02*
X168130476Y-81013390D01*
X168130476Y-81013390D02*
X168178095Y-81061009D01*
X168178095Y-81061009D02*
X168225714Y-81156247D01*
X168225714Y-81156247D02*
X168225714Y-81394342D01*
X168225714Y-81394342D02*
X168178095Y-81489580D01*
X168178095Y-81489580D02*
X168130476Y-81537200D01*
X168130476Y-81537200D02*
X168035238Y-81584819D01*
X168035238Y-81584819D02*
X167749524Y-81584819D01*
X167749524Y-81584819D02*
X167654286Y-81537200D01*
X167654286Y-81537200D02*
X167606667Y-81489580D01*
X163368095Y-81904819D02*
X163368095Y-80904819D01*
X163939523Y-81904819D02*
X163510952Y-81333390D01*
X163939523Y-80904819D02*
X163368095Y-81476247D01*
X137488095Y-129054819D02*
X137488095Y-128054819D01*
X137488095Y-128531009D02*
X138059523Y-128531009D01*
X138059523Y-129054819D02*
X138059523Y-128054819D01*
X138964285Y-128388152D02*
X138964285Y-129054819D01*
X138726190Y-128007200D02*
X138488095Y-128721485D01*
X138488095Y-128721485D02*
X139107142Y-128721485D01*
X177571905Y-59834819D02*
X177571905Y-58834819D01*
X177571905Y-58834819D02*
X177810000Y-58834819D01*
X177810000Y-58834819D02*
X177952857Y-58882438D01*
X177952857Y-58882438D02*
X178048095Y-58977676D01*
X178048095Y-58977676D02*
X178095714Y-59072914D01*
X178095714Y-59072914D02*
X178143333Y-59263390D01*
X178143333Y-59263390D02*
X178143333Y-59406247D01*
X178143333Y-59406247D02*
X178095714Y-59596723D01*
X178095714Y-59596723D02*
X178048095Y-59691961D01*
X178048095Y-59691961D02*
X177952857Y-59787200D01*
X177952857Y-59787200D02*
X177810000Y-59834819D01*
X177810000Y-59834819D02*
X177571905Y-59834819D01*
X179000476Y-59168152D02*
X179000476Y-59834819D01*
X178762381Y-58787200D02*
X178524286Y-59501485D01*
X178524286Y-59501485D02*
X179143333Y-59501485D01*
X174238095Y-60154819D02*
X174238095Y-59154819D01*
X174809523Y-60154819D02*
X174380952Y-59583390D01*
X174809523Y-59154819D02*
X174238095Y-59726247D01*
X112238095Y-42804819D02*
X112238095Y-41804819D01*
X112238095Y-42281009D02*
X112809523Y-42281009D01*
X112809523Y-42804819D02*
X112809523Y-41804819D01*
X113809523Y-42804819D02*
X113238095Y-42804819D01*
X113523809Y-42804819D02*
X113523809Y-41804819D01*
X113523809Y-41804819D02*
X113428571Y-41947676D01*
X113428571Y-41947676D02*
X113333333Y-42042914D01*
X113333333Y-42042914D02*
X113238095Y-42090533D01*
X154326667Y-59763200D02*
X154469524Y-59810819D01*
X154469524Y-59810819D02*
X154707619Y-59810819D01*
X154707619Y-59810819D02*
X154802857Y-59763200D01*
X154802857Y-59763200D02*
X154850476Y-59715580D01*
X154850476Y-59715580D02*
X154898095Y-59620342D01*
X154898095Y-59620342D02*
X154898095Y-59525104D01*
X154898095Y-59525104D02*
X154850476Y-59429866D01*
X154850476Y-59429866D02*
X154802857Y-59382247D01*
X154802857Y-59382247D02*
X154707619Y-59334628D01*
X154707619Y-59334628D02*
X154517143Y-59287009D01*
X154517143Y-59287009D02*
X154421905Y-59239390D01*
X154421905Y-59239390D02*
X154374286Y-59191771D01*
X154374286Y-59191771D02*
X154326667Y-59096533D01*
X154326667Y-59096533D02*
X154326667Y-59001295D01*
X154326667Y-59001295D02*
X154374286Y-58906057D01*
X154374286Y-58906057D02*
X154421905Y-58858438D01*
X154421905Y-58858438D02*
X154517143Y-58810819D01*
X154517143Y-58810819D02*
X154755238Y-58810819D01*
X154755238Y-58810819D02*
X154898095Y-58858438D01*
X155231429Y-58810819D02*
X155469524Y-59810819D01*
X155469524Y-59810819D02*
X155660000Y-59096533D01*
X155660000Y-59096533D02*
X155850476Y-59810819D01*
X155850476Y-59810819D02*
X156088572Y-58810819D01*
X156517143Y-59810819D02*
X156707619Y-59810819D01*
X156707619Y-59810819D02*
X156802857Y-59763200D01*
X156802857Y-59763200D02*
X156850476Y-59715580D01*
X156850476Y-59715580D02*
X156945714Y-59572723D01*
X156945714Y-59572723D02*
X156993333Y-59382247D01*
X156993333Y-59382247D02*
X156993333Y-59001295D01*
X156993333Y-59001295D02*
X156945714Y-58906057D01*
X156945714Y-58906057D02*
X156898095Y-58858438D01*
X156898095Y-58858438D02*
X156802857Y-58810819D01*
X156802857Y-58810819D02*
X156612381Y-58810819D01*
X156612381Y-58810819D02*
X156517143Y-58858438D01*
X156517143Y-58858438D02*
X156469524Y-58906057D01*
X156469524Y-58906057D02*
X156421905Y-59001295D01*
X156421905Y-59001295D02*
X156421905Y-59239390D01*
X156421905Y-59239390D02*
X156469524Y-59334628D01*
X156469524Y-59334628D02*
X156517143Y-59382247D01*
X156517143Y-59382247D02*
X156612381Y-59429866D01*
X156612381Y-59429866D02*
X156802857Y-59429866D01*
X156802857Y-59429866D02*
X156898095Y-59382247D01*
X156898095Y-59382247D02*
X156945714Y-59334628D01*
X156945714Y-59334628D02*
X156993333Y-59239390D01*
X167851905Y-59794819D02*
X167851905Y-58794819D01*
X167851905Y-58794819D02*
X168090000Y-58794819D01*
X168090000Y-58794819D02*
X168232857Y-58842438D01*
X168232857Y-58842438D02*
X168328095Y-58937676D01*
X168328095Y-58937676D02*
X168375714Y-59032914D01*
X168375714Y-59032914D02*
X168423333Y-59223390D01*
X168423333Y-59223390D02*
X168423333Y-59366247D01*
X168423333Y-59366247D02*
X168375714Y-59556723D01*
X168375714Y-59556723D02*
X168328095Y-59651961D01*
X168328095Y-59651961D02*
X168232857Y-59747200D01*
X168232857Y-59747200D02*
X168090000Y-59794819D01*
X168090000Y-59794819D02*
X167851905Y-59794819D01*
X169375714Y-59794819D02*
X168804286Y-59794819D01*
X169090000Y-59794819D02*
X169090000Y-58794819D01*
X169090000Y-58794819D02*
X168994762Y-58937676D01*
X168994762Y-58937676D02*
X168899524Y-59032914D01*
X168899524Y-59032914D02*
X168804286Y-59080533D01*
X164518095Y-60114819D02*
X164518095Y-59114819D01*
X165089523Y-60114819D02*
X164660952Y-59543390D01*
X165089523Y-59114819D02*
X164518095Y-59686247D01*
X180988095Y-43054819D02*
X180988095Y-42054819D01*
X180988095Y-42531009D02*
X181559523Y-42531009D01*
X181559523Y-43054819D02*
X181559523Y-42054819D01*
X181988095Y-42150057D02*
X182035714Y-42102438D01*
X182035714Y-42102438D02*
X182130952Y-42054819D01*
X182130952Y-42054819D02*
X182369047Y-42054819D01*
X182369047Y-42054819D02*
X182464285Y-42102438D01*
X182464285Y-42102438D02*
X182511904Y-42150057D01*
X182511904Y-42150057D02*
X182559523Y-42245295D01*
X182559523Y-42245295D02*
X182559523Y-42340533D01*
X182559523Y-42340533D02*
X182511904Y-42483390D01*
X182511904Y-42483390D02*
X181940476Y-43054819D01*
X181940476Y-43054819D02*
X182559523Y-43054819D01*
X177571905Y-70084819D02*
X177571905Y-69084819D01*
X177571905Y-69084819D02*
X177810000Y-69084819D01*
X177810000Y-69084819D02*
X177952857Y-69132438D01*
X177952857Y-69132438D02*
X178048095Y-69227676D01*
X178048095Y-69227676D02*
X178095714Y-69322914D01*
X178095714Y-69322914D02*
X178143333Y-69513390D01*
X178143333Y-69513390D02*
X178143333Y-69656247D01*
X178143333Y-69656247D02*
X178095714Y-69846723D01*
X178095714Y-69846723D02*
X178048095Y-69941961D01*
X178048095Y-69941961D02*
X177952857Y-70037200D01*
X177952857Y-70037200D02*
X177810000Y-70084819D01*
X177810000Y-70084819D02*
X177571905Y-70084819D01*
X179048095Y-69084819D02*
X178571905Y-69084819D01*
X178571905Y-69084819D02*
X178524286Y-69561009D01*
X178524286Y-69561009D02*
X178571905Y-69513390D01*
X178571905Y-69513390D02*
X178667143Y-69465771D01*
X178667143Y-69465771D02*
X178905238Y-69465771D01*
X178905238Y-69465771D02*
X179000476Y-69513390D01*
X179000476Y-69513390D02*
X179048095Y-69561009D01*
X179048095Y-69561009D02*
X179095714Y-69656247D01*
X179095714Y-69656247D02*
X179095714Y-69894342D01*
X179095714Y-69894342D02*
X179048095Y-69989580D01*
X179048095Y-69989580D02*
X179000476Y-70037200D01*
X179000476Y-70037200D02*
X178905238Y-70084819D01*
X178905238Y-70084819D02*
X178667143Y-70084819D01*
X178667143Y-70084819D02*
X178571905Y-70037200D01*
X178571905Y-70037200D02*
X178524286Y-69989580D01*
X174238095Y-70404819D02*
X174238095Y-69404819D01*
X174809523Y-70404819D02*
X174380952Y-69833390D01*
X174809523Y-69404819D02*
X174238095Y-69976247D01*
X173261905Y-64334819D02*
X173261905Y-63334819D01*
X173261905Y-63334819D02*
X173500000Y-63334819D01*
X173500000Y-63334819D02*
X173642857Y-63382438D01*
X173642857Y-63382438D02*
X173738095Y-63477676D01*
X173738095Y-63477676D02*
X173785714Y-63572914D01*
X173785714Y-63572914D02*
X173833333Y-63763390D01*
X173833333Y-63763390D02*
X173833333Y-63906247D01*
X173833333Y-63906247D02*
X173785714Y-64096723D01*
X173785714Y-64096723D02*
X173738095Y-64191961D01*
X173738095Y-64191961D02*
X173642857Y-64287200D01*
X173642857Y-64287200D02*
X173500000Y-64334819D01*
X173500000Y-64334819D02*
X173261905Y-64334819D01*
X174166667Y-63334819D02*
X174833333Y-63334819D01*
X174833333Y-63334819D02*
X174404762Y-64334819D01*
X169928095Y-64654819D02*
X169928095Y-63654819D01*
X170499523Y-64654819D02*
X170070952Y-64083390D01*
X170499523Y-63654819D02*
X169928095Y-64226247D01*
X167201905Y-70334819D02*
X167201905Y-69334819D01*
X167201905Y-69334819D02*
X167440000Y-69334819D01*
X167440000Y-69334819D02*
X167582857Y-69382438D01*
X167582857Y-69382438D02*
X167678095Y-69477676D01*
X167678095Y-69477676D02*
X167725714Y-69572914D01*
X167725714Y-69572914D02*
X167773333Y-69763390D01*
X167773333Y-69763390D02*
X167773333Y-69906247D01*
X167773333Y-69906247D02*
X167725714Y-70096723D01*
X167725714Y-70096723D02*
X167678095Y-70191961D01*
X167678095Y-70191961D02*
X167582857Y-70287200D01*
X167582857Y-70287200D02*
X167440000Y-70334819D01*
X167440000Y-70334819D02*
X167201905Y-70334819D01*
X168154286Y-69430057D02*
X168201905Y-69382438D01*
X168201905Y-69382438D02*
X168297143Y-69334819D01*
X168297143Y-69334819D02*
X168535238Y-69334819D01*
X168535238Y-69334819D02*
X168630476Y-69382438D01*
X168630476Y-69382438D02*
X168678095Y-69430057D01*
X168678095Y-69430057D02*
X168725714Y-69525295D01*
X168725714Y-69525295D02*
X168725714Y-69620533D01*
X168725714Y-69620533D02*
X168678095Y-69763390D01*
X168678095Y-69763390D02*
X168106667Y-70334819D01*
X168106667Y-70334819D02*
X168725714Y-70334819D01*
X163868095Y-70654819D02*
X163868095Y-69654819D01*
X164439523Y-70654819D02*
X164010952Y-70083390D01*
X164439523Y-69654819D02*
X163868095Y-70226247D01*
X111988095Y-128804819D02*
X111988095Y-127804819D01*
X111988095Y-128281009D02*
X112559523Y-128281009D01*
X112559523Y-128804819D02*
X112559523Y-127804819D01*
X112940476Y-127804819D02*
X113559523Y-127804819D01*
X113559523Y-127804819D02*
X113226190Y-128185771D01*
X113226190Y-128185771D02*
X113369047Y-128185771D01*
X113369047Y-128185771D02*
X113464285Y-128233390D01*
X113464285Y-128233390D02*
X113511904Y-128281009D01*
X113511904Y-128281009D02*
X113559523Y-128376247D01*
X113559523Y-128376247D02*
X113559523Y-128614342D01*
X113559523Y-128614342D02*
X113511904Y-128709580D01*
X113511904Y-128709580D02*
X113464285Y-128757200D01*
X113464285Y-128757200D02*
X113369047Y-128804819D01*
X113369047Y-128804819D02*
X113083333Y-128804819D01*
X113083333Y-128804819D02*
X112988095Y-128757200D01*
X112988095Y-128757200D02*
X112940476Y-128709580D01*
X181488095Y-106554819D02*
X181488095Y-105554819D01*
X181488095Y-106031009D02*
X182059523Y-106031009D01*
X182059523Y-106554819D02*
X182059523Y-105554819D01*
X183011904Y-105554819D02*
X182535714Y-105554819D01*
X182535714Y-105554819D02*
X182488095Y-106031009D01*
X182488095Y-106031009D02*
X182535714Y-105983390D01*
X182535714Y-105983390D02*
X182630952Y-105935771D01*
X182630952Y-105935771D02*
X182869047Y-105935771D01*
X182869047Y-105935771D02*
X182964285Y-105983390D01*
X182964285Y-105983390D02*
X183011904Y-106031009D01*
X183011904Y-106031009D02*
X183059523Y-106126247D01*
X183059523Y-106126247D02*
X183059523Y-106364342D01*
X183059523Y-106364342D02*
X183011904Y-106459580D01*
X183011904Y-106459580D02*
X182964285Y-106507200D01*
X182964285Y-106507200D02*
X182869047Y-106554819D01*
X182869047Y-106554819D02*
X182630952Y-106554819D01*
X182630952Y-106554819D02*
X182535714Y-106507200D01*
X182535714Y-106507200D02*
X182488095Y-106459580D01*
X124146667Y-74853200D02*
X124289524Y-74900819D01*
X124289524Y-74900819D02*
X124527619Y-74900819D01*
X124527619Y-74900819D02*
X124622857Y-74853200D01*
X124622857Y-74853200D02*
X124670476Y-74805580D01*
X124670476Y-74805580D02*
X124718095Y-74710342D01*
X124718095Y-74710342D02*
X124718095Y-74615104D01*
X124718095Y-74615104D02*
X124670476Y-74519866D01*
X124670476Y-74519866D02*
X124622857Y-74472247D01*
X124622857Y-74472247D02*
X124527619Y-74424628D01*
X124527619Y-74424628D02*
X124337143Y-74377009D01*
X124337143Y-74377009D02*
X124241905Y-74329390D01*
X124241905Y-74329390D02*
X124194286Y-74281771D01*
X124194286Y-74281771D02*
X124146667Y-74186533D01*
X124146667Y-74186533D02*
X124146667Y-74091295D01*
X124146667Y-74091295D02*
X124194286Y-73996057D01*
X124194286Y-73996057D02*
X124241905Y-73948438D01*
X124241905Y-73948438D02*
X124337143Y-73900819D01*
X124337143Y-73900819D02*
X124575238Y-73900819D01*
X124575238Y-73900819D02*
X124718095Y-73948438D01*
X125051429Y-73900819D02*
X125289524Y-74900819D01*
X125289524Y-74900819D02*
X125480000Y-74186533D01*
X125480000Y-74186533D02*
X125670476Y-74900819D01*
X125670476Y-74900819D02*
X125908572Y-73900819D01*
X126241905Y-73996057D02*
X126289524Y-73948438D01*
X126289524Y-73948438D02*
X126384762Y-73900819D01*
X126384762Y-73900819D02*
X126622857Y-73900819D01*
X126622857Y-73900819D02*
X126718095Y-73948438D01*
X126718095Y-73948438D02*
X126765714Y-73996057D01*
X126765714Y-73996057D02*
X126813333Y-74091295D01*
X126813333Y-74091295D02*
X126813333Y-74186533D01*
X126813333Y-74186533D02*
X126765714Y-74329390D01*
X126765714Y-74329390D02*
X126194286Y-74900819D01*
X126194286Y-74900819D02*
X126813333Y-74900819D01*
X139236667Y-59763200D02*
X139379524Y-59810819D01*
X139379524Y-59810819D02*
X139617619Y-59810819D01*
X139617619Y-59810819D02*
X139712857Y-59763200D01*
X139712857Y-59763200D02*
X139760476Y-59715580D01*
X139760476Y-59715580D02*
X139808095Y-59620342D01*
X139808095Y-59620342D02*
X139808095Y-59525104D01*
X139808095Y-59525104D02*
X139760476Y-59429866D01*
X139760476Y-59429866D02*
X139712857Y-59382247D01*
X139712857Y-59382247D02*
X139617619Y-59334628D01*
X139617619Y-59334628D02*
X139427143Y-59287009D01*
X139427143Y-59287009D02*
X139331905Y-59239390D01*
X139331905Y-59239390D02*
X139284286Y-59191771D01*
X139284286Y-59191771D02*
X139236667Y-59096533D01*
X139236667Y-59096533D02*
X139236667Y-59001295D01*
X139236667Y-59001295D02*
X139284286Y-58906057D01*
X139284286Y-58906057D02*
X139331905Y-58858438D01*
X139331905Y-58858438D02*
X139427143Y-58810819D01*
X139427143Y-58810819D02*
X139665238Y-58810819D01*
X139665238Y-58810819D02*
X139808095Y-58858438D01*
X140141429Y-58810819D02*
X140379524Y-59810819D01*
X140379524Y-59810819D02*
X140570000Y-59096533D01*
X140570000Y-59096533D02*
X140760476Y-59810819D01*
X140760476Y-59810819D02*
X140998572Y-58810819D01*
X141855714Y-58810819D02*
X141379524Y-58810819D01*
X141379524Y-58810819D02*
X141331905Y-59287009D01*
X141331905Y-59287009D02*
X141379524Y-59239390D01*
X141379524Y-59239390D02*
X141474762Y-59191771D01*
X141474762Y-59191771D02*
X141712857Y-59191771D01*
X141712857Y-59191771D02*
X141808095Y-59239390D01*
X141808095Y-59239390D02*
X141855714Y-59287009D01*
X141855714Y-59287009D02*
X141903333Y-59382247D01*
X141903333Y-59382247D02*
X141903333Y-59620342D01*
X141903333Y-59620342D02*
X141855714Y-59715580D01*
X141855714Y-59715580D02*
X141808095Y-59763200D01*
X141808095Y-59763200D02*
X141712857Y-59810819D01*
X141712857Y-59810819D02*
X141474762Y-59810819D01*
X141474762Y-59810819D02*
X141379524Y-59763200D01*
X141379524Y-59763200D02*
X141331905Y-59715580D01*
X172701905Y-75584819D02*
X172701905Y-74584819D01*
X172701905Y-74584819D02*
X172940000Y-74584819D01*
X172940000Y-74584819D02*
X173082857Y-74632438D01*
X173082857Y-74632438D02*
X173178095Y-74727676D01*
X173178095Y-74727676D02*
X173225714Y-74822914D01*
X173225714Y-74822914D02*
X173273333Y-75013390D01*
X173273333Y-75013390D02*
X173273333Y-75156247D01*
X173273333Y-75156247D02*
X173225714Y-75346723D01*
X173225714Y-75346723D02*
X173178095Y-75441961D01*
X173178095Y-75441961D02*
X173082857Y-75537200D01*
X173082857Y-75537200D02*
X172940000Y-75584819D01*
X172940000Y-75584819D02*
X172701905Y-75584819D01*
X173844762Y-75013390D02*
X173749524Y-74965771D01*
X173749524Y-74965771D02*
X173701905Y-74918152D01*
X173701905Y-74918152D02*
X173654286Y-74822914D01*
X173654286Y-74822914D02*
X173654286Y-74775295D01*
X173654286Y-74775295D02*
X173701905Y-74680057D01*
X173701905Y-74680057D02*
X173749524Y-74632438D01*
X173749524Y-74632438D02*
X173844762Y-74584819D01*
X173844762Y-74584819D02*
X174035238Y-74584819D01*
X174035238Y-74584819D02*
X174130476Y-74632438D01*
X174130476Y-74632438D02*
X174178095Y-74680057D01*
X174178095Y-74680057D02*
X174225714Y-74775295D01*
X174225714Y-74775295D02*
X174225714Y-74822914D01*
X174225714Y-74822914D02*
X174178095Y-74918152D01*
X174178095Y-74918152D02*
X174130476Y-74965771D01*
X174130476Y-74965771D02*
X174035238Y-75013390D01*
X174035238Y-75013390D02*
X173844762Y-75013390D01*
X173844762Y-75013390D02*
X173749524Y-75061009D01*
X173749524Y-75061009D02*
X173701905Y-75108628D01*
X173701905Y-75108628D02*
X173654286Y-75203866D01*
X173654286Y-75203866D02*
X173654286Y-75394342D01*
X173654286Y-75394342D02*
X173701905Y-75489580D01*
X173701905Y-75489580D02*
X173749524Y-75537200D01*
X173749524Y-75537200D02*
X173844762Y-75584819D01*
X173844762Y-75584819D02*
X174035238Y-75584819D01*
X174035238Y-75584819D02*
X174130476Y-75537200D01*
X174130476Y-75537200D02*
X174178095Y-75489580D01*
X174178095Y-75489580D02*
X174225714Y-75394342D01*
X174225714Y-75394342D02*
X174225714Y-75203866D01*
X174225714Y-75203866D02*
X174178095Y-75108628D01*
X174178095Y-75108628D02*
X174130476Y-75061009D01*
X174130476Y-75061009D02*
X174035238Y-75013390D01*
X169368095Y-75904819D02*
X169368095Y-74904819D01*
X169939523Y-75904819D02*
X169510952Y-75333390D01*
X169939523Y-74904819D02*
X169368095Y-75476247D01*
X172201905Y-87334819D02*
X172201905Y-86334819D01*
X172201905Y-86334819D02*
X172440000Y-86334819D01*
X172440000Y-86334819D02*
X172582857Y-86382438D01*
X172582857Y-86382438D02*
X172678095Y-86477676D01*
X172678095Y-86477676D02*
X172725714Y-86572914D01*
X172725714Y-86572914D02*
X172773333Y-86763390D01*
X172773333Y-86763390D02*
X172773333Y-86906247D01*
X172773333Y-86906247D02*
X172725714Y-87096723D01*
X172725714Y-87096723D02*
X172678095Y-87191961D01*
X172678095Y-87191961D02*
X172582857Y-87287200D01*
X172582857Y-87287200D02*
X172440000Y-87334819D01*
X172440000Y-87334819D02*
X172201905Y-87334819D01*
X173249524Y-87334819D02*
X173440000Y-87334819D01*
X173440000Y-87334819D02*
X173535238Y-87287200D01*
X173535238Y-87287200D02*
X173582857Y-87239580D01*
X173582857Y-87239580D02*
X173678095Y-87096723D01*
X173678095Y-87096723D02*
X173725714Y-86906247D01*
X173725714Y-86906247D02*
X173725714Y-86525295D01*
X173725714Y-86525295D02*
X173678095Y-86430057D01*
X173678095Y-86430057D02*
X173630476Y-86382438D01*
X173630476Y-86382438D02*
X173535238Y-86334819D01*
X173535238Y-86334819D02*
X173344762Y-86334819D01*
X173344762Y-86334819D02*
X173249524Y-86382438D01*
X173249524Y-86382438D02*
X173201905Y-86430057D01*
X173201905Y-86430057D02*
X173154286Y-86525295D01*
X173154286Y-86525295D02*
X173154286Y-86763390D01*
X173154286Y-86763390D02*
X173201905Y-86858628D01*
X173201905Y-86858628D02*
X173249524Y-86906247D01*
X173249524Y-86906247D02*
X173344762Y-86953866D01*
X173344762Y-86953866D02*
X173535238Y-86953866D01*
X173535238Y-86953866D02*
X173630476Y-86906247D01*
X173630476Y-86906247D02*
X173678095Y-86858628D01*
X173678095Y-86858628D02*
X173725714Y-86763390D01*
X168868095Y-87654819D02*
X168868095Y-86654819D01*
X169439523Y-87654819D02*
X169010952Y-87083390D01*
X169439523Y-86654819D02*
X168868095Y-87226247D01*
X124146667Y-89943200D02*
X124289524Y-89990819D01*
X124289524Y-89990819D02*
X124527619Y-89990819D01*
X124527619Y-89990819D02*
X124622857Y-89943200D01*
X124622857Y-89943200D02*
X124670476Y-89895580D01*
X124670476Y-89895580D02*
X124718095Y-89800342D01*
X124718095Y-89800342D02*
X124718095Y-89705104D01*
X124718095Y-89705104D02*
X124670476Y-89609866D01*
X124670476Y-89609866D02*
X124622857Y-89562247D01*
X124622857Y-89562247D02*
X124527619Y-89514628D01*
X124527619Y-89514628D02*
X124337143Y-89467009D01*
X124337143Y-89467009D02*
X124241905Y-89419390D01*
X124241905Y-89419390D02*
X124194286Y-89371771D01*
X124194286Y-89371771D02*
X124146667Y-89276533D01*
X124146667Y-89276533D02*
X124146667Y-89181295D01*
X124146667Y-89181295D02*
X124194286Y-89086057D01*
X124194286Y-89086057D02*
X124241905Y-89038438D01*
X124241905Y-89038438D02*
X124337143Y-88990819D01*
X124337143Y-88990819D02*
X124575238Y-88990819D01*
X124575238Y-88990819D02*
X124718095Y-89038438D01*
X125051429Y-88990819D02*
X125289524Y-89990819D01*
X125289524Y-89990819D02*
X125480000Y-89276533D01*
X125480000Y-89276533D02*
X125670476Y-89990819D01*
X125670476Y-89990819D02*
X125908572Y-88990819D01*
X126194286Y-88990819D02*
X126813333Y-88990819D01*
X126813333Y-88990819D02*
X126480000Y-89371771D01*
X126480000Y-89371771D02*
X126622857Y-89371771D01*
X126622857Y-89371771D02*
X126718095Y-89419390D01*
X126718095Y-89419390D02*
X126765714Y-89467009D01*
X126765714Y-89467009D02*
X126813333Y-89562247D01*
X126813333Y-89562247D02*
X126813333Y-89800342D01*
X126813333Y-89800342D02*
X126765714Y-89895580D01*
X126765714Y-89895580D02*
X126718095Y-89943200D01*
X126718095Y-89943200D02*
X126622857Y-89990819D01*
X126622857Y-89990819D02*
X126337143Y-89990819D01*
X126337143Y-89990819D02*
X126241905Y-89943200D01*
X126241905Y-89943200D02*
X126194286Y-89895580D01*
X139236667Y-74853200D02*
X139379524Y-74900819D01*
X139379524Y-74900819D02*
X139617619Y-74900819D01*
X139617619Y-74900819D02*
X139712857Y-74853200D01*
X139712857Y-74853200D02*
X139760476Y-74805580D01*
X139760476Y-74805580D02*
X139808095Y-74710342D01*
X139808095Y-74710342D02*
X139808095Y-74615104D01*
X139808095Y-74615104D02*
X139760476Y-74519866D01*
X139760476Y-74519866D02*
X139712857Y-74472247D01*
X139712857Y-74472247D02*
X139617619Y-74424628D01*
X139617619Y-74424628D02*
X139427143Y-74377009D01*
X139427143Y-74377009D02*
X139331905Y-74329390D01*
X139331905Y-74329390D02*
X139284286Y-74281771D01*
X139284286Y-74281771D02*
X139236667Y-74186533D01*
X139236667Y-74186533D02*
X139236667Y-74091295D01*
X139236667Y-74091295D02*
X139284286Y-73996057D01*
X139284286Y-73996057D02*
X139331905Y-73948438D01*
X139331905Y-73948438D02*
X139427143Y-73900819D01*
X139427143Y-73900819D02*
X139665238Y-73900819D01*
X139665238Y-73900819D02*
X139808095Y-73948438D01*
X140141429Y-73900819D02*
X140379524Y-74900819D01*
X140379524Y-74900819D02*
X140570000Y-74186533D01*
X140570000Y-74186533D02*
X140760476Y-74900819D01*
X140760476Y-74900819D02*
X140998572Y-73900819D01*
X141808095Y-73900819D02*
X141617619Y-73900819D01*
X141617619Y-73900819D02*
X141522381Y-73948438D01*
X141522381Y-73948438D02*
X141474762Y-73996057D01*
X141474762Y-73996057D02*
X141379524Y-74138914D01*
X141379524Y-74138914D02*
X141331905Y-74329390D01*
X141331905Y-74329390D02*
X141331905Y-74710342D01*
X141331905Y-74710342D02*
X141379524Y-74805580D01*
X141379524Y-74805580D02*
X141427143Y-74853200D01*
X141427143Y-74853200D02*
X141522381Y-74900819D01*
X141522381Y-74900819D02*
X141712857Y-74900819D01*
X141712857Y-74900819D02*
X141808095Y-74853200D01*
X141808095Y-74853200D02*
X141855714Y-74805580D01*
X141855714Y-74805580D02*
X141903333Y-74710342D01*
X141903333Y-74710342D02*
X141903333Y-74472247D01*
X141903333Y-74472247D02*
X141855714Y-74377009D01*
X141855714Y-74377009D02*
X141808095Y-74329390D01*
X141808095Y-74329390D02*
X141712857Y-74281771D01*
X141712857Y-74281771D02*
X141522381Y-74281771D01*
X141522381Y-74281771D02*
X141427143Y-74329390D01*
X141427143Y-74329390D02*
X141379524Y-74377009D01*
X141379524Y-74377009D02*
X141331905Y-74472247D01*
X139236667Y-89943200D02*
X139379524Y-89990819D01*
X139379524Y-89990819D02*
X139617619Y-89990819D01*
X139617619Y-89990819D02*
X139712857Y-89943200D01*
X139712857Y-89943200D02*
X139760476Y-89895580D01*
X139760476Y-89895580D02*
X139808095Y-89800342D01*
X139808095Y-89800342D02*
X139808095Y-89705104D01*
X139808095Y-89705104D02*
X139760476Y-89609866D01*
X139760476Y-89609866D02*
X139712857Y-89562247D01*
X139712857Y-89562247D02*
X139617619Y-89514628D01*
X139617619Y-89514628D02*
X139427143Y-89467009D01*
X139427143Y-89467009D02*
X139331905Y-89419390D01*
X139331905Y-89419390D02*
X139284286Y-89371771D01*
X139284286Y-89371771D02*
X139236667Y-89276533D01*
X139236667Y-89276533D02*
X139236667Y-89181295D01*
X139236667Y-89181295D02*
X139284286Y-89086057D01*
X139284286Y-89086057D02*
X139331905Y-89038438D01*
X139331905Y-89038438D02*
X139427143Y-88990819D01*
X139427143Y-88990819D02*
X139665238Y-88990819D01*
X139665238Y-88990819D02*
X139808095Y-89038438D01*
X140141429Y-88990819D02*
X140379524Y-89990819D01*
X140379524Y-89990819D02*
X140570000Y-89276533D01*
X140570000Y-89276533D02*
X140760476Y-89990819D01*
X140760476Y-89990819D02*
X140998572Y-88990819D01*
X141284286Y-88990819D02*
X141950952Y-88990819D01*
X141950952Y-88990819D02*
X141522381Y-89990819D01*
X153850476Y-74853200D02*
X153993333Y-74900819D01*
X153993333Y-74900819D02*
X154231428Y-74900819D01*
X154231428Y-74900819D02*
X154326666Y-74853200D01*
X154326666Y-74853200D02*
X154374285Y-74805580D01*
X154374285Y-74805580D02*
X154421904Y-74710342D01*
X154421904Y-74710342D02*
X154421904Y-74615104D01*
X154421904Y-74615104D02*
X154374285Y-74519866D01*
X154374285Y-74519866D02*
X154326666Y-74472247D01*
X154326666Y-74472247D02*
X154231428Y-74424628D01*
X154231428Y-74424628D02*
X154040952Y-74377009D01*
X154040952Y-74377009D02*
X153945714Y-74329390D01*
X153945714Y-74329390D02*
X153898095Y-74281771D01*
X153898095Y-74281771D02*
X153850476Y-74186533D01*
X153850476Y-74186533D02*
X153850476Y-74091295D01*
X153850476Y-74091295D02*
X153898095Y-73996057D01*
X153898095Y-73996057D02*
X153945714Y-73948438D01*
X153945714Y-73948438D02*
X154040952Y-73900819D01*
X154040952Y-73900819D02*
X154279047Y-73900819D01*
X154279047Y-73900819D02*
X154421904Y-73948438D01*
X154755238Y-73900819D02*
X154993333Y-74900819D01*
X154993333Y-74900819D02*
X155183809Y-74186533D01*
X155183809Y-74186533D02*
X155374285Y-74900819D01*
X155374285Y-74900819D02*
X155612381Y-73900819D01*
X156517142Y-74900819D02*
X155945714Y-74900819D01*
X156231428Y-74900819D02*
X156231428Y-73900819D01*
X156231428Y-73900819D02*
X156136190Y-74043676D01*
X156136190Y-74043676D02*
X156040952Y-74138914D01*
X156040952Y-74138914D02*
X155945714Y-74186533D01*
X157136190Y-73900819D02*
X157231428Y-73900819D01*
X157231428Y-73900819D02*
X157326666Y-73948438D01*
X157326666Y-73948438D02*
X157374285Y-73996057D01*
X157374285Y-73996057D02*
X157421904Y-74091295D01*
X157421904Y-74091295D02*
X157469523Y-74281771D01*
X157469523Y-74281771D02*
X157469523Y-74519866D01*
X157469523Y-74519866D02*
X157421904Y-74710342D01*
X157421904Y-74710342D02*
X157374285Y-74805580D01*
X157374285Y-74805580D02*
X157326666Y-74853200D01*
X157326666Y-74853200D02*
X157231428Y-74900819D01*
X157231428Y-74900819D02*
X157136190Y-74900819D01*
X157136190Y-74900819D02*
X157040952Y-74853200D01*
X157040952Y-74853200D02*
X156993333Y-74805580D01*
X156993333Y-74805580D02*
X156945714Y-74710342D01*
X156945714Y-74710342D02*
X156898095Y-74519866D01*
X156898095Y-74519866D02*
X156898095Y-74281771D01*
X156898095Y-74281771D02*
X156945714Y-74091295D01*
X156945714Y-74091295D02*
X156993333Y-73996057D01*
X156993333Y-73996057D02*
X157040952Y-73948438D01*
X157040952Y-73948438D02*
X157136190Y-73900819D01*
X124146667Y-59763200D02*
X124289524Y-59810819D01*
X124289524Y-59810819D02*
X124527619Y-59810819D01*
X124527619Y-59810819D02*
X124622857Y-59763200D01*
X124622857Y-59763200D02*
X124670476Y-59715580D01*
X124670476Y-59715580D02*
X124718095Y-59620342D01*
X124718095Y-59620342D02*
X124718095Y-59525104D01*
X124718095Y-59525104D02*
X124670476Y-59429866D01*
X124670476Y-59429866D02*
X124622857Y-59382247D01*
X124622857Y-59382247D02*
X124527619Y-59334628D01*
X124527619Y-59334628D02*
X124337143Y-59287009D01*
X124337143Y-59287009D02*
X124241905Y-59239390D01*
X124241905Y-59239390D02*
X124194286Y-59191771D01*
X124194286Y-59191771D02*
X124146667Y-59096533D01*
X124146667Y-59096533D02*
X124146667Y-59001295D01*
X124146667Y-59001295D02*
X124194286Y-58906057D01*
X124194286Y-58906057D02*
X124241905Y-58858438D01*
X124241905Y-58858438D02*
X124337143Y-58810819D01*
X124337143Y-58810819D02*
X124575238Y-58810819D01*
X124575238Y-58810819D02*
X124718095Y-58858438D01*
X125051429Y-58810819D02*
X125289524Y-59810819D01*
X125289524Y-59810819D02*
X125480000Y-59096533D01*
X125480000Y-59096533D02*
X125670476Y-59810819D01*
X125670476Y-59810819D02*
X125908572Y-58810819D01*
X126813333Y-59810819D02*
X126241905Y-59810819D01*
X126527619Y-59810819D02*
X126527619Y-58810819D01*
X126527619Y-58810819D02*
X126432381Y-58953676D01*
X126432381Y-58953676D02*
X126337143Y-59048914D01*
X126337143Y-59048914D02*
X126241905Y-59096533D01*
D11*
X123306985Y-117927333D02*
X124026652Y-117927333D01*
X124026652Y-117927333D02*
X124111318Y-117885000D01*
X124111318Y-117885000D02*
X124153652Y-117842666D01*
X124153652Y-117842666D02*
X124195985Y-117758000D01*
X124195985Y-117758000D02*
X124195985Y-117588666D01*
X124195985Y-117588666D02*
X124153652Y-117504000D01*
X124153652Y-117504000D02*
X124111318Y-117461666D01*
X124111318Y-117461666D02*
X124026652Y-117419333D01*
X124026652Y-117419333D02*
X123306985Y-117419333D01*
X124195985Y-116530333D02*
X124195985Y-117038333D01*
X124195985Y-116784333D02*
X123306985Y-116784333D01*
X123306985Y-116784333D02*
X123433985Y-116869000D01*
X123433985Y-116869000D02*
X123518652Y-116953667D01*
X123518652Y-116953667D02*
X123560985Y-117038333D01*
D10*
X120157200Y-122011904D02*
X120204819Y-121869047D01*
X120204819Y-121869047D02*
X120204819Y-121630952D01*
X120204819Y-121630952D02*
X120157200Y-121535714D01*
X120157200Y-121535714D02*
X120109580Y-121488095D01*
X120109580Y-121488095D02*
X120014342Y-121440476D01*
X120014342Y-121440476D02*
X119919104Y-121440476D01*
X119919104Y-121440476D02*
X119823866Y-121488095D01*
X119823866Y-121488095D02*
X119776247Y-121535714D01*
X119776247Y-121535714D02*
X119728628Y-121630952D01*
X119728628Y-121630952D02*
X119681009Y-121821428D01*
X119681009Y-121821428D02*
X119633390Y-121916666D01*
X119633390Y-121916666D02*
X119585771Y-121964285D01*
X119585771Y-121964285D02*
X119490533Y-122011904D01*
X119490533Y-122011904D02*
X119395295Y-122011904D01*
X119395295Y-122011904D02*
X119300057Y-121964285D01*
X119300057Y-121964285D02*
X119252438Y-121916666D01*
X119252438Y-121916666D02*
X119204819Y-121821428D01*
X119204819Y-121821428D02*
X119204819Y-121583333D01*
X119204819Y-121583333D02*
X119252438Y-121440476D01*
X120157200Y-120630952D02*
X120204819Y-120726190D01*
X120204819Y-120726190D02*
X120204819Y-120916666D01*
X120204819Y-120916666D02*
X120157200Y-121011904D01*
X120157200Y-121011904D02*
X120061961Y-121059523D01*
X120061961Y-121059523D02*
X119681009Y-121059523D01*
X119681009Y-121059523D02*
X119585771Y-121011904D01*
X119585771Y-121011904D02*
X119538152Y-120916666D01*
X119538152Y-120916666D02*
X119538152Y-120726190D01*
X119538152Y-120726190D02*
X119585771Y-120630952D01*
X119585771Y-120630952D02*
X119681009Y-120583333D01*
X119681009Y-120583333D02*
X119776247Y-120583333D01*
X119776247Y-120583333D02*
X119871485Y-121059523D01*
X120157200Y-119773809D02*
X120204819Y-119869047D01*
X120204819Y-119869047D02*
X120204819Y-120059523D01*
X120204819Y-120059523D02*
X120157200Y-120154761D01*
X120157200Y-120154761D02*
X120061961Y-120202380D01*
X120061961Y-120202380D02*
X119681009Y-120202380D01*
X119681009Y-120202380D02*
X119585771Y-120154761D01*
X119585771Y-120154761D02*
X119538152Y-120059523D01*
X119538152Y-120059523D02*
X119538152Y-119869047D01*
X119538152Y-119869047D02*
X119585771Y-119773809D01*
X119585771Y-119773809D02*
X119681009Y-119726190D01*
X119681009Y-119726190D02*
X119776247Y-119726190D01*
X119776247Y-119726190D02*
X119871485Y-120202380D01*
X120157200Y-118916666D02*
X120204819Y-119011904D01*
X120204819Y-119011904D02*
X120204819Y-119202380D01*
X120204819Y-119202380D02*
X120157200Y-119297618D01*
X120157200Y-119297618D02*
X120061961Y-119345237D01*
X120061961Y-119345237D02*
X119681009Y-119345237D01*
X119681009Y-119345237D02*
X119585771Y-119297618D01*
X119585771Y-119297618D02*
X119538152Y-119202380D01*
X119538152Y-119202380D02*
X119538152Y-119011904D01*
X119538152Y-119011904D02*
X119585771Y-118916666D01*
X119585771Y-118916666D02*
X119681009Y-118869047D01*
X119681009Y-118869047D02*
X119776247Y-118869047D01*
X119776247Y-118869047D02*
X119871485Y-119345237D01*
X120204819Y-118011904D02*
X119204819Y-118011904D01*
X120157200Y-118011904D02*
X120204819Y-118107142D01*
X120204819Y-118107142D02*
X120204819Y-118297618D01*
X120204819Y-118297618D02*
X120157200Y-118392856D01*
X120157200Y-118392856D02*
X120109580Y-118440475D01*
X120109580Y-118440475D02*
X120014342Y-118488094D01*
X120014342Y-118488094D02*
X119728628Y-118488094D01*
X119728628Y-118488094D02*
X119633390Y-118440475D01*
X119633390Y-118440475D02*
X119585771Y-118392856D01*
X119585771Y-118392856D02*
X119538152Y-118297618D01*
X119538152Y-118297618D02*
X119538152Y-118107142D01*
X119538152Y-118107142D02*
X119585771Y-118011904D01*
X120157200Y-116821427D02*
X120204819Y-116678570D01*
X120204819Y-116678570D02*
X120204819Y-116440475D01*
X120204819Y-116440475D02*
X120157200Y-116345237D01*
X120157200Y-116345237D02*
X120109580Y-116297618D01*
X120109580Y-116297618D02*
X120014342Y-116249999D01*
X120014342Y-116249999D02*
X119919104Y-116249999D01*
X119919104Y-116249999D02*
X119823866Y-116297618D01*
X119823866Y-116297618D02*
X119776247Y-116345237D01*
X119776247Y-116345237D02*
X119728628Y-116440475D01*
X119728628Y-116440475D02*
X119681009Y-116630951D01*
X119681009Y-116630951D02*
X119633390Y-116726189D01*
X119633390Y-116726189D02*
X119585771Y-116773808D01*
X119585771Y-116773808D02*
X119490533Y-116821427D01*
X119490533Y-116821427D02*
X119395295Y-116821427D01*
X119395295Y-116821427D02*
X119300057Y-116773808D01*
X119300057Y-116773808D02*
X119252438Y-116726189D01*
X119252438Y-116726189D02*
X119204819Y-116630951D01*
X119204819Y-116630951D02*
X119204819Y-116392856D01*
X119204819Y-116392856D02*
X119252438Y-116249999D01*
X119538152Y-115964284D02*
X119538152Y-115583332D01*
X119204819Y-115821427D02*
X120061961Y-115821427D01*
X120061961Y-115821427D02*
X120157200Y-115773808D01*
X120157200Y-115773808D02*
X120204819Y-115678570D01*
X120204819Y-115678570D02*
X120204819Y-115583332D01*
X119538152Y-114821427D02*
X120204819Y-114821427D01*
X119538152Y-115249998D02*
X120061961Y-115249998D01*
X120061961Y-115249998D02*
X120157200Y-115202379D01*
X120157200Y-115202379D02*
X120204819Y-115107141D01*
X120204819Y-115107141D02*
X120204819Y-114964284D01*
X120204819Y-114964284D02*
X120157200Y-114869046D01*
X120157200Y-114869046D02*
X120109580Y-114821427D01*
X120204819Y-113916665D02*
X119204819Y-113916665D01*
X120157200Y-113916665D02*
X120204819Y-114011903D01*
X120204819Y-114011903D02*
X120204819Y-114202379D01*
X120204819Y-114202379D02*
X120157200Y-114297617D01*
X120157200Y-114297617D02*
X120109580Y-114345236D01*
X120109580Y-114345236D02*
X120014342Y-114392855D01*
X120014342Y-114392855D02*
X119728628Y-114392855D01*
X119728628Y-114392855D02*
X119633390Y-114345236D01*
X119633390Y-114345236D02*
X119585771Y-114297617D01*
X119585771Y-114297617D02*
X119538152Y-114202379D01*
X119538152Y-114202379D02*
X119538152Y-114011903D01*
X119538152Y-114011903D02*
X119585771Y-113916665D01*
X120204819Y-113440474D02*
X119538152Y-113440474D01*
X119204819Y-113440474D02*
X119252438Y-113488093D01*
X119252438Y-113488093D02*
X119300057Y-113440474D01*
X119300057Y-113440474D02*
X119252438Y-113392855D01*
X119252438Y-113392855D02*
X119204819Y-113440474D01*
X119204819Y-113440474D02*
X119300057Y-113440474D01*
X120204819Y-112821427D02*
X120157200Y-112916665D01*
X120157200Y-112916665D02*
X120109580Y-112964284D01*
X120109580Y-112964284D02*
X120014342Y-113011903D01*
X120014342Y-113011903D02*
X119728628Y-113011903D01*
X119728628Y-113011903D02*
X119633390Y-112964284D01*
X119633390Y-112964284D02*
X119585771Y-112916665D01*
X119585771Y-112916665D02*
X119538152Y-112821427D01*
X119538152Y-112821427D02*
X119538152Y-112678570D01*
X119538152Y-112678570D02*
X119585771Y-112583332D01*
X119585771Y-112583332D02*
X119633390Y-112535713D01*
X119633390Y-112535713D02*
X119728628Y-112488094D01*
X119728628Y-112488094D02*
X120014342Y-112488094D01*
X120014342Y-112488094D02*
X120109580Y-112535713D01*
X120109580Y-112535713D02*
X120157200Y-112583332D01*
X120157200Y-112583332D02*
X120204819Y-112678570D01*
X120204819Y-112678570D02*
X120204819Y-112821427D01*
X121204819Y-118773808D02*
X122204819Y-118107142D01*
X121204819Y-118107142D02*
X122204819Y-118773808D01*
X122204819Y-117726189D02*
X121204819Y-117726189D01*
X121919104Y-117297618D02*
X121919104Y-116821428D01*
X122204819Y-117392856D02*
X121204819Y-117059523D01*
X121204819Y-117059523D02*
X122204819Y-116726190D01*
X121204819Y-116202380D02*
X121204819Y-116011904D01*
X121204819Y-116011904D02*
X121252438Y-115916666D01*
X121252438Y-115916666D02*
X121347676Y-115821428D01*
X121347676Y-115821428D02*
X121538152Y-115773809D01*
X121538152Y-115773809D02*
X121871485Y-115773809D01*
X121871485Y-115773809D02*
X122061961Y-115821428D01*
X122061961Y-115821428D02*
X122157200Y-115916666D01*
X122157200Y-115916666D02*
X122204819Y-116011904D01*
X122204819Y-116011904D02*
X122204819Y-116202380D01*
X122204819Y-116202380D02*
X122157200Y-116297618D01*
X122157200Y-116297618D02*
X122061961Y-116392856D01*
X122061961Y-116392856D02*
X121871485Y-116440475D01*
X121871485Y-116440475D02*
X121538152Y-116440475D01*
X121538152Y-116440475D02*
X121347676Y-116392856D01*
X121347676Y-116392856D02*
X121252438Y-116297618D01*
X121252438Y-116297618D02*
X121204819Y-116202380D01*
X118666666Y-42434819D02*
X118666666Y-43149104D01*
X118666666Y-43149104D02*
X118619047Y-43291961D01*
X118619047Y-43291961D02*
X118523809Y-43387200D01*
X118523809Y-43387200D02*
X118380952Y-43434819D01*
X118380952Y-43434819D02*
X118285714Y-43434819D01*
X119666666Y-43434819D02*
X119095238Y-43434819D01*
X119380952Y-43434819D02*
X119380952Y-42434819D01*
X119380952Y-42434819D02*
X119285714Y-42577676D01*
X119285714Y-42577676D02*
X119190476Y-42672914D01*
X119190476Y-42672914D02*
X119095238Y-42720533D01*
%TO.C,D6*%
D12*
X174420000Y-83250000D02*
X175070000Y-83250000D01*
X175670000Y-82130000D02*
X175670000Y-84370000D01*
X175790000Y-82130000D02*
X175790000Y-84370000D01*
X175910000Y-82130000D02*
X175910000Y-84370000D01*
X179960000Y-83250000D02*
X179310000Y-83250000D01*
X175070000Y-82130000D02*
X179310000Y-82130000D01*
X179310000Y-84370000D01*
X175070000Y-84370000D01*
X175070000Y-82130000D01*
%TO.C,SW13*%
X161700000Y-46400000D02*
X162300000Y-46400000D01*
X162000000Y-46700000D02*
X161700000Y-46400000D01*
X162300000Y-46400000D02*
X162000000Y-46700000D01*
X163400000Y-44600000D02*
X163400000Y-56400000D01*
X167500000Y-44600000D02*
X163400000Y-44600000D01*
X167500000Y-56400000D02*
X163400000Y-56400000D01*
X169000000Y-50500000D02*
X170000000Y-50500000D01*
X169500000Y-50000000D02*
X169500000Y-51000000D01*
X171500000Y-44600000D02*
X175600000Y-44600000D01*
X175600000Y-44600000D02*
X175600000Y-47000000D01*
X175600000Y-49200000D02*
X175600000Y-51800000D01*
X175600000Y-54000000D02*
X175600000Y-56400000D01*
X175600000Y-56400000D02*
X171500000Y-56400000D01*
X172500000Y-50500000D02*
G75*
G02*
X166500000Y-50500000I-3000000J0D01*
G01*
X166500000Y-50500000D02*
G75*
G02*
X172500000Y-50500000I3000000J0D01*
G01*
%TO.C,SW11*%
X148675000Y-90425000D02*
X162645000Y-90425000D01*
X148675000Y-104395000D02*
X148675000Y-90425000D01*
X162645000Y-90425000D02*
X162645000Y-104395000D01*
X162645000Y-104395000D02*
X148675000Y-104395000D01*
%TO.C,D3*%
X164670000Y-83250000D02*
X165320000Y-83250000D01*
X165920000Y-82130000D02*
X165920000Y-84370000D01*
X166040000Y-82130000D02*
X166040000Y-84370000D01*
X166160000Y-82130000D02*
X166160000Y-84370000D01*
X170210000Y-83250000D02*
X169560000Y-83250000D01*
X165320000Y-82130000D02*
X169560000Y-82130000D01*
X169560000Y-84370000D01*
X165320000Y-84370000D01*
X165320000Y-82130000D01*
%TO.C,D4*%
X175540000Y-61500000D02*
X176190000Y-61500000D01*
X176790000Y-60380000D02*
X176790000Y-62620000D01*
X176910000Y-60380000D02*
X176910000Y-62620000D01*
X177030000Y-60380000D02*
X177030000Y-62620000D01*
X181080000Y-61500000D02*
X180430000Y-61500000D01*
X176190000Y-60380000D02*
X180430000Y-60380000D01*
X180430000Y-62620000D01*
X176190000Y-62620000D01*
X176190000Y-60380000D01*
%TO.C,SW9*%
X148675000Y-60245000D02*
X162645000Y-60245000D01*
X148675000Y-74215000D02*
X148675000Y-60245000D01*
X162645000Y-60245000D02*
X162645000Y-74215000D01*
X162645000Y-74215000D02*
X148675000Y-74215000D01*
%TO.C,D1*%
X165820000Y-61460000D02*
X166470000Y-61460000D01*
X167070000Y-60340000D02*
X167070000Y-62580000D01*
X167190000Y-60340000D02*
X167190000Y-62580000D01*
X167310000Y-60340000D02*
X167310000Y-62580000D01*
X171360000Y-61460000D02*
X170710000Y-61460000D01*
X166470000Y-60340000D02*
X170710000Y-60340000D01*
X170710000Y-62580000D01*
X166470000Y-62580000D01*
X166470000Y-60340000D01*
%TO.C,D5*%
X175540000Y-71750000D02*
X176190000Y-71750000D01*
X176790000Y-70630000D02*
X176790000Y-72870000D01*
X176910000Y-70630000D02*
X176910000Y-72870000D01*
X177030000Y-70630000D02*
X177030000Y-72870000D01*
X181080000Y-71750000D02*
X180430000Y-71750000D01*
X176190000Y-70630000D02*
X180430000Y-70630000D01*
X180430000Y-72870000D01*
X176190000Y-72870000D01*
X176190000Y-70630000D01*
%TO.C,D7*%
X171230000Y-66000000D02*
X171880000Y-66000000D01*
X172480000Y-64880000D02*
X172480000Y-67120000D01*
X172600000Y-64880000D02*
X172600000Y-67120000D01*
X172720000Y-64880000D02*
X172720000Y-67120000D01*
X176770000Y-66000000D02*
X176120000Y-66000000D01*
X171880000Y-64880000D02*
X176120000Y-64880000D01*
X176120000Y-67120000D01*
X171880000Y-67120000D01*
X171880000Y-64880000D01*
%TO.C,D2*%
X165170000Y-72000000D02*
X165820000Y-72000000D01*
X166420000Y-70880000D02*
X166420000Y-73120000D01*
X166540000Y-70880000D02*
X166540000Y-73120000D01*
X166660000Y-70880000D02*
X166660000Y-73120000D01*
X170710000Y-72000000D02*
X170060000Y-72000000D01*
X165820000Y-70880000D02*
X170060000Y-70880000D01*
X170060000Y-73120000D01*
X165820000Y-73120000D01*
X165820000Y-70880000D01*
%TO.C,SW2*%
X118495000Y-75335000D02*
X132465000Y-75335000D01*
X118495000Y-89305000D02*
X118495000Y-75335000D01*
X132465000Y-75335000D02*
X132465000Y-89305000D01*
X132465000Y-89305000D02*
X118495000Y-89305000D01*
%TO.C,SW5*%
X133585000Y-60245000D02*
X147555000Y-60245000D01*
X133585000Y-74215000D02*
X133585000Y-60245000D01*
X147555000Y-60245000D02*
X147555000Y-74215000D01*
X147555000Y-74215000D02*
X133585000Y-74215000D01*
%TO.C,D8*%
X170670000Y-77250000D02*
X171320000Y-77250000D01*
X171920000Y-76130000D02*
X171920000Y-78370000D01*
X172040000Y-76130000D02*
X172040000Y-78370000D01*
X172160000Y-76130000D02*
X172160000Y-78370000D01*
X176210000Y-77250000D02*
X175560000Y-77250000D01*
X171320000Y-76130000D02*
X175560000Y-76130000D01*
X175560000Y-78370000D01*
X171320000Y-78370000D01*
X171320000Y-76130000D01*
%TO.C,D9*%
X170170000Y-89000000D02*
X170820000Y-89000000D01*
X171420000Y-87880000D02*
X171420000Y-90120000D01*
X171540000Y-87880000D02*
X171540000Y-90120000D01*
X171660000Y-87880000D02*
X171660000Y-90120000D01*
X175710000Y-89000000D02*
X175060000Y-89000000D01*
X170820000Y-87880000D02*
X175060000Y-87880000D01*
X175060000Y-90120000D01*
X170820000Y-90120000D01*
X170820000Y-87880000D01*
%TO.C,SW3*%
X118495000Y-90425000D02*
X132465000Y-90425000D01*
X118495000Y-104395000D02*
X118495000Y-90425000D01*
X132465000Y-90425000D02*
X132465000Y-104395000D01*
X132465000Y-104395000D02*
X118495000Y-104395000D01*
%TO.C,SW6*%
X133585000Y-75335000D02*
X147555000Y-75335000D01*
X133585000Y-89305000D02*
X133585000Y-75335000D01*
X147555000Y-75335000D02*
X147555000Y-89305000D01*
X147555000Y-89305000D02*
X133585000Y-89305000D01*
%TO.C,SW7*%
X133585000Y-90425000D02*
X147555000Y-90425000D01*
X133585000Y-104395000D02*
X133585000Y-90425000D01*
X147555000Y-90425000D02*
X147555000Y-104395000D01*
X147555000Y-104395000D02*
X133585000Y-104395000D01*
%TO.C,SW10*%
X148675000Y-75335000D02*
X162645000Y-75335000D01*
X148675000Y-89305000D02*
X148675000Y-75335000D01*
X162645000Y-75335000D02*
X162645000Y-89305000D01*
X162645000Y-89305000D02*
X148675000Y-89305000D01*
%TO.C,SW1*%
X118495000Y-60245000D02*
X132465000Y-60245000D01*
X118495000Y-74215000D02*
X118495000Y-60245000D01*
X132465000Y-60245000D02*
X132465000Y-74215000D01*
X132465000Y-74215000D02*
X118495000Y-74215000D01*
%TO.C,U1*%
D13*
X109325970Y-112750000D02*
X116679270Y-112750000D01*
X109325970Y-121750000D02*
X109325970Y-112750000D01*
X110750910Y-110350000D02*
X110750910Y-124150000D01*
X112750000Y-126150000D02*
X129750000Y-126150000D01*
X116679270Y-112750000D02*
X116679270Y-121750000D01*
X116679270Y-121750000D02*
X109325970Y-121750000D01*
X129750000Y-108350000D02*
X112750000Y-108350000D01*
X131750000Y-124150000D02*
X131750000Y-110350000D01*
D12*
X110750000Y-110350000D02*
G75*
G02*
X112750000Y-108350000I2044610J-44610D01*
G01*
X112750000Y-126150000D02*
G75*
G02*
X110750000Y-124150000I44612J2044612D01*
G01*
X129750000Y-108350000D02*
G75*
G02*
X131750000Y-110350000I0J-2000000D01*
G01*
X131750000Y-124150000D02*
G75*
G02*
X129750000Y-126150000I-2044857J44857D01*
G01*
D14*
X112577000Y-128250000D02*
G75*
G02*
X112323000Y-128250000I-127000J0D01*
G01*
X112323000Y-128250000D02*
G75*
G02*
X112577000Y-128250000I127000J0D01*
G01*
D15*
X112688295Y-126137715D02*
X112639527Y-126134667D01*
X112590506Y-126130603D01*
X112688295Y-126137715D01*
X129771574Y-108360508D02*
X129820850Y-108362287D01*
X129869618Y-108365335D01*
X129918639Y-108369399D01*
X129967407Y-108374732D01*
X130016175Y-108381336D01*
X130064690Y-108388956D01*
X130112950Y-108397847D01*
X130160955Y-108407752D01*
X129771574Y-108360508D01*
%TO.C,J1*%
D12*
X117670000Y-47020000D02*
X117670000Y-54700000D01*
X117670000Y-47020000D02*
X120330000Y-47020000D01*
X117670000Y-54700000D02*
X120330000Y-54700000D01*
X119000000Y-44420000D02*
X120330000Y-44420000D01*
X120330000Y-44420000D02*
X120330000Y-45750000D01*
X120330000Y-47020000D02*
X120330000Y-54700000D01*
%TD*%
M02*
