M48
; DRILL file KiCad 10.0.5 date 2026-09-12T15:58:30
; FORMAT={-:-/ absolute / metric / decimal}
; #@! TF.CreationDate,2026-09-12T15:58:30+05:30
; #@! TF.GenerationSoftware,Kicad,Pcbnew,10.0.5
; #@! TF.FileFunction,NonPlated,1,2,NPTH
FMAT,2
METRIC
; #@! TA.AperFunction,NonPlated,NPTH,ComponentDrill
T1C1.700
; #@! TA.AperFunction,NonPlated,NPTH,ComponentDrill
T2C3.200
; #@! TA.AperFunction,NonPlated,NPTH,ComponentDrill
T3C4.000
%
G90
G05
T1
X120.4Y-67.23
X120.4Y-82.32
X120.4Y-97.41
X130.56Y-67.23
X130.56Y-82.32
X130.56Y-97.41
X135.49Y-67.23
X135.49Y-82.32
X135.49Y-97.41
X145.65Y-67.23
X145.65Y-82.32
X145.65Y-97.41
X150.58Y-67.23
X150.58Y-82.32
X150.58Y-97.41
X160.74Y-67.23
X160.74Y-82.32
X160.74Y-97.41
T2
X112.75Y-132.5
X113.0Y-46.5
X138.25Y-132.75
X181.75Y-46.75
X182.25Y-110.25
T3
X125.48Y-67.23
X125.48Y-82.32
X125.48Y-97.41
X140.57Y-67.23
X140.57Y-82.32
X140.57Y-97.41
X155.66Y-67.23
X155.66Y-82.32
X155.66Y-97.41
M30
